<?xml version="1.0" encoding="UTF-8" standalone="no"?>
<!-- Created with Inkscape (http://www.inkscape.org/) -->

<svg
   xmlns:dc="http://purl.org/dc/elements/1.1/"
   xmlns:cc="http://creativecommons.org/ns#"
   xmlns:rdf="http://www.w3.org/1999/02/22-rdf-syntax-ns#"
   xmlns:svg="http://www.w3.org/2000/svg"
   xmlns="http://www.w3.org/2000/svg"
   xmlns:sodipodi="http://sodipodi.sourceforge.net/DTD/sodipodi-0.dtd"
   xmlns:inkscape="http://www.inkscape.org/namespaces/inkscape"
   width="26.402754mm"
   height="18.465931mm"
   viewBox="0 0 26.402753 18.46593"
   version="1.1"
   id="svg960"
   inkscape:version="0.92.3 (2405546, 2018-03-11)"
   sodipodi:docname="Number_01.svg"
   inkscape:export-filename="C:\Users\Admin - Felix\Documents\HPI\GIT\ve_exitgame_2018\Escape\Assets\VE_Escape\DnDns\Number_01.png"
   inkscape:export-xdpi="705.46198"
   inkscape:export-ydpi="705.46198">
  <defs
     id="defs954">
    <clipPath
       id="clipEmfPath1"
       clipPathUnits="userSpaceOnUse">
      <path
         id="path1505"
         d="M 0.39211695,4.5885846 H 135.38044 V 163.57483 H 0.39211695 Z"
         inkscape:connector-curvature="0" />
    </clipPath>
    <pattern
       y="0"
       x="0"
       height="6"
       width="6"
       patternUnits="userSpaceOnUse"
       id="EMFhbasepattern" />
    <pattern
       y="0"
       x="0"
       height="6"
       width="6"
       patternUnits="userSpaceOnUse"
       id="EMFhbasepattern-1" />
    <pattern
       y="0"
       x="0"
       height="6"
       width="6"
       patternUnits="userSpaceOnUse"
       id="EMFhbasepattern-5" />
    <pattern
       y="0"
       x="0"
       height="6"
       width="6"
       patternUnits="userSpaceOnUse"
       id="EMFhbasepattern-3" />
    <pattern
       y="0"
       x="0"
       height="6"
       width="6"
       patternUnits="userSpaceOnUse"
       id="EMFhbasepattern-18" />
    <pattern
       y="0"
       x="0"
       height="6"
       width="6"
       patternUnits="userSpaceOnUse"
       id="EMFhbasepattern-6" />
    <pattern
       y="0"
       x="0"
       height="6"
       width="6"
       patternUnits="userSpaceOnUse"
       id="EMFhbasepattern-7" />
  </defs>
  <sodipodi:namedview
     id="base"
     pagecolor="#ffffff"
     bordercolor="#666666"
     borderopacity="1.0"
     inkscape:pageopacity="0.0"
     inkscape:pageshadow="2"
     inkscape:zoom="5.6"
     inkscape:cx="42.203508"
     inkscape:cy="39.241137"
     inkscape:document-units="mm"
     inkscape:current-layer="layer1"
     showgrid="false"
     inkscape:window-width="1278"
     inkscape:window-height="1048"
     inkscape:window-x="1273"
     inkscape:window-y="0"
     inkscape:window-maximized="0"
     fit-margin-top="5"
     fit-margin-left="5"
     fit-margin-right="5"
     fit-margin-bottom="5" />
  <metadata
     id="metadata957">
    <rdf:RDF>
      <cc:Work
         rdf:about="">
        <dc:format>image/svg+xml</dc:format>
        <dc:type
           rdf:resource="http://purl.org/dc/dcmitype/StillImage" />
        <dc:title></dc:title>
      </cc:Work>
    </rdf:RDF>
  </metadata>
  <g
     inkscape:label="Layer 1"
     inkscape:groupmode="layer"
     id="layer1"
     transform="translate(-78.723667,-157.1688)">
    <path
       id="path3397"
       d="m 83.723667,162.1688 h 16.402753 v 8.46593 H 83.723667 Z"
       style="fill:none;stroke:none;stroke-width:0.26458332"
       inkscape:connector-curvature="0" />
    <path
       id="path3399"
       d="m 97.728838,167.64189 -0.18189,-0.18188 -0.0331,-0.0165 -0.21495,-0.0827 h -0.0331 l -0.29763,-0.0165 h 0.0165 l -0.34724,-0.0661 h -0.0331 -0.44645 0.0165 l -0.49605,-0.0661 h -0.0165 -0.52912 -0.0165 l -0.47951,0.0331 h -0.0165 l -0.47952,0.0827 h 0.0165 l -0.34723,0.0165 -0.0165,0.0165 -0.29764,0.0827 c -0.0165,0 -0.0331,0.0165 -0.0331,0.0496 0,0.0165 0.0331,0.0331 0.0496,0.0331 l 0.31417,-0.0331 h -0.0165 l 0.34724,0.0165 v 0 l 0.49605,-0.0331 h -0.0165 l 0.47951,0.0165 h 0.0165 l 0.52912,0.0165 h -0.0165 l 0.49605,0.0496 h 0.0165 0.44645 -0.0165 l 0.34724,0.0496 h 0.0331 0.29763 -0.0331 l 0.23149,0.0331 -0.0496,-0.0165 0.19842,0.14881 c 0.0496,0.0165 0.0992,0.0165 0.11574,-0.0165 0.0331,-0.0331 0.0331,-0.0827 0,-0.11575 z"
       style="fill:#177d36;fill-opacity:1;fill-rule:nonzero;stroke:none;stroke-width:0.26458332"
       inkscape:connector-curvature="0" />
    <path
       id="path3401"
       d="m 90.436888,168.05527 -0.16535,-0.16535 -0.0496,-0.0331 -0.214956,-0.0661 -0.03307,-0.0165 h -0.29763 0.01653 l -0.347236,-0.0661 h -0.03307 l -0.446445,-0.0165 h 0.01653 l -0.496051,-0.0496 H 88.37 87.840879 v 0 l -0.496051,0.0165 h -0.01654 l -0.479516,0.0827 h 0.01653 l -0.347235,0.0331 v 0 l -0.314166,0.0827 c -0.01654,0 -0.03307,0.0331 -0.03307,0.0496 0.01653,0.0331 0.03307,0.0331 0.0496,0.0331 l 0.314166,-0.0331 h -0.01654 l 0.347235,0.0331 h 0.01654 l 0.479516,-0.0331 h -0.01654 l 0.496051,0.0165 v 0 h 0.529121 -0.01654 l 0.496051,0.0661 h 0.01654 l 0.446445,-0.0165 h -0.01654 l 0.347236,0.0661 h 0.03307 l 0.29763,-0.0165 h -0.03307 l 0.231491,0.0496 -0.0496,-0.0165 0.214955,0.13228 c 0.03307,0.0331 0.08267,0.0165 0.09921,-0.0165 0.03307,-0.0331 0.03307,-0.0827 0,-0.11574 z"
       style="fill:#177d36;fill-opacity:1;fill-rule:nonzero;stroke:none;stroke-width:0.26458332"
       inkscape:connector-curvature="0" />
    <path
       id="path3403"
       d="m 92.321881,164.28528 -0.06614,0.11575 c -0.03307,0.0661 -0.03307,0.13228 0,0.19842 0.01653,0.0661 0.08267,0.11574 0.148815,0.13228 l 0.297631,0.0827 h 0.03307 l 0.24802,0.0165 v 0 l 0.2811,0.0165 0.0661,-0.0165 0.34723,-0.0496 h 0.0165 l 0.42991,-0.0992 v 0 l 0.47952,-0.11574 v 0 l 0.52912,-0.11575 h 0.0165 l 0.54566,-0.14881 h -0.0165 l 0.56219,-0.13228 -0.0165,0.0165 0.54565,-0.0992 0.0165,-0.0165 0.46298,-0.0992 -0.0165,0.0165 0.42991,-0.0661 v 0 l 0.34724,-0.0661 -0.0496,0.0165 h 0.29763 v 0 h 0.21496 v 0 h 0.18188 l -0.14881,-0.0496 0.14881,0.0992 -0.11574,-0.3307 -0.0496,0.16535 0.0331,-0.0827 -0.11575,0.14881 0.0331,-0.0331 -0.19842,0.19842 -0.0331,0.0331 -0.24803,0.29763 v 0.0165 l -0.26456,0.3307 -0.0165,0.0165 -0.29763,0.42991 v 0 l -0.34723,0.49606 -0.0165,0.0165 -0.26456,0.49605 v 0.0165 l -0.2811,0.52912 -0.0165,0.0331 -0.18188,0.47951 v 0.0165 l -0.14882,0.46298 v 0.0331 l -0.0661,0.3803 v 0.0331 l 0.0496,0.33071 v 0.0165 l 0.0827,0.24803 0.0165,0.0331 0.0827,0.0661 c 0.0165,0.0165 0.0496,0.0165 0.0827,0 0.0165,-0.0165 0.0165,-0.0496 0,-0.0661 l -0.0827,-0.0992 0.0165,0.0496 v -0.26456 0.0165 l 0.0496,-0.33071 -0.0165,0.0331 0.13228,-0.36377 -0.0165,0.0165 0.21496,-0.42991 v 0 l 0.23149,-0.47952 v 0.0331 l 0.31416,-0.52912 v 0 l 0.2811,-0.47951 v 0.0165 l 0.34723,-0.49605 v 0 l 0.29763,-0.42991 -0.0165,0.0165 0.26456,-0.3307 v 0 l 0.24803,-0.31416 -0.0165,0.0331 0.19842,-0.19842 0.0331,-0.0331 0.11575,-0.14882 0.0496,-0.0827 0.0496,-0.16535 c 0.0496,-0.11575 0,-0.24803 -0.0992,-0.3307 l -0.14882,-0.0992 c -0.0496,-0.0331 -0.0992,-0.0496 -0.16535,-0.0496 h -0.18189 v 0 h -0.21495 v 0 h -0.29763 -0.0331 l -0.36377,0.0661 h 0.0165 l -0.42991,0.0661 h -0.0165 l -0.46298,0.0992 v 0 l -0.54566,0.0992 h -0.0165 l -0.54565,0.13228 h -0.0165 l -0.54566,0.14882 h 0.0165 l -0.52912,0.11574 v 0 l -0.49605,0.0992 v 0 l -0.42991,0.0992 h 0.0165 l -0.34724,0.0661 h 0.0331 -0.28109 v 0 l -0.24803,0.0165 h 0.0496 l -0.314164,-0.0165 0.198421,0.11575 -0.06614,-0.11575 c -0.03307,-0.0496 -0.08267,-0.0827 -0.148815,-0.0827 -0.04961,0 -0.115746,0.0331 -0.132281,0.0827 z"
       style="fill:#177d36;fill-opacity:1;fill-rule:nonzero;stroke:none;stroke-width:0.26458332"
       inkscape:connector-curvature="0" />
    <path
       id="path3405"
       d="m 85.029934,164.69866 -0.06614,0.11574 c -0.03307,0.0661 -0.03307,0.14882 0,0.21496 0.01654,0.0661 0.08268,0.0992 0.148815,0.13228 l 0.297631,0.0661 h 0.0496 l 0.23149,0.0165 v 0 l 0.281096,0.0165 h 0.06614 l 0.347235,-0.0661 h 0.01654 l 0.429911,-0.0992 v 0 l 0.496051,-0.11575 h -0.01653 l 0.529121,-0.0992 h 0.01654 l 0.545656,-0.16535 -0.01653,0.0165 0.562191,-0.13228 h -0.01654 l 0.562191,-0.0992 v 0 l 0.479515,-0.0992 h -0.03307 l 0.429911,-0.0661 v 0 l 0.363771,-0.0496 h -0.0496 0.281095 v 0 h 0.214955 v 0 h 0.181886 l -0.148816,-0.0496 0.148816,0.0992 -0.115746,-0.3307 -0.0496,0.18188 0.03307,-0.0992 -0.115746,0.16535 0.03307,-0.0331 -0.19842,0.18189 -0.03307,0.0331 -0.248025,0.31416 v 0 l -0.264561,0.34724 h -0.01654 l -0.29763,0.42991 v 0 l -0.330701,0.49605 -0.01654,0.0331 -0.281096,0.49605 v 0 l -0.281095,0.54566 v 0.0165 l -0.19842,0.49605 v 0 L 88.833,168.07178 v 0.0331 l -0.04961,0.38031 v 0.0496 l 0.03307,0.31416 v 0.0165 l 0.08268,0.24802 0.01654,0.0331 0.08267,0.0661 c 0.03307,0.0331 0.06614,0.0165 0.08267,0 0.01654,-0.0165 0.01654,-0.0496 0,-0.0661 l -0.08267,-0.0827 0.01654,0.0331 v -0.26456 0.0165 l 0.0496,-0.31416 -0.01654,0.0165 0.13228,-0.36377 v 0.0165 l 0.19842,-0.42992 v 0 l 0.231491,-0.46298 v 0.0165 l 0.314165,-0.51259 v -0.0165 l 0.297631,-0.47952 -0.01654,0.0165 0.347235,-0.47952 v 0 l 0.297631,-0.42991 -0.01654,0.0165 0.281095,-0.34724 v 0 l 0.248026,-0.31417 -0.03307,0.0331 0.19842,-0.18188 0.03307,-0.0331 0.115745,-0.14882 0.0496,-0.0827 0.0496,-0.16535 c 0.0496,-0.13228 0,-0.26456 -0.09921,-0.3307 l -0.148815,-0.0992 c -0.0496,-0.0331 -0.09921,-0.0496 -0.16535,-0.0496 h -0.181886 v 0 h -0.214955 v 0 h -0.281079 -0.04961 l -0.347235,0.0661 v -0.0165 l -0.413376,0.0661 h -0.03307 l -0.462981,0.0992 h 0.01654 l -0.56219,0.0992 v 0.0165 l -0.562191,0.11575 -0.01654,0.0165 -0.545655,0.14882 0.01654,-0.0165 -0.529121,0.11575 v 0 l -0.496051,0.11574 v 0 l -0.429911,0.0992 h 0.01653 l -0.347235,0.0496 h 0.03307 l -0.281096,0.0165 v 0 l -0.23149,0.0165 h 0.03307 l -0.297631,-0.0331 0.181886,0.11574 -0.06614,-0.11574 c -0.03307,-0.0496 -0.08267,-0.0827 -0.148816,-0.0827 -0.0496,0 -0.09921,0.0331 -0.13228,0.0827 z"
       style="fill:#177d36;fill-opacity:1;fill-rule:nonzero;stroke:none;stroke-width:0.26458332"
       inkscape:connector-curvature="0" />
  </g>
</svg>
