<?xml version="1.0" encoding="UTF-8" standalone="no"?>
<!-- Created with Inkscape (http://www.inkscape.org/) -->

<svg
   xmlns:dc="http://purl.org/dc/elements/1.1/"
   xmlns:cc="http://creativecommons.org/ns#"
   xmlns:rdf="http://www.w3.org/1999/02/22-rdf-syntax-ns#"
   xmlns:svg="http://www.w3.org/2000/svg"
   xmlns="http://www.w3.org/2000/svg"
   xmlns:sodipodi="http://sodipodi.sourceforge.net/DTD/sodipodi-0.dtd"
   xmlns:inkscape="http://www.inkscape.org/namespaces/inkscape"
   width="20.317858mm"
   height="20.846979mm"
   viewBox="0 0 20.317857 20.846979"
   version="1.1"
   id="svg960"
   inkscape:version="0.92.3 (2405546, 2018-03-11)"
   sodipodi:docname="Number_03.svg"
   inkscape:export-filename="C:\Users\Admin - Felix\Documents\HPI\GIT\ve_exitgame_2018\Escape\Assets\VE_Escape\DnDns\Number_02.png"
   inkscape:export-xdpi="705.46198"
   inkscape:export-ydpi="705.46198">
  <defs
     id="defs954">
    <clipPath
       id="clipEmfPath1"
       clipPathUnits="userSpaceOnUse">
      <path
         id="path1505"
         d="M 0.39211695,4.5885846 H 135.38044 V 163.57483 H 0.39211695 Z"
         inkscape:connector-curvature="0" />
    </clipPath>
    <pattern
       y="0"
       x="0"
       height="6"
       width="6"
       patternUnits="userSpaceOnUse"
       id="EMFhbasepattern" />
    <pattern
       y="0"
       x="0"
       height="6"
       width="6"
       patternUnits="userSpaceOnUse"
       id="EMFhbasepattern-1" />
    <pattern
       y="0"
       x="0"
       height="6"
       width="6"
       patternUnits="userSpaceOnUse"
       id="EMFhbasepattern-5" />
    <pattern
       y="0"
       x="0"
       height="6"
       width="6"
       patternUnits="userSpaceOnUse"
       id="EMFhbasepattern-3" />
    <pattern
       y="0"
       x="0"
       height="6"
       width="6"
       patternUnits="userSpaceOnUse"
       id="EMFhbasepattern-18" />
    <pattern
       y="0"
       x="0"
       height="6"
       width="6"
       patternUnits="userSpaceOnUse"
       id="EMFhbasepattern-6" />
    <pattern
       y="0"
       x="0"
       height="6"
       width="6"
       patternUnits="userSpaceOnUse"
       id="EMFhbasepattern-7" />
    <pattern
       y="0"
       x="0"
       height="6"
       width="6"
       patternUnits="userSpaceOnUse"
       id="EMFhbasepattern-62" />
    <pattern
       y="0"
       x="0"
       height="6"
       width="6"
       patternUnits="userSpaceOnUse"
       id="EMFhbasepattern-8" />
  </defs>
  <sodipodi:namedview
     id="base"
     pagecolor="#ffffff"
     bordercolor="#666666"
     borderopacity="1.0"
     inkscape:pageopacity="0.0"
     inkscape:pageshadow="2"
     inkscape:zoom="5.6"
     inkscape:cx="64.280601"
     inkscape:cy="22.890483"
     inkscape:document-units="mm"
     inkscape:current-layer="layer1"
     showgrid="false"
     inkscape:window-width="1278"
     inkscape:window-height="1048"
     inkscape:window-x="1273"
     inkscape:window-y="0"
     inkscape:window-maximized="0"
     fit-margin-top="5"
     fit-margin-left="5"
     fit-margin-right="5"
     fit-margin-bottom="5" />
  <metadata
     id="metadata957">
    <rdf:RDF>
      <cc:Work
         rdf:about="">
        <dc:format>image/svg+xml</dc:format>
        <dc:type
           rdf:resource="http://purl.org/dc/dcmitype/StillImage" />
        <dc:title></dc:title>
      </cc:Work>
    </rdf:RDF>
  </metadata>
  <g
     inkscape:label="Layer 1"
     inkscape:groupmode="layer"
     id="layer1"
     transform="translate(-72.882436,-150.46164)">
    <path
       id="path3444"
       d="m 77.882436,155.46164 h 10.317857 v 10.84698 H 77.882436 Z"
       style="fill:none;stroke:none;stroke-width:0.26458332"
       inkscape:connector-curvature="0" />
    <path
       id="path3446"
       d="m 81.503607,157.14821 -0.13228,-0.14881 -0.01654,-0.0165 -0.165351,-0.0992 0.04961,0.0661 -0.03307,-0.13228 c -0.01654,-0.0661 -0.06614,-0.11574 -0.132281,-0.14881 -0.06614,-0.0165 -0.13228,-0.0165 -0.19842,0.0331 l -0.148815,0.0827 h 0.01653 l -0.231491,0.11575 -0.0496,0.0331 -0.148815,0.14881 -0.01654,0.0165 -0.19842,0.19842 -0.03307,0.0496 -0.181886,0.3307 -0.01654,0.0165 -0.214955,0.41337 -0.01653,0.0331 -0.19842,0.54566 -0.01654,0.0165 -0.198421,0.59526 -0.01654,0.0331 -0.148815,0.711 v 0.0165 l -0.09921,0.74407 v 0.0165 l -0.0496,0.71101 v 0.0165 0.69447 l 0.01654,0.0496 0.09921,0.54565 v 0.0496 l 0.19842,0.51258 0.03307,0.0496 0.231491,0.34723 0.03307,0.0496 0.281095,0.26456 0.06614,0.0496 0.297631,0.14882 0.0496,0.0165 0.29763,0.0827 0.06614,0.0165 h 0.297631 v 0 h 0.264561 l 0.0496,-0.0165 0.231491,-0.0496 0.06614,-0.0165 0.16535,-0.0827 0.06614,-0.0496 0.132281,-0.14882 0.03307,-0.0165 0.08268,-0.13228 0.03307,-0.0827 0.0496,-0.14881 0.01654,-0.0827 v -0.19842 0 -0.21495 -0.0496 l -0.0496,-0.23149 v -0.0331 l -0.09921,-0.26456 v -0.0331 l -0.115746,-0.21495 v -0.0165 l -0.13228,-0.24802 -0.03307,-0.0661 -0.16535,-0.18189 -0.03307,-0.0165 -0.19842,-0.16535 h -0.01654 l -0.231491,-0.16535 c -0.0496,-0.0331 -0.09921,-0.0496 -0.148815,-0.0331 H 80.5611 l -0.01654,0.0165 -0.23149,0.0165 v 0 l -0.248025,0.0331 -0.08268,0.0331 -0.19842,0.11574 v 0.0165 l -0.148815,0.0992 h -0.01654 l -0.115745,0.13228 c -0.03307,0.0165 -0.03307,0.0496 -0.01653,0.0827 0.01653,0.0165 0.0496,0.0331 0.08267,0.0331 l 0.16535,-0.0661 -0.01654,0.0165 0.16535,-0.0331 h 0.01654 l 0.231491,-0.0661 h -0.06614 l 0.248025,0.0331 v 0 l 0.23149,0.0165 h 0.01654 l 0.281096,0.0165 -0.13228,-0.0496 0.214955,0.16535 v 0 l 0.19842,0.14882 -0.03307,-0.0165 0.165351,0.16535 -0.0496,-0.0496 0.13228,0.24802 v 0 l 0.09921,0.21496 -0.01654,-0.0331 0.09921,0.28109 -0.01653,-0.0331 0.0496,0.21496 -0.01654,-0.0331 v 0.21495 0 l 0.01654,0.19842 v -0.0661 l -0.0496,0.14882 0.03307,-0.0661 -0.08267,0.13228 0.01653,-0.0331 -0.13228,0.14881 0.08267,-0.0661 -0.16535,0.0827 0.06614,-0.0165 -0.248026,0.0496 h 0.06614 -0.264561 v 0 h -0.297631 0.06614 l -0.297631,-0.0827 0.0496,0.0165 -0.29763,-0.14882 0.06614,0.0496 -0.281096,-0.26456 0.03307,0.0331 -0.23149,-0.36377 0.01654,0.0661 -0.181885,-0.51259 0.01654,0.0331 -0.09921,-0.54565 v 0.0496 -0.69447 0.0165 l 0.03307,-0.71101 v 0.0165 l 0.09921,-0.74407 v 0.0165 l 0.148815,-0.69447 v 0.0331 l 0.19842,-0.61179 v 0 l 0.214956,-0.54566 -0.01653,0.0331 0.214955,-0.42991 v 0.0165 l 0.19842,-0.3307 -0.03307,0.0331 0.181886,-0.19842 v 0 l 0.13228,-0.16535 -0.0496,0.0496 0.214955,-0.13228 0.0496,-0.0331 0.115746,-0.13228 -0.198421,0.0661 0.148815,0.0331 -0.03307,-0.0165 0.165351,0.0827 h -0.01654 l 0.16535,0.11574 c 0.0496,0.0331 0.09921,0.0165 0.148815,-0.0165 0.03307,-0.0496 0.03307,-0.11575 -0.01653,-0.14882 z"
       style="fill:#177d36;fill-opacity:1;fill-rule:nonzero;stroke:none;stroke-width:0.26458332"
       inkscape:connector-curvature="0" />
    <path
       id="path3448"
       d="m 85.472014,157.47891 -0.165351,0.0992 -0.01654,0.0165 -0.181885,0.16535 v 0 l -0.23149,0.19842 v 0 l -0.281096,0.28109 h -0.01653 l -0.26456,0.29764 v -0.0165 l -0.330701,0.3307 -0.01653,0.0165 -0.281095,0.3307 h -0.01653 l -0.297631,0.39684 v 0 l -0.23149,0.31416 h -0.01654 l -0.214956,0.3307 -0.01653,0.0496 -0.09921,0.23149 -0.01653,0.0496 -0.0496,0.24803 -0.01654,0.0496 v 0.16535 c 0,0.0827 0.03307,0.16535 0.115745,0.21496 l 0.148815,0.13228 0.04961,0.0331 0.214955,0.0827 0.0496,0.0165 0.281096,0.0661 h 0.0496 0.347236 -0.0496 l 0.396841,0.0661 h 0.03307 0.413375 v 0 h 0.396841 0.01653 l 0.347236,-0.0165 v 0 l 0.347235,-0.0165 v 0 l 0.297631,-0.0165 0.08267,-0.0331 0.248025,-0.13229 0.01653,-0.0165 0.165351,-0.0992 0.0496,-0.0496 0.09921,-0.18188 0.01654,-0.0331 0.03307,-0.16535 v 0 l 0.03307,-0.21496 c 0,-0.0331 -0.01654,-0.0496 -0.03307,-0.0496 -0.03307,-0.0165 -0.0496,0 -0.0496,0.0165 l -0.08267,0.21496 0.01654,-0.0331 -0.115745,0.14881 0.01653,-0.0165 -0.148815,0.11574 0.06614,-0.0331 -0.19842,0.0331 -0.01654,0.0165 -0.281095,0.0661 h 0.08267 l -0.297631,-0.0165 v -0.0165 l -0.347235,-0.0165 v 0 h -0.347236 -0.01653 -0.396841 v 0 h -0.413375 0.0496 l -0.396841,-0.0661 h -0.03307 -0.347236 l 0.06614,0.0165 -0.281096,-0.0661 0.0496,0.0165 -0.19842,-0.0827 0.0496,0.0331 -0.16535,-0.13228 0.115745,0.21495 v -0.16535 l -0.01654,0.0331 0.03307,-0.24802 v 0.0496 l 0.08268,-0.24802 -0.03307,0.0496 0.19842,-0.3307 v 0 l 0.214956,-0.3307 -0.01653,0.0165 0.281095,-0.41338 v 0.0165 l 0.264561,-0.36377 -0.01654,0.0165 0.314165,-0.34723 v 0 l 0.264561,-0.31417 v 0 l 0.26456,-0.2811 v 0 l 0.214955,-0.21495 v 0 l 0.165351,-0.18189 -0.01654,0.0165 0.148815,-0.13228 c 0.0496,-0.0496 0.0496,-0.11575 0.01654,-0.14882 -0.03307,-0.0496 -0.09921,-0.0661 -0.148815,-0.0331 z"
       style="fill:#177d36;fill-opacity:1;fill-rule:nonzero;stroke:none;stroke-width:0.26458332"
       inkscape:connector-curvature="0" />
    <path
       id="path3450"
       d="m 86.265695,159.41351 -0.115745,0.14882 -0.03307,0.0496 -0.09921,0.26456 v 0.0165 l -0.148815,0.41337 -0.01654,0.0331 -0.09921,0.47952 v -0.0165 l -0.148815,0.56219 v 0.0331 l -0.09921,0.62834 v 0 l -0.09921,0.61179 v 0.0165 l -0.06614,0.69447 v 0.0331 l 0.03307,0.54565 v 0 l 0.03307,0.49605 v 0 l 0.04961,0.36378 0.0496,0.0992 0.148815,0.13228 0.115745,0.0165 0.264561,-0.11574 c 0.01653,0 0.03307,-0.0331 0.01653,-0.0496 0,-0.0165 -0.01653,-0.0331 -0.03307,-0.0331 l -0.281095,-0.0165 0.08268,0.0661 -0.08268,-0.18189 0.01654,0.0827 0.03307,-0.36378 v 0 l 0.0496,-0.49605 v 0 l 0.03307,-0.54565 -0.01654,0.0165 0.09921,-0.67793 v 0 l 0.09921,-0.62833 v 0 l 0.08268,-0.6118 v 0.0165 l 0.115745,-0.5622 0.01654,-0.0331 0.06614,-0.47951 v 0.0331 l 0.115745,-0.44645 v 0 l 0.0496,-0.28109 v 0.0165 l 0.0496,-0.18188 c 0.01653,-0.0661 -0.01654,-0.14882 -0.08268,-0.18189 -0.06614,-0.0331 -0.148815,-0.0165 -0.19842,0.0331 z"
       style="fill:#177d36;fill-opacity:1;fill-rule:nonzero;stroke:none;stroke-width:0.26458332"
       inkscape:connector-curvature="0" />
  </g>
</svg>
