<?xml version="1.0" encoding="UTF-8" standalone="no"?>
<!-- Created with Inkscape (http://www.inkscape.org/) -->

<svg
   xmlns:dc="http://purl.org/dc/elements/1.1/"
   xmlns:cc="http://creativecommons.org/ns#"
   xmlns:rdf="http://www.w3.org/1999/02/22-rdf-syntax-ns#"
   xmlns:svg="http://www.w3.org/2000/svg"
   xmlns="http://www.w3.org/2000/svg"
   xmlns:sodipodi="http://sodipodi.sourceforge.net/DTD/sodipodi-0.dtd"
   xmlns:inkscape="http://www.inkscape.org/namespaces/inkscape"
   width="23.492582mm"
   height="21.11154mm"
   viewBox="0 0 23.49258 21.111539"
   version="1.1"
   id="svg960"
   inkscape:version="0.92.3 (2405546, 2018-03-11)"
   sodipodi:docname="Number_08.svg"
   inkscape:export-filename="C:\Users\Admin - Felix\Documents\HPI\GIT\ve_exitgame_2018\Escape\Assets\VE_Escape\DnDns\Number_08.png"
   inkscape:export-xdpi="705.46198"
   inkscape:export-ydpi="705.46198">
  <defs
     id="defs954">
    <pattern
       y="0"
       x="0"
       height="6"
       width="6"
       patternUnits="userSpaceOnUse"
       id="EMFhbasepattern" />
  </defs>
  <sodipodi:namedview
     id="base"
     pagecolor="#ffffff"
     bordercolor="#666666"
     borderopacity="1.0"
     inkscape:pageopacity="0.0"
     inkscape:pageshadow="2"
     inkscape:zoom="5.6"
     inkscape:cx="67.824425"
     inkscape:cy="20.706515"
     inkscape:document-units="mm"
     inkscape:current-layer="layer1"
     showgrid="false"
     inkscape:window-width="1278"
     inkscape:window-height="1048"
     inkscape:window-x="1273"
     inkscape:window-y="0"
     inkscape:window-maximized="0"
     fit-margin-top="5"
     fit-margin-left="5"
     fit-margin-right="5"
     fit-margin-bottom="5" />
  <metadata
     id="metadata957">
    <rdf:RDF>
      <cc:Work
         rdf:about="">
        <dc:format>image/svg+xml</dc:format>
        <dc:type
           rdf:resource="http://purl.org/dc/dcmitype/StillImage" />
        <dc:title></dc:title>
      </cc:Work>
    </rdf:RDF>
  </metadata>
  <g
     inkscape:label="Layer 1"
     inkscape:groupmode="layer"
     id="layer1"
     transform="translate(-55.5389,-136.08552)">
    <path
       id="path3466"
       d="m 77.050093,155.87811 h 10.846978 v 8.46593 H 77.050093 Z"
       style="fill:none;stroke:none;stroke-width:0.26458332"
       inkscape:connector-curvature="0" />
    <path
       id="path3548"
       d="m 62.221575,141.93508 h 9.524176 v 10.0533 h -9.524176 z"
       style="fill:none;stroke:none;stroke-width:0.26458332"
       inkscape:connector-curvature="0" />
    <path
       id="path3567"
       d="m 60.5389,141.08552 h 13.492582 v 11.11154 H 60.5389 Z"
       style="fill:none;stroke:none;stroke-width:0.26458332"
       inkscape:connector-curvature="0" />
    <path
       id="path3569"
       d="m 70.840222,142.25951 -0.248025,0.0661 -0.03307,0.0165 -0.231491,0.14882 -0.01654,0.0165 -0.281095,0.2811 v 0 l -0.396841,0.41337 v 0 l -0.429911,0.49605 v 0 l -0.512585,0.54566 -0.01654,0.0165 -0.446445,0.57872 v 0 l -0.446446,0.57873 h -0.01653 l -0.363771,0.54565 h -0.01654 l -0.281095,0.46298 -0.01653,0.0331 -0.115745,0.31417 -0.01653,0.0661 v 0.24802 c 0,0.0827 0.0496,0.16536 0.13228,0.19843 l 0.148815,0.0661 0.06614,0.0165 0.248026,0.0165 0.08267,-0.0165 0.39684,-0.14881 v 0.0165 l 0.479516,-0.14882 v 0 l 0.578726,-0.16535 h -0.01654 l 0.611796,-0.14881 h -0.01653 l 0.611796,-0.11575 h -0.01654 l 0.628331,-0.0992 h -0.01654 l 0.529121,-0.0661 h -0.01654 l 0.496051,-0.0165 v 0 l 0.347236,-0.0165 h -0.03307 l 0.281096,0.0165 h 0.01654 0.181885 c 0.06614,0 0.115745,-0.0496 0.13228,-0.11575 0.01653,-0.0661 -0.01654,-0.13228 -0.08268,-0.14881 l -0.23149,-0.0827 h 0.01654 l -0.16535,-0.0992 v 0 l -0.198421,-0.18188 v 0 l -0.148815,-0.23149 h -0.01654 l -0.16535,-0.23149 v 0.0165 l -0.148816,-0.26456 v 0.0165 l -0.09921,-0.23149 v 0 l -0.0496,-0.13228 -0.01654,-0.0331 -0.08267,-0.11575 c -0.03307,-0.0496 -0.08268,-0.0661 -0.13228,-0.0661 -0.0496,0.0165 -0.08267,0.0331 -0.115745,0.0827 l -0.115745,0.28109 -0.01654,0.0165 -0.09921,0.36377 -0.01654,0.0165 -0.06614,0.49605 v -0.0165 l -0.13228,0.6614 v -0.0165 l -0.13228,0.71101 v 0 l -0.115745,0.81022 v 0 l -0.115746,0.72754 v 0.0165 l -0.06614,0.72754 0.01653,-0.0165 -0.06614,0.57872 v 0.0331 l 0.03307,0.42992 0.0496,0.0992 0.115746,0.14881 c 0.03307,0.0331 0.08267,0.0496 0.13228,0.0496 0.03307,0 0.08268,-0.0165 0.115745,-0.0661 l 0.3307,-0.46298 h 0.01654 l 0.248026,-0.52913 c 0,-0.0165 0,-0.0496 -0.01653,-0.0661 -0.03307,0 -0.0496,0 -0.06614,0.0165 l -0.297631,0.49605 0.01653,-0.0165 -0.462981,0.36378 c -0.0496,0.0496 -0.06614,0.13228 -0.01653,0.19842 0.03307,0.0661 0.115745,0.0827 0.181885,0.0496 0.08268,-0.0331 0.09921,-0.11574 0.08268,-0.18188 l -0.06614,-0.18189 v 0.0827 l 0.03307,-0.42992 v 0.0165 l 0.08268,-0.56219 v -0.0165 l 0.06614,-0.711 v 0 l 0.09921,-0.74408 v 0 l 0.09921,-0.79368 v 0 l 0.115745,-0.69447 v 0 l 0.09921,-0.6614 v 0 l 0.0496,-0.49605 -0.01653,0.0165 0.08267,-0.36377 -0.01654,0.0165 0.09921,-0.29763 -0.181885,0.0827 0.148815,0.0661 -0.03307,-0.0165 0.115745,0.0827 -0.01653,-0.0165 0.115745,0.23149 v 0 l 0.148816,0.24802 v 0.0165 l 0.181885,0.23149 v -0.0165 l 0.16535,0.23149 v 0.0165 l 0.19842,0.18188 v 0 l 0.132281,0.14882 v 0 l 0.16535,0.18188 c 0.03307,0.0331 0.08268,0.0496 0.13228,0.0496 0.0496,-0.0165 0.08267,-0.0661 0.09921,-0.11575 0.01653,-0.0496 -0.01654,-0.0992 -0.0496,-0.13228 l -0.148815,-0.11574 -0.06614,-0.0165 -0.281095,-0.0661 -0.03307,-0.0165 -0.347236,-0.0165 v 0 l -0.496051,-0.0165 h -0.03307 l -0.529121,0.0496 h -0.01653 l -0.628331,0.0992 v 0 l -0.611796,0.13228 h -0.01654 l -0.611796,0.16535 v 0 l -0.562191,0.18189 h -0.01654 l -0.479516,0.14881 -0.01653,0.0165 -0.396841,0.14881 0.08268,-0.0165 -0.248026,0.0165 h 0.06614 l -0.148815,-0.0331 0.16535,0.19842 -0.01654,-0.24802 -0.01653,0.0661 0.09921,-0.31417 -0.01654,0.0331 0.264561,-0.46298 v 0 l 0.36377,-0.54565 -0.01653,0.0165 0.446445,-0.59526 v 0 l 0.446446,-0.57872 h -0.01654 l 0.512586,-0.5622 v 0 l 0.429911,-0.49605 v 0 l 0.380305,-0.41337 v 0 l 0.264561,-0.2811 h -0.01654 l 0.214956,-0.18188 -0.03307,0.0165 0.23149,-0.0992 c 0.0496,-0.0331 0.08267,-0.0827 0.06614,-0.13228 -0.01653,-0.0496 -0.08267,-0.0661 -0.13228,-0.0496 z"
       style="fill:#177d36;fill-opacity:1;fill-rule:nonzero;stroke:none;stroke-width:0.26458332"
       inkscape:connector-curvature="0" />
    <path
       id="path3571"
       d="m 61.993982,144.72323 0.165351,-0.14882 -0.0496,0.0331 0.26456,-0.14881 -0.06614,0.0165 0.19842,-0.0661 h 0.01654 l 0.248026,-0.0827 -0.03307,0.0165 0.314165,-0.0661 h -0.03307 l 0.363771,-0.0331 0.01653,-0.0165 0.396841,-0.0661 h -0.06614 0.396841 v 0 h 0.380306 -0.04961 l 0.363771,0.0496 -0.06614,-0.0165 0.281095,0.11574 -0.03307,-0.0165 0.214956,0.11574 -0.03307,-0.0165 0.148815,0.11574 -0.115745,-0.23149 v 0.19842 0 l 0.01654,0.21496 0.01653,-0.0992 -0.09921,0.23149 0.01653,-0.0331 -0.132281,0.24802 0.01654,-0.0165 -0.165351,0.21495 v 0 l -0.16535,0.23149 h -0.01653 l -0.13228,0.21496 v 0 l -0.115746,0.16535 -0.01653,0.0165 -0.08268,0.14882 -0.03307,0.13228 v 0.16535 c 0,0.0496 0.01653,0.0992 0.0496,0.14881 l 0.148816,0.21496 0.08268,0.0827 0.181885,0.11575 -0.01654,-0.0165 0.19842,0.16535 v 0 l 0.214956,0.14882 0.01653,0.0165 0.23149,0.16535 -0.03307,-0.0331 0.214956,0.23149 v -0.0165 l 0.181885,0.21496 -0.01654,-0.0331 0.13228,0.21495 -0.01653,-0.0496 0.08268,0.21495 -0.01654,-0.11574 v 0.18188 l 0.03307,-0.11574 -0.115745,0.19842 0.0496,-0.0661 -0.16535,0.16535 0.03307,-0.0165 -0.264561,0.19842 0.03307,-0.0331 -0.3307,0.18189 v 0 l -0.380306,0.16535 v 0 l -0.446445,0.19842 0.0496,-0.0165 -0.479515,0.13228 h -0.01653 l -0.496051,0.16535 0.06614,-0.0165 -0.396841,0.0331 h 0.01653 l -0.380305,-0.0165 h 0.0496 l -0.347236,-0.0992 h 0.01653 l -0.23149,-0.13228 0.03307,0.0331 -0.181885,-0.24802 0.01653,0.0331 -0.06614,-0.31417 c 0,-0.0331 -0.03307,-0.0496 -0.04961,-0.0331 -0.03307,0 -0.04961,0.0165 -0.03307,0.0331 l 0.01653,0.3307 0.01654,0.0165 0.09921,0.28109 0.01653,0.0331 0.181885,0.19842 0.03307,0.0331 0.314166,0.18189 0.0496,0.0165 0.380305,0.0992 0.0496,0.0165 0.396841,0.0165 h 0.08267 l 0.512586,-0.13228 v 0 l 0.462981,-0.11574 0.0496,-0.0165 0.42991,-0.19842 h 0.01654 l 0.380305,-0.18188 0.01654,-0.0165 0.330701,-0.16535 0.0496,-0.0331 0.26456,-0.19842 0.03307,-0.0331 0.148816,-0.14881 0.0496,-0.0661 0.115745,-0.21496 0.03307,-0.13228 V 147.981 l -0.01653,-0.0992 -0.09921,-0.21496 -0.01654,-0.0496 -0.148815,-0.19842 -0.01654,-0.0331 -0.19842,-0.21496 v 0 l -0.214955,-0.23149 -0.0496,-0.0331 -0.231491,-0.18189 v 0.0165 l -0.19842,-0.16535 v 0 l -0.214956,-0.16535 -0.03307,-0.0165 -0.16535,-0.0992 0.08268,0.0827 -0.16535,-0.23149 0.0496,0.16535 v -0.16535 l -0.03307,0.13228 0.08268,-0.13228 -0.01654,0.0165 0.115745,-0.16535 h 0.01653 l 0.132281,-0.21495 v 0.0165 l 0.16535,-0.23149 v 0 l 0.16535,-0.23149 0.01654,-0.0165 0.132281,-0.26456 0.01653,-0.0331 0.09921,-0.21496 0.01653,-0.11574 v -0.21496 0 -0.19842 c 0,-0.0827 -0.03307,-0.16535 -0.115745,-0.23149 l -0.148816,-0.0992 -0.01654,-0.0165 -0.214955,-0.13228 -0.03307,-0.0165 -0.281096,-0.0992 -0.06614,-0.0165 -0.347235,-0.0661 h -0.0496 -0.380306 v 0 h -0.396841 -0.0496 l -0.396841,0.0827 h 0.03307 l -0.347235,0.0331 h -0.03307 l -0.314166,0.0661 h -0.03307 l -0.26456,0.0992 v 0 l -0.19842,0.0827 -0.06614,0.0165 -0.231491,0.16535 -0.06614,0.0661 -0.13228,0.16535 c -0.08268,0.0992 -0.06614,0.24803 0.03307,0.3307 0.09921,0.0992 0.248025,0.0992 0.3307,0.0165 z"
       style="fill:#177d36;fill-opacity:1;fill-rule:nonzero;stroke:none;stroke-width:0.26458332"
       inkscape:connector-curvature="0" />
  </g>
</svg>
