<?xml version="1.0" encoding="UTF-8" standalone="no"?>
<!-- Created with Inkscape (http://www.inkscape.org/) -->

<svg
   xmlns:dc="http://purl.org/dc/elements/1.1/"
   xmlns:cc="http://creativecommons.org/ns#"
   xmlns:rdf="http://www.w3.org/1999/02/22-rdf-syntax-ns#"
   xmlns:svg="http://www.w3.org/2000/svg"
   xmlns="http://www.w3.org/2000/svg"
   xmlns:sodipodi="http://sodipodi.sourceforge.net/DTD/sodipodi-0.dtd"
   xmlns:inkscape="http://www.inkscape.org/namespaces/inkscape"
   width="19.524176mm"
   height="20.053301mm"
   viewBox="0 0 19.524174 20.0533"
   version="1.1"
   id="svg960"
   inkscape:version="0.92.3 (2405546, 2018-03-11)"
   sodipodi:docname="Number_07.svg"
   inkscape:export-filename="C:\Users\Admin - Felix\Documents\HPI\GIT\ve_exitgame_2018\Escape\Assets\VE_Escape\DnDns\Number_07.png"
   inkscape:export-xdpi="705.46198"
   inkscape:export-ydpi="705.46198">
  <defs
     id="defs954" />
  <sodipodi:namedview
     id="base"
     pagecolor="#ffffff"
     bordercolor="#666666"
     borderopacity="1.0"
     inkscape:pageopacity="0.0"
     inkscape:pageshadow="2"
     inkscape:zoom="5.6"
     inkscape:cx="61.464708"
     inkscape:cy="19.917807"
     inkscape:document-units="mm"
     inkscape:current-layer="layer1"
     showgrid="false"
     inkscape:window-width="1278"
     inkscape:window-height="1048"
     inkscape:window-x="1273"
     inkscape:window-y="0"
     inkscape:window-maximized="0"
     fit-margin-top="5"
     fit-margin-left="5"
     fit-margin-right="5"
     fit-margin-bottom="5" />
  <metadata
     id="metadata957">
    <rdf:RDF>
      <cc:Work
         rdf:about="">
        <dc:format>image/svg+xml</dc:format>
        <dc:type
           rdf:resource="http://purl.org/dc/dcmitype/StillImage" />
        <dc:title></dc:title>
      </cc:Work>
    </rdf:RDF>
  </metadata>
  <g
     inkscape:label="Layer 1"
     inkscape:groupmode="layer"
     id="layer1"
     transform="translate(-57.221575,-136.93508)">
    <path
       id="path3466"
       d="m 77.050093,155.87811 h 10.846978 v 8.46593 H 77.050093 Z"
       style="fill:none;stroke:none;stroke-width:0.26458332"
       inkscape:connector-curvature="0" />
    <path
       id="path3548"
       d="m 62.221575,141.93508 h 9.524176 v 10.0533 h -9.524176 z"
       style="fill:none;stroke:none;stroke-width:0.26458332"
       inkscape:connector-curvature="0" />
    <path
       id="path3550"
       d="m 66.735638,143.83661 -0.214956,0.14881 0.0496,-0.0165 -0.281095,0.0992 h 0.01654 l -0.314166,0.11574 h -0.01654 l -0.347235,0.16535 v 0 l -0.396841,0.18189 -0.03307,0.0165 -0.347236,0.23149 -0.01654,0.0165 -0.3307,0.29763 -0.03307,0.0165 -0.248026,0.29763 -0.03307,0.0331 -0.214955,0.34723 -0.03307,0.0661 -0.08267,0.38031 -0.01654,0.0165 -0.0496,0.38031 v 0.0827 l 0.06614,0.36377 v 0.0331 l 0.09921,0.39684 0.03307,0.0496 0.181885,0.36377 0.03307,0.0496 0.264561,0.3307 0.01653,0.0165 0.29763,0.3307 0.01654,0.0165 0.281096,0.29763 v 0 l 0.281095,0.28109 0.01653,0.0165 0.264561,0.21495 -0.01653,-0.0165 0.19842,0.18188 -0.03307,-0.0165 0.115745,0.14881 -0.03307,-0.31416 -0.06614,0.16535 0.181885,-0.14882 -0.19842,0.0496 0.08268,-0.0165 h -0.281095 l -0.0496,0.0165 -0.314166,0.0496 h 0.06614 -0.380306 v 0 h -0.347235 l 0.09921,0.0165 -0.3307,-0.11575 h -0.03307 l -0.26456,-0.0661 0.08268,0.0331 -0.214955,-0.11574 0.09921,0.0661 -0.115745,-0.14882 0.0496,0.18189 v -0.21496 0.0661 l 0.06614,-0.26456 -0.06614,0.11575 0.181885,-0.23149 0.01653,-0.0165 0.231491,-0.3307 -0.03307,0.0496 0.314165,-0.3307 v 0.0165 l 0.330701,-0.3307 -0.01654,0.0165 0.363771,-0.2811 0.01654,-0.0165 0.330701,-0.3307 h 0.01653 l 0.29763,-0.3307 v 0 l 0.248026,-0.26456 0.03307,-0.0496 0.16535,-0.2811 0.03307,-0.0827 0.03307,-0.23149 0.01653,-0.0661 -0.03307,-0.26456 -0.03307,-0.0992 -0.09921,-0.19842 -0.03307,-0.0331 -0.181886,-0.19842 -0.01653,-0.0165 -0.231491,-0.18188 v 0 l -0.281095,-0.18189 h -0.01654 l -0.314166,-0.13228 c -0.01653,-0.0165 -0.0496,0 -0.06614,0.0165 0,0.0165 0,0.0496 0.01653,0.0661 l 0.281096,0.19843 -0.01654,-0.0165 0.231491,0.24803 -0.01653,-0.0165 0.16535,0.23149 v -0.0331 l 0.09921,0.24803 -0.01653,-0.0496 0.0496,0.21496 v -0.0661 l -0.01653,0.26456 0.01653,-0.0661 -0.08268,0.21495 0.03307,-0.0661 -0.181885,0.26456 0.03307,-0.0331 -0.248025,0.2811 0.01653,-0.0165 -0.314166,0.3307 0.01653,-0.0165 -0.3307,0.3307 0.01653,-0.0165 -0.36377,0.2811 -0.01654,0.0165 -0.330701,0.31417 v 0.0165 l -0.3307,0.31417 -0.03307,0.0331 -0.231491,0.3307 h 0.01653 l -0.181885,0.21496 -0.0496,0.11574 -0.06614,0.26456 v 0.0661 0.21496 c 0,0.0496 0.01653,0.11574 0.0496,0.16535 l 0.115745,0.14881 0.08267,0.0827 0.214956,0.11574 0.08268,0.0331 0.248025,0.0496 h -0.01653 l 0.330701,0.11574 h 0.08268 0.347235 v 0 h 0.380306 0.0496 l 0.314166,-0.0496 h -0.06614 0.281095 l 0.06614,-0.0165 0.19842,-0.0496 c 0.06614,-0.0165 0.132281,-0.0661 0.181886,-0.14882 l 0.06614,-0.14881 c 0.06614,-0.0992 0.0496,-0.23149 -0.01653,-0.31417 l -0.13228,-0.14881 -0.01653,-0.0331 -0.198421,-0.18189 -0.01653,-0.0165 -0.248025,-0.21496 0.01653,0.0165 -0.281096,-0.2811 v 0.0165 l -0.281095,-0.29763 v 0 l -0.314166,-0.33071 0.01653,0.0165 -0.26456,-0.34724 0.03307,0.0496 -0.19842,-0.36377 0.03307,0.0496 -0.115745,-0.3803 v 0.0331 l -0.06614,-0.38031 v 0.0827 l 0.03307,-0.38031 v 0.0165 l 0.06614,-0.36377 -0.03307,0.0827 0.214955,-0.36377 -0.03307,0.0331 0.248025,-0.31416 -0.01653,0.0331 0.314166,-0.31417 -0.01653,0.0165 0.3307,-0.24803 -0.03307,0.0165 0.380306,-0.18189 v 0 l 0.347235,-0.16535 -0.01653,0.0165 0.314165,-0.11574 h 0.01654 l 0.26456,-0.11575 0.04961,-0.0331 0.19842,-0.14881 c 0.08268,-0.0661 0.09921,-0.18189 0.0496,-0.2811 -0.06614,-0.0827 -0.181885,-0.0992 -0.281095,-0.0496 z"
       style="fill:#177d36;fill-opacity:1;fill-rule:nonzero;stroke:none;stroke-width:0.26458332"
       inkscape:connector-curvature="0" />
    <path
       id="path3552"
       d="m 70.241063,143.68779 -0.13228,-0.14881 -0.03307,-0.0165 -0.16535,-0.0992 0.06614,0.0661 -0.0496,-0.13228 c -0.01653,-0.0661 -0.06614,-0.11574 -0.13228,-0.14881 -0.06614,-0.0165 -0.132281,-0.0165 -0.181886,0.0331 l -0.16535,0.0827 h 0.01653 l -0.214955,0.11575 -0.0496,0.0331 -0.165351,0.14881 -0.01653,0.0165 -0.181885,0.19842 -0.03307,0.0496 -0.19842,0.3307 v 0.0165 l -0.231491,0.41337 v 0.0331 l -0.214955,0.54566 v 0 l -0.214955,0.6118 -0.01654,0.0331 -0.148815,0.711 v 0.0165 l -0.09921,0.72754 v 0.0331 l -0.03307,0.71101 v 0.0165 0.69447 0.0496 l 0.09921,0.54565 0.01653,0.0496 0.181886,0.49605 0.03307,0.0661 0.248025,0.34723 0.03307,0.0496 0.281095,0.26456 0.04961,0.0496 0.29763,0.14882 0.0496,0.0165 0.297631,0.0827 0.06614,0.0165 0.29763,-0.0165 v 0 l 0.264561,0.0165 0.0496,-0.0165 0.248025,-0.0496 0.0496,-0.0165 0.165351,-0.0827 0.08268,-0.0496 0.115745,-0.14882 0.03307,-0.0165 0.08267,-0.13228 0.03307,-0.0827 0.0496,-0.14881 0.01653,-0.0827 v -0.19842 0 -0.21495 -0.0496 l -0.0496,-0.23149 v -0.0331 l -0.09921,-0.26456 v -0.0331 l -0.09921,-0.21495 v -0.0165 l -0.13228,-0.24802 -0.04961,-0.0661 -0.16535,-0.18189 -0.01654,-0.0165 -0.19842,-0.16535 -0.01653,-0.0165 -0.248026,-0.14881 c -0.03307,-0.0331 -0.08268,-0.0496 -0.148815,-0.0331 h -0.281095 v 0 l -0.248026,0.0331 v 0 l -0.248025,0.0331 -0.08267,0.0165 -0.198421,0.13228 v 0.0165 l -0.148815,0.0992 h -0.01654 l -0.115745,0.13228 c -0.01653,0.0165 -0.03307,0.0496 -0.01653,0.0827 0.01653,0.0165 0.0496,0.0331 0.08267,0.0331 l 0.16535,-0.0661 -0.01653,0.0165 0.181886,-0.0331 0.01653,-0.0165 0.214955,-0.0496 h -0.06614 l 0.248025,0.0331 v 0 l 0.248026,0.0165 v 0 l 0.281095,0.0165 -0.13228,-0.0496 0.23149,0.16535 h -0.01653 l 0.198421,0.14882 -0.01653,-0.0165 0.148815,0.16535 -0.03307,-0.0496 0.13228,0.24802 h -0.01653 l 0.09921,0.21496 v -0.0331 l 0.08268,0.28109 v -0.0331 l 0.03307,0.21496 v -0.0331 0.21495 0 0.19842 l 0.01654,-0.0827 -0.0496,0.16535 0.03307,-0.0661 -0.09921,0.13228 0.03307,-0.0331 -0.13228,0.14881 0.06614,-0.0661 -0.16535,0.0827 0.06614,-0.0165 -0.23149,0.0496 0.0496,-0.0165 -0.264561,0.0165 v 0 l -0.29763,-0.0165 0.06614,0.0165 -0.297631,-0.0827 0.0496,0.0165 -0.281095,-0.14882 0.0496,0.0496 -0.281095,-0.26456 0.03307,0.0331 -0.231491,-0.36377 0.03307,0.0661 -0.19842,-0.51259 0.01654,0.0331 -0.09921,-0.54565 v 0.0496 -0.69447 0 l 0.0496,-0.69447 v 0.0165 l 0.09921,-0.74407 -0.01654,0.0165 0.16535,-0.69447 -0.01653,0.0331 0.214956,-0.61179 v 0 l 0.19842,-0.54566 -0.01654,0.0331 0.23149,-0.42991 -0.01653,0.0165 0.198421,-0.3307 -0.03307,0.0331 0.181885,-0.19842 v 0 l 0.148815,-0.16535 -0.0496,0.0496 0.214955,-0.14882 0.03307,-0.0165 0.132281,-0.13228 -0.198421,0.0661 0.132281,0.0165 h -0.03307 l 0.16535,0.0827 v 0 l 0.148815,0.11574 c 0.0496,0.0165 0.115745,0.0165 0.148815,-0.0165 0.03307,-0.0496 0.03307,-0.11575 0,-0.14882 z"
       style="fill:#177d36;fill-opacity:1;fill-rule:nonzero;stroke:none;stroke-width:0.26458332"
       inkscape:connector-curvature="0" />
  </g>
</svg>
