<?xml version="1.0" encoding="UTF-8" standalone="no"?>
<!-- Created with Inkscape (http://www.inkscape.org/) -->

<svg
   xmlns:dc="http://purl.org/dc/elements/1.1/"
   xmlns:cc="http://creativecommons.org/ns#"
   xmlns:rdf="http://www.w3.org/1999/02/22-rdf-syntax-ns#"
   xmlns:svg="http://www.w3.org/2000/svg"
   xmlns="http://www.w3.org/2000/svg"
   xmlns:sodipodi="http://sodipodi.sourceforge.net/DTD/sodipodi-0.dtd"
   xmlns:inkscape="http://www.inkscape.org/namespaces/inkscape"
   width="20.582418mm"
   height="20.053301mm"
   viewBox="0 0 20.582416 20.0533"
   version="1.1"
   id="svg960"
   inkscape:version="0.92.3 (2405546, 2018-03-11)"
   sodipodi:docname="Number_10.svg"
   inkscape:export-filename="C:\Users\Admin - Felix\Documents\HPI\GIT\ve_exitgame_2018\Escape\Assets\VE_Escape\DnDns\Number_10.png"
   inkscape:export-xdpi="705.46198"
   inkscape:export-ydpi="705.46198">
  <defs
     id="defs954">
    <pattern
       y="0"
       x="0"
       height="6"
       width="6"
       patternUnits="userSpaceOnUse"
       id="EMFhbasepattern" />
    <pattern
       y="0"
       x="0"
       height="6"
       width="6"
       patternUnits="userSpaceOnUse"
       id="EMFhbasepattern-8" />
    <pattern
       y="0"
       x="0"
       height="6"
       width="6"
       patternUnits="userSpaceOnUse"
       id="EMFhbasepattern-5" />
  </defs>
  <sodipodi:namedview
     id="base"
     pagecolor="#ffffff"
     bordercolor="#666666"
     borderopacity="1.0"
     inkscape:pageopacity="0.0"
     inkscape:pageshadow="2"
     inkscape:zoom="5.6"
     inkscape:cx="63.259054"
     inkscape:cy="13.927213"
     inkscape:document-units="mm"
     inkscape:current-layer="layer1"
     showgrid="false"
     inkscape:window-width="1278"
     inkscape:window-height="1048"
     inkscape:window-x="1273"
     inkscape:window-y="0"
     inkscape:window-maximized="0"
     fit-margin-top="5"
     fit-margin-left="5"
     fit-margin-right="5"
     fit-margin-bottom="5" />
  <metadata
     id="metadata957">
    <rdf:RDF>
      <cc:Work
         rdf:about="">
        <dc:format>image/svg+xml</dc:format>
        <dc:type
           rdf:resource="http://purl.org/dc/dcmitype/StillImage" />
        <dc:title></dc:title>
      </cc:Work>
    </rdf:RDF>
  </metadata>
  <g
     inkscape:label="Layer 1"
     inkscape:groupmode="layer"
     id="layer1"
     transform="translate(-56.746821,-135.35007)">
    <path
       id="path3466"
       d="m 77.050093,155.87811 h 10.846978 v 8.46593 H 77.050093 Z"
       style="fill:none;stroke:none;stroke-width:0.26458332"
       inkscape:connector-curvature="0" />
    <path
       id="path3608"
       d="m 61.746821,140.35007 h 10.582418 v 10.0533 H 61.746821 Z"
       style="fill:none;stroke:none;stroke-width:0.26458332"
       inkscape:connector-curvature="0" />
    <path
       id="path3610"
       d="m 65.549877,141.9209 -0.13228,-0.14882 -0.03307,-0.0165 -0.16535,-0.0992 0.06614,0.0661 -0.0496,-0.13228 c -0.01653,-0.0661 -0.06614,-0.11575 -0.13228,-0.13228 -0.06614,-0.0331 -0.132281,-0.0165 -0.181886,0.0165 l -0.16535,0.0827 h 0.01654 l -0.214955,0.11574 -0.0496,0.0496 -0.165351,0.13228 -0.01653,0.0165 -0.181885,0.21496 -0.03307,0.0331 -0.19842,0.3307 v 0.0165 l -0.231491,0.41338 v 0.0331 l -0.214955,0.54566 v 0.0165 l -0.214955,0.6118 -0.01654,0.0165 -0.148815,0.71101 v 0.0165 l -0.09921,0.74408 v 0.0165 l -0.03307,0.71101 v 0.0165 0.69448 0.0496 l 0.09921,0.54566 0.01654,0.0496 0.181886,0.51259 0.03307,0.0496 0.23149,0.36377 0.0496,0.0331 0.281095,0.2811 0.04961,0.0331 0.29763,0.14881 0.0496,0.0165 0.297631,0.0827 0.06614,0.0165 h 0.29763 v 0 h 0.264561 l 0.04961,-0.0165 0.248025,-0.0496 0.0496,-0.0165 0.165351,-0.0827 0.08267,-0.0496 0.115745,-0.13228 0.03307,-0.0331 0.08267,-0.13228 0.03307,-0.0661 0.0496,-0.16535 0.01653,-0.0827 v -0.19842 0 -0.21496 -0.0496 l -0.0496,-0.23149 v -0.0331 l -0.09921,-0.26456 v -0.0331 l -0.09921,-0.21496 h -0.01653 l -0.115745,-0.26456 -0.04961,-0.0661 -0.16535,-0.16535 -0.01653,-0.0331 -0.19842,-0.14881 -0.01653,-0.0165 -0.248026,-0.16535 c -0.03307,-0.0165 -0.09921,-0.0331 -0.148815,-0.0331 l -0.281095,0.0165 v 0 l -0.248026,0.0165 v 0 l -0.248025,0.0331 -0.08268,0.0331 -0.198421,0.13228 v 0 l -0.148815,0.0992 -0.01654,0.0165 -0.115745,0.11574 c -0.01653,0.0165 -0.03307,0.0496 -0.01653,0.0827 0.01653,0.0331 0.0496,0.0331 0.08267,0.0331 l 0.16535,-0.0496 h -0.01654 l 0.181886,-0.0331 h 0.01653 l 0.214955,-0.0661 h -0.06614 l 0.248025,0.0331 v 0 l 0.248026,0.0165 v 0 l 0.281095,0.0165 -0.13228,-0.0496 0.23149,0.16535 h -0.01653 l 0.198421,0.16535 -0.01653,-0.0331 0.148815,0.16535 -0.03307,-0.0496 0.13228,0.24803 h -0.01653 l 0.09921,0.21495 v -0.0165 l 0.08267,0.26456 v -0.0331 l 0.03307,0.23149 v -0.0496 0.21496 0 0.19842 l 0.01654,-0.0661 -0.04961,0.14881 0.03307,-0.0661 -0.09921,0.13228 0.03307,-0.0331 -0.13228,0.14882 0.06614,-0.0661 -0.16535,0.0827 0.06614,-0.0165 -0.23149,0.0496 h 0.0496 -0.264561 v 0 h -0.29763 0.06614 l -0.297631,-0.0827 0.0496,0.0331 -0.281095,-0.14882 0.0496,0.0331 -0.281095,-0.26456 0.03307,0.0331 -0.231491,-0.34723 0.03307,0.0496 -0.19842,-0.51258 0.01654,0.0496 -0.09921,-0.56219 v 0.0496 -0.69448 0.0165 l 0.0496,-0.71101 v 0.0165 l 0.09921,-0.74408 -0.01654,0.0165 0.148815,-0.69447 v 0.0331 l 0.214956,-0.6118 -0.01653,0.0165 0.214955,-0.5622 -0.01654,0.0331 0.23149,-0.41337 h -0.01653 l 0.198421,-0.3307 -0.03307,0.0496 0.181886,-0.21495 v 0 l 0.148815,-0.14882 -0.04961,0.0331 0.214955,-0.13228 0.03307,-0.0331 0.132281,-0.13228 -0.198421,0.0661 0.132281,0.0331 -0.03307,-0.0165 0.16535,0.0827 v 0 l 0.148815,0.11575 c 0.0496,0.0331 0.115745,0.0165 0.148815,-0.0165 0.03307,-0.0496 0.03307,-0.0992 0,-0.14881 z"
       style="fill:#177d36;fill-opacity:1;fill-rule:nonzero;stroke:none;stroke-width:0.26458332"
       inkscape:connector-curvature="0" />
    <path
       id="path3612"
       d="m 70.642666,141.87129 -0.181886,-0.14881 c -0.03307,-0.0331 -0.08267,-0.0496 -0.148815,-0.0661 h -0.16535 l 0.06614,0.0165 -0.23149,-0.0661 h -0.0496 -0.248026 v 0 l -0.26456,-0.0165 h -0.01653 -0.264561 -0.06614 l -0.23149,0.0661 -0.06614,0.0165 -0.264561,0.14882 -0.0496,0.0496 -0.214955,0.19842 -0.03307,0.0496 -0.16535,0.29763 -0.01654,0.0496 -0.09921,0.31417 -0.01653,0.0661 v 0.34723 0 0.34724 l 0.01653,0.11575 0.148816,0.3307 0.01653,0.0331 0.181886,0.31416 0.0496,0.0661 0.23149,0.21496 0.06614,0.0496 0.281096,0.13228 0.0496,0.0165 0.264561,0.0827 h 0.08268 l 0.281095,0.0165 0.115745,-0.0331 0.297631,-0.13228 0.03307,-0.0165 0.23149,-0.13228 0.03307,-0.0331 0.23149,-0.19842 0.03307,-0.0331 0.16535,-0.19842 v 0 l 0.16535,-0.18188 0.03307,-0.0331 0.115746,-0.14882 -0.03307,0.0165 0.181885,-0.19842 c 0.09921,-0.0992 0.09921,-0.24803 0.01654,-0.36378 -0.08268,-0.0992 -0.231491,-0.13228 -0.363771,-0.0661 -0.115745,0.0661 -0.181885,0.19843 -0.13228,0.33071 l 0.09921,0.31416 -0.01653,-0.0827 v 0.26456 l 0.01653,-0.0331 -0.06614,0.34723 v 0 l -0.06614,0.41338 v -0.0165 l -0.115745,0.47952 0.01654,-0.0165 -0.165351,0.52912 0.01654,-0.0165 -0.181885,0.51258 0.01654,-0.0331 -0.248025,0.47952 v -0.0165 l -0.281096,0.46298 0.01654,-0.0331 -0.281095,0.31416 0.0496,-0.0331 -0.330701,0.23149 0.01653,-0.0165 -0.3307,0.21495 0.115745,-0.0496 -0.29763,0.0331 0.115745,0.0165 -0.248026,-0.11574 0.03307,0.0165 -0.214955,-0.13228 0.03307,0.0331 -0.148815,-0.18188 0.01654,0.0331 -0.08268,-0.21496 0.01653,0.0331 0.01654,-0.21495 c 0,-0.0165 -0.01654,-0.0331 -0.03307,-0.0331 -0.03307,-0.0165 -0.0496,0 -0.0496,0.0165 l -0.09921,0.18189 -0.01654,0.0496 v 0.23149 0.0331 l 0.08268,0.23149 0.03307,0.0496 0.16535,0.21495 0.03307,0.0331 0.214955,0.16535 0.132281,0.0496 0.29763,0.0165 c 0.0496,0 0.09921,0 0.148815,-0.0331 l 0.347236,-0.18188 0.03307,-0.0165 0.3307,-0.23149 0.04961,-0.0496 0.281095,-0.3307 0.03307,-0.0331 0.281095,-0.46298 0.01654,-0.0165 0.248025,-0.49605 0.01654,-0.0331 0.181885,-0.51259 v -0.0165 l 0.148816,-0.51259 v -0.0165 l 0.115745,-0.49605 v -0.0165 l 0.06614,-0.39684 v 0 l 0.06614,-0.36377 v -0.0496 -0.26456 -0.0992 l -0.09921,-0.29763 c -0.03307,-0.0992 -0.115745,-0.18189 -0.214955,-0.19843 -0.09921,-0.0165 -0.198421,0.0165 -0.264561,0.0827 l -0.181885,0.19842 -0.03307,0.0331 -0.09921,0.16535 0.01654,-0.0331 -0.165351,0.18189 h -0.01654 l -0.16535,0.21495 0.01654,-0.0331 -0.231491,0.19842 0.04961,-0.0165 -0.231491,0.13228 0.03307,-0.0165 -0.29763,0.13228 0.115745,-0.0165 h -0.281095 0.08267 l -0.281096,-0.0661 0.03307,0.0165 -0.281095,-0.13228 0.06614,0.0331 -0.23149,-0.19842 0.0496,0.0661 -0.181886,-0.31416 0.01653,0.0165 -0.16535,-0.3307 0.03307,0.0992 v -0.34724 0 l -0.01653,-0.34723 v 0.0827 l 0.08268,-0.3307 -0.01654,0.0496 0.148815,-0.2811 -0.03307,0.0496 0.198421,-0.21496 -0.0496,0.0496 0.248025,-0.16535 -0.0496,0.0331 0.23149,-0.0661 h -0.0496 0.264561 0.01653 0.26456 v 0 h 0.248026 l -0.06614,-0.0165 0.23149,0.0661 h 0.0496 0.16535 l -0.13228,-0.0331 0.19842,0.13228 c 0.09921,0.0661 0.231491,0.0496 0.297631,-0.0331 0.06614,-0.0827 0.0496,-0.21495 -0.03307,-0.29763 z"
       style="fill:#177d36;fill-opacity:1;fill-rule:nonzero;stroke:none;stroke-width:0.26458332"
       inkscape:connector-curvature="0" />
  </g>
</svg>
