<?xml version="1.0" encoding="UTF-8" standalone="no"?>
<!-- Created with Inkscape (http://www.inkscape.org/) -->

<svg
   xmlns:dc="http://purl.org/dc/elements/1.1/"
   xmlns:cc="http://creativecommons.org/ns#"
   xmlns:rdf="http://www.w3.org/1999/02/22-rdf-syntax-ns#"
   xmlns:svg="http://www.w3.org/2000/svg"
   xmlns="http://www.w3.org/2000/svg"
   xmlns:sodipodi="http://sodipodi.sourceforge.net/DTD/sodipodi-0.dtd"
   xmlns:inkscape="http://www.inkscape.org/namespaces/inkscape"
   width="23.757143mm"
   height="18.20137mm"
   viewBox="0 0 23.75714 18.201369"
   version="1.1"
   id="svg960"
   inkscape:version="0.92.3 (2405546, 2018-03-11)"
   sodipodi:docname="Number_11.svg"
   inkscape:export-filename="C:\Users\Admin - Felix\Documents\HPI\GIT\ve_exitgame_2018\Escape\Assets\VE_Escape\DnDns\Number_11.png"
   inkscape:export-xdpi="705.46198"
   inkscape:export-ydpi="705.46198">
  <defs
     id="defs954">
    <pattern
       y="0"
       x="0"
       height="6"
       width="6"
       patternUnits="userSpaceOnUse"
       id="EMFhbasepattern" />
    <pattern
       y="0"
       x="0"
       height="6"
       width="6"
       patternUnits="userSpaceOnUse"
       id="EMFhbasepattern-8" />
    <pattern
       y="0"
       x="0"
       height="6"
       width="6"
       patternUnits="userSpaceOnUse"
       id="EMFhbasepattern-5" />
    <pattern
       y="0"
       x="0"
       height="6"
       width="6"
       patternUnits="userSpaceOnUse"
       id="EMFhbasepattern-1" />
  </defs>
  <sodipodi:namedview
     id="base"
     pagecolor="#ffffff"
     bordercolor="#666666"
     borderopacity="1.0"
     inkscape:pageopacity="0.0"
     inkscape:pageshadow="2"
     inkscape:zoom="5.6"
     inkscape:cx="42.529444"
     inkscape:cy="10.823499"
     inkscape:document-units="mm"
     inkscape:current-layer="layer1"
     showgrid="false"
     inkscape:window-width="1278"
     inkscape:window-height="1048"
     inkscape:window-x="1273"
     inkscape:window-y="0"
     inkscape:window-maximized="0"
     fit-margin-top="5"
     fit-margin-left="5"
     fit-margin-right="5"
     fit-margin-bottom="5" />
  <metadata
     id="metadata957">
    <rdf:RDF>
      <cc:Work
         rdf:about="">
        <dc:format>image/svg+xml</dc:format>
        <dc:type
           rdf:resource="http://purl.org/dc/dcmitype/StillImage" />
        <dc:title />
      </cc:Work>
    </rdf:RDF>
  </metadata>
  <g
     inkscape:label="Layer 1"
     inkscape:groupmode="layer"
     id="layer1"
     transform="translate(-54.553889,-136.38081)">
    <path
       id="path3466"
       d="m 77.050093,155.87811 h 10.846978 v 8.46593 H 77.050093 Z"
       style="fill:none;stroke:none;stroke-width:0.26458332"
       inkscape:connector-curvature="0" />
    <path
       id="path3627"
       d="m 59.553889,141.38081 h 13.757143 v 8.20137 H 59.553889 Z"
       style="fill:none;stroke:none;stroke-width:0.26458332"
       inkscape:connector-curvature="0" />
    <path
       id="path3629"
       d="m 64.795493,143.16659 0.09921,0.0661 c 0.06614,0.0331 0.148815,0.0165 0.19842,-0.0331 0.0496,-0.0496 0.06614,-0.11574 0.0496,-0.18188 -0.03307,-0.0661 -0.08267,-0.11575 -0.16535,-0.11575 h -0.23149 -0.01653 l -0.248026,0.0496 0.03307,-0.0165 h -0.29763 l -0.03307,0.0165 -0.347236,0.0496 v 0 l -0.380305,0.0661 h -0.01654 l -0.3307,0.11575 h -0.01653 l -0.330701,0.13228 -0.03307,0.0165 -0.281095,0.18189 -0.03307,0.0331 -0.248026,0.23149 -0.01653,0.0331 -0.148815,0.19842 -0.03307,0.0496 -0.08268,0.23149 v 0.0661 l -0.01653,0.21495 0.01653,0.0661 0.0496,0.24803 0.0496,0.0992 0.16535,0.18188 v 0 l 0.181885,0.21496 0.03307,0.0331 0.26456,0.21495 0.03307,0.0165 0.281096,0.16535 h -0.01653 l 0.314165,0.21495 v 0 l 0.281096,0.16535 -0.03307,-0.0165 0.26456,0.21495 -0.01653,-0.0165 0.19842,0.19842 -0.03307,-0.0331 0.13228,0.21495 -0.03307,-0.0827 0.0496,0.21495 v -0.11574 l -0.06614,0.23149 0.03307,-0.0827 -0.13228,0.21496 0.0496,-0.0496 -0.26456,0.19842 h 0.01653 l -0.314166,0.21496 0.03307,-0.0165 -0.39684,0.18188 h 0.01654 l -0.413376,0.16535 h 0.03307 l -0.429911,0.11575 h 0.01653 l -0.413375,0.0992 0.01653,-0.0165 -0.363771,0.0496 v 0 l -0.29763,0.0331 h 0.03307 l -0.148815,-0.0496 0.01654,0.0165 -0.09921,-0.16535 c -0.01653,-0.0165 -0.0496,-0.0165 -0.06614,0 -0.01654,0.0165 -0.03307,0.0331 -0.01654,0.0661 l 0.115745,0.14881 v 0 l 0.115746,0.13228 0.0496,0.0165 0.29763,0.0496 v 0 l 0.363771,0.0331 h 0.03307 l 0.413376,-0.0165 0.01653,-0.0165 0.446446,-0.0661 0.03307,-0.0165 0.413376,-0.13228 h 0.01654 l 0.396841,-0.18189 0.0496,-0.0165 0.314165,-0.21496 0.01653,-0.0165 0.264561,-0.21496 0.0496,-0.0496 0.148815,-0.21496 0.03307,-0.0661 0.0496,-0.23149 0.01653,-0.0992 -0.0496,-0.21496 -0.03307,-0.0992 -0.13228,-0.21495 -0.03307,-0.0496 -0.19842,-0.19842 -0.03307,-0.0331 -0.264561,-0.19842 -0.01653,-0.0165 -0.281096,-0.16535 h 0.01654 l -0.314166,-0.21496 h -0.01654 l -0.29763,-0.16535 0.03307,0.0165 -0.281096,-0.21496 0.03307,0.0331 -0.19842,-0.21495 v 0 l -0.181886,-0.16535 0.06614,0.0827 -0.08267,-0.24802 0.01653,0.0496 -0.01653,-0.21495 v 0.0496 l 0.0496,-0.23149 -0.01653,0.0661 0.148815,-0.21496 -0.03307,0.0165 0.248025,-0.24803 -0.03307,0.0165 0.281096,-0.18189 -0.03307,0.0165 0.3307,-0.13228 v 0 l 0.330701,-0.11575 -0.03307,0.0165 0.36377,-0.0661 v 0 l 0.347236,-0.0661 h -0.01653 0.29763 0.03307 l 0.231491,-0.0331 h -0.03307 0.23149 c 0.08268,0 0.13228,-0.0496 0.16535,-0.11575 0.01654,-0.0661 0,-0.13228 -0.0496,-0.18188 -0.0496,-0.0496 -0.13228,-0.0661 -0.19842,-0.0331 l -0.09921,0.0661 c -0.03307,0.0165 -0.06614,0.0496 -0.06614,0.0992 0,0.0331 0.03307,0.0661 0.06614,0.0827 z"
       style="fill:#177d36;fill-opacity:1;fill-rule:nonzero;stroke:none;stroke-width:0.26458332"
       inkscape:connector-curvature="0" />
    <path
       id="path3631"
       d="m 67.689122,143.2162 0.115746,0.0992 0.115745,0.0496 0.13228,0.0165 0.115745,-0.0165 0.16535,-0.0827 -0.0496,0.0165 0.214955,-0.0661 v 0 l 0.26456,-0.0992 -0.03307,0.0165 0.297631,-0.0661 v 0 l 0.281095,-0.0496 h -0.0496 l 0.330701,0.0165 v 0 h 0.26456 -0.06614 l 0.248025,0.0661 -0.148815,-0.11575 0.13228,0.19842 -0.0496,-0.0827 0.06614,0.24802 v -0.0827 l -0.01654,0.34723 0.03307,-0.0992 -0.181885,0.39684 v 0 l -0.19842,0.47952 v -0.0331 l -0.281096,0.51259 v 0 l -0.314165,0.52912 v 0 l -0.297631,0.49605 v 0 l -0.314165,0.47951 -0.01653,0.0165 -0.214956,0.42991 -0.01654,0.0165 -0.16535,0.38031 -0.01653,0.0496 -0.06614,0.19843 v 0.0827 l -0.01654,0.21496 c 0,0.0992 0.06614,0.21495 0.16535,0.26456 l 0.363771,0.16535 0.115745,0.0331 h 0.29763 v 0 h 0.330701 0.03307 l 0.363771,-0.0496 h 0.03307 l 0.413376,-0.0827 h -0.03307 l 0.330701,-0.0331 h 0.06614 l 0.297631,-0.0992 h -0.03307 l 0.3307,-0.0331 0.01653,-0.0165 0.281096,-0.0827 h 0.01653 l 0.314165,-0.0992 v 0 l 0.264561,-0.0827 c 0.01653,-0.0165 0.03307,-0.0331 0.01653,-0.0496 0,-0.0331 -0.01653,-0.0496 -0.0496,-0.0496 l -0.264561,0.0331 v 0 l -0.330701,0.0165 h 0.01654 -0.314166 0.03307 l -0.3307,-0.0496 h -0.03307 l -0.330701,0.0165 h 0.03307 l -0.330701,-0.0165 h -0.06614 l -0.413375,0.0496 v 0 l -0.363771,0.0496 0.03307,-0.0165 h -0.330701 v 0 l -0.29763,0.0165 0.13228,0.0165 -0.347235,-0.16535 0.16535,0.26456 -0.01654,-0.21496 v 0.0827 l 0.0496,-0.21496 v 0.0331 l 0.16535,-0.38031 -0.01654,0.0331 0.231491,-0.42991 -0.01654,0.0165 0.314165,-0.47952 v 0 l 0.314166,-0.51258 v 0 l 0.314165,-0.54566 v 0 l 0.297631,-0.49605 0.01654,-0.0331 0.19842,-0.47952 v 0 l 0.181885,-0.41337 0.01654,-0.11575 v -0.34723 l -0.01654,-0.0827 -0.08267,-0.23149 -0.0496,-0.0992 -0.13228,-0.18188 c -0.0496,-0.0496 -0.09921,-0.0827 -0.165351,-0.0992 l -0.23149,-0.0496 h -0.06614 -0.26456 v 0 l -0.330701,0.0165 h -0.0496 l -0.281095,0.0661 v 0 l -0.297631,0.0661 -0.03307,0.0165 -0.248025,0.0992 v 0 l -0.198421,0.0827 -0.03307,0.0165 -0.16535,0.0992 0.09921,-0.0331 -0.13228,0.0165 0.09921,0.0165 -0.13228,-0.0661 c -0.08268,-0.0496 -0.181885,-0.0165 -0.231491,0.0496 -0.0496,0.0827 -0.03307,0.18188 0.03307,0.23149 z"
       style="fill:#177d36;fill-opacity:1;fill-rule:nonzero;stroke:none;stroke-width:0.26458332"
       inkscape:connector-curvature="0" />
  </g>
</svg>
