<?xml version="1.0" encoding="UTF-8" standalone="no"?>
<!-- Created with Inkscape (http://www.inkscape.org/) -->

<svg
   xmlns:dc="http://purl.org/dc/elements/1.1/"
   xmlns:cc="http://creativecommons.org/ns#"
   xmlns:rdf="http://www.w3.org/1999/02/22-rdf-syntax-ns#"
   xmlns:svg="http://www.w3.org/2000/svg"
   xmlns="http://www.w3.org/2000/svg"
   xmlns:sodipodi="http://sodipodi.sourceforge.net/DTD/sodipodi-0.dtd"
   xmlns:inkscape="http://www.inkscape.org/namespaces/inkscape"
   width="21.376099mm"
   height="18.99505mm"
   viewBox="0 0 21.376097 18.99505"
   version="1.1"
   id="svg960"
   inkscape:version="0.92.3 (2405546, 2018-03-11)"
   sodipodi:docname="Number_06.svg"
   inkscape:export-filename="C:\Users\Admin - Felix\Documents\HPI\GIT\ve_exitgame_2018\Escape\Assets\VE_Escape\DnDns\Number_06.png"
   inkscape:export-xdpi="705.46198"
   inkscape:export-ydpi="705.46198">
  <defs
     id="defs954">
    <clipPath
       id="clipEmfPath1"
       clipPathUnits="userSpaceOnUse">
      <path
         id="path1505"
         d="M 0.39211695,4.5885846 H 135.38044 V 163.57483 H 0.39211695 Z"
         inkscape:connector-curvature="0" />
    </clipPath>
    <pattern
       y="0"
       x="0"
       height="6"
       width="6"
       patternUnits="userSpaceOnUse"
       id="EMFhbasepattern" />
    <pattern
       y="0"
       x="0"
       height="6"
       width="6"
       patternUnits="userSpaceOnUse"
       id="EMFhbasepattern-1" />
    <pattern
       y="0"
       x="0"
       height="6"
       width="6"
       patternUnits="userSpaceOnUse"
       id="EMFhbasepattern-5" />
    <pattern
       y="0"
       x="0"
       height="6"
       width="6"
       patternUnits="userSpaceOnUse"
       id="EMFhbasepattern-3" />
    <pattern
       y="0"
       x="0"
       height="6"
       width="6"
       patternUnits="userSpaceOnUse"
       id="EMFhbasepattern-18" />
    <pattern
       y="0"
       x="0"
       height="6"
       width="6"
       patternUnits="userSpaceOnUse"
       id="EMFhbasepattern-6" />
    <pattern
       y="0"
       x="0"
       height="6"
       width="6"
       patternUnits="userSpaceOnUse"
       id="EMFhbasepattern-7" />
    <pattern
       y="0"
       x="0"
       height="6"
       width="6"
       patternUnits="userSpaceOnUse"
       id="EMFhbasepattern-62" />
    <pattern
       y="0"
       x="0"
       height="6"
       width="6"
       patternUnits="userSpaceOnUse"
       id="EMFhbasepattern-8" />
    <pattern
       y="0"
       x="0"
       height="6"
       width="6"
       patternUnits="userSpaceOnUse"
       id="EMFhbasepattern-0" />
    <pattern
       y="0"
       x="0"
       height="6"
       width="6"
       patternUnits="userSpaceOnUse"
       id="EMFhbasepattern-66" />
    <pattern
       y="0"
       x="0"
       height="6"
       width="6"
       patternUnits="userSpaceOnUse"
       id="EMFhbasepattern-4" />
  </defs>
  <sodipodi:namedview
     id="base"
     pagecolor="#ffffff"
     bordercolor="#666666"
     borderopacity="1.0"
     inkscape:pageopacity="0.0"
     inkscape:pageshadow="2"
     inkscape:zoom="5.6"
     inkscape:cx="67.604343"
     inkscape:cy="16.843238"
     inkscape:document-units="mm"
     inkscape:current-layer="layer1"
     showgrid="false"
     inkscape:window-width="1278"
     inkscape:window-height="1048"
     inkscape:window-x="1273"
     inkscape:window-y="0"
     inkscape:window-maximized="0"
     fit-margin-top="5"
     fit-margin-left="5"
     fit-margin-right="5"
     fit-margin-bottom="5" />
  <metadata
     id="metadata957">
    <rdf:RDF>
      <cc:Work
         rdf:about="">
        <dc:format>image/svg+xml</dc:format>
        <dc:type
           rdf:resource="http://purl.org/dc/dcmitype/StillImage" />
        <dc:title></dc:title>
      </cc:Work>
    </rdf:RDF>
  </metadata>
  <g
     inkscape:label="Layer 1"
     inkscape:groupmode="layer"
     id="layer1"
     transform="translate(-55.59713,-137.17985)">
    <path
       id="path3466"
       d="m 77.050093,155.87811 h 10.846978 v 8.46593 H 77.050093 Z"
       style="fill:none;stroke:none;stroke-width:0.26458332"
       inkscape:connector-curvature="0" />
    <path
       id="path3526"
       d="m 60.59713,142.17985 h 11.376099 v 8.99505 H 60.59713 Z"
       style="fill:none;stroke:none;stroke-width:0.26458332"
       inkscape:connector-curvature="0" />
    <path
       id="path3528"
       d="m 64.598607,143.84989 h 0.214955 c 0.09921,0.0165 0.181885,-0.0661 0.181885,-0.16535 0,-0.0992 -0.08268,-0.18189 -0.181885,-0.18189 -0.08267,0 -0.16535,0.0661 -0.181885,0.16535 v 0.18189 l 0.0496,-0.11575 -0.181885,0.18189 v 0 l -0.198421,0.19842 v 0.0165 l -0.281095,0.29763 v 0 l -0.281096,0.2811 v 0.0165 l -0.363771,0.41338 v 0 l -0.314165,0.39684 v 0 l -0.363771,0.44645 v 0.0165 l -0.281095,0.38031 v 0.0165 l -0.26456,0.38031 v 0.0165 l -0.181886,0.31417 v 0.0165 l -0.13228,0.2811 -0.01654,0.0496 -0.0496,0.16535 c -0.01653,0.0827 0,0.16535 0.0496,0.23149 l 0.115745,0.18189 c 0.0496,0.0661 0.148815,0.11574 0.231491,0.11574 h 0.181885 0.03307 l 0.23149,-0.0331 v 0 l 0.297631,-0.0496 h -0.01654 l 0.36377,-0.0496 v 0 l 0.413376,-0.0496 v 0 l 0.429911,-0.0661 h -0.01654 l 0.42991,-0.0331 h -0.01653 l 0.39684,-0.0165 h 0.04961 l 0.380306,-0.0827 h -0.01653 l 0.281095,-0.0165 h 0.01654 l 0.248026,-0.0331 h 0.01654 l 0.13228,-0.0496 c 0.08267,-0.0165 0.115745,-0.0827 0.115745,-0.14882 0,-0.0827 -0.03307,-0.13228 -0.115745,-0.16535 l -0.13228,-0.0331 h -0.01654 l -0.248026,-0.0331 h -0.01654 l -0.281095,-0.0331 h -0.0496 l -0.396841,0.0496 h 0.03307 l -0.39684,-0.0165 h -0.03307 l -0.429911,0.0496 h -0.01653 l -0.429911,0.0661 v 0 l -0.413376,0.0496 v 0 l -0.347235,0.0496 h -0.01654 l -0.281096,0.0496 v 0 l -0.214955,0.0331 h 0.03307 -0.181885 l 0.248025,0.13228 -0.115745,-0.18188 0.03307,0.21495 0.03307,-0.16535 -0.01654,0.0661 0.13228,-0.28109 v 0.0165 l 0.16535,-0.31416 -0.01654,0.0165 0.264561,-0.3803 v -0.0165 l 0.248025,-0.39684 -0.01653,0.0165 0.347236,-0.46298 v 0 l 0.29763,-0.41338 -0.01653,0.0165 0.347236,-0.42992 v 0.0165 l 0.248025,-0.29763 0.01654,-0.0165 0.264561,-0.31416 v -0.0165 l 0.16535,-0.21495 v 0 l 0.16535,-0.19842 0.03307,-0.13228 v -0.18189 c 0,-0.0661 -0.0496,-0.11574 -0.09921,-0.14881 -0.0496,-0.0331 -0.115745,-0.0165 -0.181885,0.0165 l -0.165351,0.0992 c -0.0496,0.0331 -0.06614,0.0827 -0.06614,0.13228 0.01654,0.0496 0.06614,0.0827 0.115746,0.0827 z"
       style="fill:#177d36;fill-opacity:1;fill-rule:nonzero;stroke:none;stroke-width:0.26458332"
       inkscape:connector-curvature="0" />
    <path
       id="path3530"
       d="m 64.549001,145.76795 -0.13228,0.19842 -0.03307,0.0827 -0.01653,0.28109 v -0.0165 l -0.0496,0.44644 v 0.0165 l -0.01654,0.46298 v -0.0331 l -0.115745,0.52912 v 0.0165 l -0.08267,0.54566 -0.01654,0.0165 -0.0496,0.51258 v 0.0165 l -0.01653,0.46298 v 0.0331 l 0.03307,0.3803 v 0 l 0.03307,0.21496 c 0.01654,0.0496 0.03307,0.0661 0.06614,0.0992 0.03307,0.0165 0.06614,0.0165 0.09921,0.0165 l 0.09921,-0.0165 0.03307,-0.0331 0.115746,-0.18189 c 0.01653,-0.0165 0.01653,-0.0496 0,-0.0496 -0.03307,-0.0165 -0.04961,-0.0165 -0.06614,0 l -0.148815,0.16535 h 0.09921 l -0.0496,-0.0827 0.01654,0.0827 0.03307,-0.21496 v 0 l 0.03307,-0.3803 v 0 l 0.06614,-0.46298 v 0 l 0.06614,-0.51259 v 0 l 0.08268,-0.54566 v 0.0165 l 0.115745,-0.54566 v -0.0496 l -0.01653,-0.46298 v 0.0165 l 0.03307,-0.44644 v -0.0165 l -0.01654,-0.28109 -0.01653,0.0661 0.06614,-0.21496 c 0.03307,-0.0827 0,-0.14881 -0.06614,-0.18188 -0.06614,-0.0331 -0.148815,-0.0165 -0.181886,0.0496 z"
       style="fill:#177d36;fill-opacity:1;fill-rule:nonzero;stroke:none;stroke-width:0.26458332"
       inkscape:connector-curvature="0" />
    <path
       id="path3532"
       d="m 70.253586,143.89949 -0.181885,-0.16535 c -0.0496,-0.0331 -0.09921,-0.0496 -0.148815,-0.0496 h -0.165351 l 0.0496,0.0165 -0.214955,-0.0661 -0.0496,-0.0165 h -0.248026 v 0 h -0.281095 v 0 h -0.281096 -0.0496 l -0.248025,0.0661 -0.0496,0.0165 -0.264561,0.14882 -0.06614,0.0331 -0.19842,0.21495 -0.03307,0.0496 -0.16535,0.28109 -0.03307,0.0661 -0.08268,0.31417 -0.01654,0.0661 v 0.34724 0 0.34723 l 0.01654,0.0992 0.148815,0.34724 v 0.0165 l 0.181885,0.3307 0.06614,0.0661 0.231491,0.21496 0.06614,0.0496 0.281095,0.13228 h 0.03307 l 0.281096,0.0827 0.08268,0.0165 h 0.281095 l 0.115745,-0.0165 0.281096,-0.13228 0.03307,-0.0165 0.231491,-0.13228 0.0496,-0.0331 0.214956,-0.19842 0.03307,-0.0331 0.181885,-0.21495 v 0.0165 l 0.165351,-0.18188 0.03307,-0.0331 0.09921,-0.16535 -0.01653,0.0331 0.181885,-0.19842 c 0.08267,-0.0992 0.09921,-0.26456 0,-0.36377 -0.08267,-0.11575 -0.23149,-0.14882 -0.347236,-0.0827 -0.115745,0.0661 -0.181885,0.21496 -0.13228,0.34724 l 0.09921,0.31416 -0.01653,-0.0992 v 0.2811 -0.0496 l -0.0496,0.36377 v 0 l -0.08268,0.39684 0.01654,-0.0165 -0.115745,0.49605 v -0.0165 l -0.148815,0.52912 v -0.0165 l -0.16535,0.49605 v -0.0331 l -0.248026,0.49605 0.01654,-0.0165 -0.29763,0.44644 0.03307,-0.0331 -0.297631,0.3307 0.0496,-0.0331 -0.314165,0.21496 h 0.01654 l -0.347236,0.21495 0.13228,-0.0496 -0.29763,0.0165 0.115745,0.0331 -0.248025,-0.11574 0.03307,0.0165 -0.231491,-0.14881 0.0496,0.0331 -0.148815,-0.18189 0.01653,0.0496 -0.08267,-0.21496 v 0.0331 l 0.01654,-0.21495 c 0,-0.0165 0,-0.0331 -0.03307,-0.0496 -0.01653,0 -0.03307,0 -0.0496,0.0331 l -0.09921,0.18189 v 0.0331 l -0.01653,0.23149 0.01653,0.0496 0.08268,0.23149 0.03307,0.0496 0.16535,0.19842 0.03307,0.0331 0.214956,0.16535 0.13228,0.0661 0.29763,0.0165 c 0.0496,0 0.09921,-0.0165 0.13228,-0.0331 l 0.363771,-0.18188 0.03307,-0.0331 0.314166,-0.23149 0.0496,-0.0331 0.29763,-0.3307 0.01654,-0.0331 0.297631,-0.46298 0.01654,-0.0331 0.248025,-0.47952 0.01654,-0.0331 0.16535,-0.51259 0.01654,-0.0165 0.148815,-0.52912 v 0 l 0.115745,-0.49605 v -0.0165 l 0.06614,-0.39684 v 0 l 0.06614,-0.36377 v -0.0496 -0.2811 l -0.01654,-0.0827 -0.09921,-0.31417 c -0.03307,-0.0992 -0.09921,-0.16535 -0.19842,-0.18188 -0.09921,-0.0331 -0.214956,0 -0.281096,0.0827 l -0.181885,0.19842 -0.01654,0.0331 -0.115745,0.16535 0.03307,-0.0331 -0.16535,0.16535 -0.01654,0.0165 -0.181885,0.21495 0.03307,-0.0331 -0.23149,0.19842 0.03307,-0.0331 -0.23149,0.14882 0.03307,-0.0165 -0.281096,0.13228 0.115745,-0.0331 h -0.281095 l 0.06614,0.0165 -0.281096,-0.0827 0.04961,0.0165 -0.281096,-0.11575 0.06614,0.0331 -0.248025,-0.21495 0.06614,0.0827 -0.181885,-0.3307 v 0.0331 l -0.148816,-0.34723 0.03307,0.11574 -0.01654,-0.34723 v 0 -0.34724 0.0661 l 0.08268,-0.31417 -0.01653,0.0496 0.148815,-0.29763 -0.03307,0.0661 0.19842,-0.21496 -0.06614,0.0331 0.26456,-0.14881 -0.06614,0.0331 0.248026,-0.0661 h -0.06614 0.281096 v 0 h 0.281095 v 0 h 0.248026 l -0.06614,-0.0165 0.214955,0.0661 h 0.06614 0.165351 l -0.132281,-0.0496 0.198421,0.14881 c 0.09921,0.0661 0.214955,0.0496 0.29763,-0.0331 0.06614,-0.0992 0.0496,-0.23149 -0.03307,-0.29763 z"
       style="fill:#177d36;fill-opacity:1;fill-rule:nonzero;stroke:none;stroke-width:0.26458332"
       inkscape:connector-curvature="0" />
  </g>
</svg>
