<?xml version="1.0" encoding="UTF-8" standalone="no"?>
<!-- Created with Inkscape (http://www.inkscape.org/) -->

<svg
   xmlns:dc="http://purl.org/dc/elements/1.1/"
   xmlns:cc="http://creativecommons.org/ns#"
   xmlns:rdf="http://www.w3.org/1999/02/22-rdf-syntax-ns#"
   xmlns:svg="http://www.w3.org/2000/svg"
   xmlns="http://www.w3.org/2000/svg"
   xmlns:sodipodi="http://sodipodi.sourceforge.net/DTD/sodipodi-0.dtd"
   xmlns:inkscape="http://www.inkscape.org/namespaces/inkscape"
   width="20.846977mm"
   height="19.259621mm"
   viewBox="0 0 20.846975 19.25962"
   version="1.1"
   id="svg960"
   inkscape:version="0.92.3 (2405546, 2018-03-11)"
   sodipodi:docname="Number_09.svg"
   inkscape:export-filename="C:\Users\Admin - Felix\Documents\HPI\GIT\ve_exitgame_2018\Escape\Assets\VE_Escape\DnDns\Number_09.png"
   inkscape:export-xdpi="705.46198"
   inkscape:export-ydpi="705.46198">
  <defs
     id="defs954">
    <pattern
       y="0"
       x="0"
       height="6"
       width="6"
       patternUnits="userSpaceOnUse"
       id="EMFhbasepattern" />
    <pattern
       y="0"
       x="0"
       height="6"
       width="6"
       patternUnits="userSpaceOnUse"
       id="EMFhbasepattern-8" />
  </defs>
  <sodipodi:namedview
     id="base"
     pagecolor="#ffffff"
     bordercolor="#666666"
     borderopacity="1.0"
     inkscape:pageopacity="0.0"
     inkscape:pageshadow="2"
     inkscape:zoom="5.6"
     inkscape:cx="33.738146"
     inkscape:cy="14.781199"
     inkscape:document-units="mm"
     inkscape:current-layer="layer1"
     showgrid="false"
     inkscape:window-width="1278"
     inkscape:window-height="1048"
     inkscape:window-x="1273"
     inkscape:window-y="0"
     inkscape:window-maximized="0"
     fit-margin-top="5"
     fit-margin-left="5"
     fit-margin-right="5"
     fit-margin-bottom="5" />
  <metadata
     id="metadata957">
    <rdf:RDF>
      <cc:Work
         rdf:about="">
        <dc:format>image/svg+xml</dc:format>
        <dc:type
           rdf:resource="http://purl.org/dc/dcmitype/StillImage" />
        <dc:title />
      </cc:Work>
    </rdf:RDF>
  </metadata>
  <g
     inkscape:label="Layer 1"
     inkscape:groupmode="layer"
     id="layer1"
     transform="translate(-56.87992,-136.3697)">
    <path
       id="path3466"
       d="m 77.050093,155.87811 h 10.846978 v 8.46593 H 77.050093 Z"
       style="fill:none;stroke:none;stroke-width:0.26458332"
       inkscape:connector-curvature="0" />
    <path
       id="path3567"
       d="m 60.5389,141.08552 h 13.492582 v 11.11154 H 60.5389 Z"
       style="fill:none;stroke:none;stroke-width:0.26458332"
       inkscape:connector-curvature="0" />
    <path
       id="path3586"
       d="m 61.87992,141.3697 h 10.846978 v 9.25962 H 61.87992 Z"
       style="fill:none;stroke:none;stroke-width:0.26458332"
       inkscape:connector-curvature="0" />
    <path
       id="path3588"
       d="m 65.848327,143.03974 h 0.214955 c 0.09921,0 0.181885,-0.0827 0.181885,-0.18189 0,-0.0992 -0.08268,-0.18188 -0.181885,-0.18188 -0.09921,0 -0.181885,0.0827 -0.181885,0.16535 v 0.18188 l 0.0496,-0.11574 -0.181885,0.19842 v 0 l -0.198421,0.19842 v 0 l -0.281095,0.31416 v -0.0165 l -0.281096,0.28109 v 0.0165 l -0.363771,0.41337 -0.01653,0.0165 -0.297631,0.38031 v 0 l -0.363771,0.46298 v 0 l -0.281095,0.39684 v 0 l -0.26456,0.3803 v 0.0331 l -0.181886,0.29763 v 0.0165 l -0.13228,0.28109 -0.01653,0.0496 -0.0496,0.16535 c -0.01653,0.0827 0,0.16535 0.0496,0.23149 l 0.115745,0.18188 c 0.04961,0.0827 0.148815,0.11575 0.231491,0.11575 h 0.181885 0.03307 l 0.23149,-0.0331 v 0 l 0.297631,-0.0496 h -0.01654 l 0.36377,-0.0496 v 0 l 0.413376,-0.0496 v 0 l 0.429911,-0.0661 h -0.01654 l 0.42991,-0.0331 h -0.01653 l 0.39684,-0.0165 h 0.0496 l 0.380306,-0.0827 -0.01653,0.0165 0.281095,-0.0331 h 0.01653 l 0.248026,-0.0331 h 0.01653 l 0.13228,-0.0331 c 0.06614,-0.0165 0.115745,-0.0827 0.115745,-0.16535 0,-0.0661 -0.0496,-0.13228 -0.115745,-0.14882 l -0.13228,-0.0496 h -0.01653 l -0.248026,-0.0331 h -0.01653 l -0.281095,-0.0165 h -0.0496 l -0.396841,0.0331 h 0.03307 l -0.39684,-0.0165 -0.03307,0.0165 -0.42991,0.0331 h -0.01653 l -0.429911,0.0661 v 0 l -0.413376,0.0661 v 0 l -0.347235,0.0496 h -0.01653 l -0.281096,0.0496 v 0 l -0.23149,0.0165 h 0.0496 -0.181885 l 0.248025,0.13228 -0.115745,-0.18189 0.03307,0.21496 0.03307,-0.16535 -0.01653,0.0661 0.13228,-0.2811 v 0.0165 l 0.16535,-0.31417 -0.01654,0.0331 0.264561,-0.39684 v 0 l 0.248025,-0.39684 -0.01654,0.0165 0.347236,-0.47952 v 0 l 0.29763,-0.39684 h -0.01653 l 0.347236,-0.41338 h -0.01654 l 0.26456,-0.29763 h 0.01653 l 0.264561,-0.3307 v 0 l 0.16535,-0.23149 v 0 l 0.16535,-0.19842 0.03307,-0.13228 v -0.18188 c 0,-0.0496 -0.0496,-0.11575 -0.09921,-0.14882 -0.0496,-0.0165 -0.13228,-0.0165 -0.181885,0.0165 l -0.181885,0.11574 c -0.03307,0.0165 -0.04961,0.0661 -0.04961,0.13228 0.01654,0.0496 0.06614,0.0827 0.115746,0.0827 z"
       style="fill:#177d36;fill-opacity:1;fill-rule:nonzero;stroke:none;stroke-width:0.26458332"
       inkscape:connector-curvature="0" />
    <path
       id="path3590"
       d="m 65.798721,144.94127 -0.13228,0.19842 -0.03307,0.0827 -0.01653,0.2811 v -0.0165 l -0.0496,0.44645 v 0.0165 l -0.01653,0.47952 v -0.0496 l -0.115745,0.52912 v 0.0165 l -0.08267,0.56219 h -0.01654 l -0.0496,0.51259 v 0.0165 l -0.01653,0.47952 v 0.0165 l 0.03307,0.38031 v 0.0165 l 0.03307,0.21496 c 0.01654,0.0331 0.03307,0.0661 0.06614,0.0827 0.03307,0.0165 0.06614,0.0331 0.09921,0.0165 l 0.09921,-0.0165 0.03307,-0.0331 0.115746,-0.16535 c 0.01653,-0.0331 0.01653,-0.0496 -0.01654,-0.0661 -0.01654,-0.0165 -0.03307,-0.0165 -0.0496,0 l -0.148815,0.16535 0.09921,0.0165 -0.0496,-0.0827 0.01654,0.0827 0.03307,-0.21496 v -0.0165 l 0.03307,-0.38031 v 0.0165 l 0.06614,-0.47952 v 0 l 0.06614,-0.49605 v 0 l 0.08268,-0.56219 v 0.0165 l 0.115745,-0.52912 v -0.0496 l -0.01654,-0.47952 v 0.0165 l 0.03307,-0.42991 v -0.0331 l -0.03307,-0.2811 v 0.0661 l 0.06614,-0.21495 c 0.03307,-0.0661 0,-0.14882 -0.06614,-0.18189 -0.06614,-0.0331 -0.148816,0 -0.181886,0.0496 z"
       style="fill:#177d36;fill-opacity:1;fill-rule:nonzero;stroke:none;stroke-width:0.26458332"
       inkscape:connector-curvature="0" />
    <path
       id="path3592"
       d="m 68.427791,144.36254 0.148815,-0.0827 v 0 l 0.214955,-0.0992 h -0.01654 l 0.231491,-0.0661 0.01653,-0.0165 0.314165,-0.13228 -0.0496,0.0165 0.314166,-0.0661 h 0.03307 l 0.380305,-0.14881 -0.0496,0.0165 0.330701,-0.0165 0.01653,-0.0165 0.380306,-0.0496 h -0.0496 l 0.26456,0.0165 v 0 h 0.264561 l -0.198421,-0.0827 0.13228,0.13228 -0.08267,-0.19842 v 0.14881 l 0.01653,-0.0992 -0.115745,0.26456 0.03307,-0.0496 -0.214955,0.3307 0.01654,-0.0331 -0.330701,0.39684 v 0 l -0.413376,0.49605 v 0 l -0.413375,0.52912 -0.01654,0.0165 -0.429911,0.57872 0.01653,-0.0165 -0.446446,0.56219 -0.01653,0.0165 -0.347235,0.52912 v 0 l -0.281096,0.44645 -0.01653,0.0496 -0.19842,0.41337 -0.01653,0.0496 -0.08268,0.31416 -0.01653,0.0827 v 0.23149 c 0,0.0496 0.01653,0.0992 0.0496,0.14881 l 0.115745,0.19842 0.09921,0.0992 0.214955,0.11575 0.08268,0.0331 0.29763,0.0661 h 0.0496 0.380306 v 0 h 0.380306 v 0 h 0.39684 0.0496 l 0.363771,-0.0827 -0.03307,0.0165 0.214955,-0.0331 h 0.03307 l 0.148815,-0.0331 c 0.08268,-0.0331 0.148816,-0.13228 0.148816,-0.23149 -0.01653,-0.0992 -0.08268,-0.18189 -0.198421,-0.18189 -0.09921,-0.0165 -0.181885,0.0496 -0.214955,0.14882 l -0.06614,0.23149 0.03307,-0.0331 -0.214955,0.13228 c -0.01653,0.0165 -0.01653,0.0496 -0.01653,0.0661 0.01653,0.0165 0.0496,0.0331 0.06614,0.0165 l 0.23149,-0.0827 v 0 l 0.23149,-0.0827 c 0.09921,-0.0165 0.148816,-0.0992 0.148816,-0.19842 0,-0.0992 -0.06614,-0.16535 -0.148816,-0.19842 l -0.148815,-0.0331 -0.03307,-0.0165 -0.214955,-0.0165 h -0.06614 l -0.347236,0.0496 h 0.03307 -0.39684 v 0 h -0.380306 v 0 h -0.380306 0.06614 l -0.29763,-0.0661 0.08268,0.0331 -0.19842,-0.11575 0.09921,0.0992 -0.115745,-0.19842 0.03307,0.14882 v -0.23149 0.0827 l 0.08268,-0.3307 -0.01654,0.0331 0.19842,-0.41337 -0.01654,0.0331 0.264561,-0.44645 v 0 l 0.347235,-0.52912 -0.01654,0.0165 0.446446,-0.54565 v 0 l 0.42991,-0.57873 v 0 l 0.413376,-0.52912 v 0 l 0.413376,-0.47951 v 0 l 0.330701,-0.41338 0.01653,-0.0165 0.214956,-0.33071 0.01653,-0.0496 0.115745,-0.26456 0.01654,-0.11575 v -0.14881 c 0,-0.0661 -0.03307,-0.14882 -0.08268,-0.19842 l -0.148815,-0.11575 c -0.0496,-0.0661 -0.115745,-0.0827 -0.181885,-0.0827 h -0.264561 v 0 l -0.26456,0.0165 h -0.04961 l -0.36377,0.0827 h 0.01654 l -0.347236,0.0661 -0.0496,0.0165 -0.380305,0.14882 h 0.03307 l -0.314166,0.0992 -0.03307,0.0165 -0.29763,0.16535 h 0.01653 l -0.231491,0.11575 -0.01654,0.0165 -0.181885,0.14882 -0.01654,0.0165 -0.13228,0.11575 c -0.03307,0.0496 -0.03307,0.0992 0,0.14882 0.01654,0.0331 0.08268,0.0496 0.13228,0.0165 z"
       style="fill:#177d36;fill-opacity:1;fill-rule:nonzero;stroke:none;stroke-width:0.26458332"
       inkscape:connector-curvature="0" />
  </g>
</svg>
