<?xml version="1.0" encoding="UTF-8" standalone="no"?>
<!-- Created with Inkscape (http://www.inkscape.org/) -->

<svg
   xmlns:dc="http://purl.org/dc/elements/1.1/"
   xmlns:cc="http://creativecommons.org/ns#"
   xmlns:rdf="http://www.w3.org/1999/02/22-rdf-syntax-ns#"
   xmlns:svg="http://www.w3.org/2000/svg"
   xmlns="http://www.w3.org/2000/svg"
   xmlns:sodipodi="http://sodipodi.sourceforge.net/DTD/sodipodi-0.dtd"
   xmlns:inkscape="http://www.inkscape.org/namespaces/inkscape"
   width="20.846977mm"
   height="18.465931mm"
   viewBox="0 0 20.846976 18.465931"
   version="1.1"
   id="svg960"
   inkscape:version="0.92.3 (2405546, 2018-03-11)"
   sodipodi:docname="Number_04.svg"
   inkscape:export-filename="C:\Users\Admin - Felix\Documents\HPI\GIT\ve_exitgame_2018\Escape\Assets\VE_Escape\DnDns\Number_04.png"
   inkscape:export-xdpi="705.46198"
   inkscape:export-ydpi="705.46198">
  <defs
     id="defs954">
    <clipPath
       id="clipEmfPath1"
       clipPathUnits="userSpaceOnUse">
      <path
         id="path1505"
         d="M 0.39211695,4.5885846 H 135.38044 V 163.57483 H 0.39211695 Z"
         inkscape:connector-curvature="0" />
    </clipPath>
    <pattern
       y="0"
       x="0"
       height="6"
       width="6"
       patternUnits="userSpaceOnUse"
       id="EMFhbasepattern" />
    <pattern
       y="0"
       x="0"
       height="6"
       width="6"
       patternUnits="userSpaceOnUse"
       id="EMFhbasepattern-1" />
    <pattern
       y="0"
       x="0"
       height="6"
       width="6"
       patternUnits="userSpaceOnUse"
       id="EMFhbasepattern-5" />
    <pattern
       y="0"
       x="0"
       height="6"
       width="6"
       patternUnits="userSpaceOnUse"
       id="EMFhbasepattern-3" />
    <pattern
       y="0"
       x="0"
       height="6"
       width="6"
       patternUnits="userSpaceOnUse"
       id="EMFhbasepattern-18" />
    <pattern
       y="0"
       x="0"
       height="6"
       width="6"
       patternUnits="userSpaceOnUse"
       id="EMFhbasepattern-6" />
    <pattern
       y="0"
       x="0"
       height="6"
       width="6"
       patternUnits="userSpaceOnUse"
       id="EMFhbasepattern-7" />
    <pattern
       y="0"
       x="0"
       height="6"
       width="6"
       patternUnits="userSpaceOnUse"
       id="EMFhbasepattern-62" />
    <pattern
       y="0"
       x="0"
       height="6"
       width="6"
       patternUnits="userSpaceOnUse"
       id="EMFhbasepattern-8" />
    <pattern
       y="0"
       x="0"
       height="6"
       width="6"
       patternUnits="userSpaceOnUse"
       id="EMFhbasepattern-0" />
  </defs>
  <sodipodi:namedview
     id="base"
     pagecolor="#ffffff"
     bordercolor="#666666"
     borderopacity="1.0"
     inkscape:pageopacity="0.0"
     inkscape:pageshadow="2"
     inkscape:zoom="5.6"
     inkscape:cx="67.426465"
     inkscape:cy="15.465302"
     inkscape:document-units="mm"
     inkscape:current-layer="layer1"
     showgrid="false"
     inkscape:window-width="1278"
     inkscape:window-height="1048"
     inkscape:window-x="1273"
     inkscape:window-y="0"
     inkscape:window-maximized="0"
     fit-margin-top="5"
     fit-margin-left="5"
     fit-margin-right="5"
     fit-margin-bottom="5" />
  <metadata
     id="metadata957">
    <rdf:RDF>
      <cc:Work
         rdf:about="">
        <dc:format>image/svg+xml</dc:format>
        <dc:type
           rdf:resource="http://purl.org/dc/dcmitype/StillImage" />
        <dc:title></dc:title>
      </cc:Work>
    </rdf:RDF>
  </metadata>
  <g
     inkscape:label="Layer 1"
     inkscape:groupmode="layer"
     id="layer1"
     transform="translate(-72.050093,-150.87811)">
    <path
       id="path3466"
       d="m 77.050093,155.87811 h 10.846978 v 8.46593 H 77.050093 Z"
       style="fill:none;stroke:none;stroke-width:0.26458332"
       inkscape:connector-curvature="0" />
    <path
       id="path3468"
       d="m 86.342779,157.15131 -0.214956,0.13228 0.03307,-0.0165 -0.26456,0.11575 v -0.0165 l -0.297631,0.11575 h -0.01653 l -0.363771,0.16535 v 0 l -0.380305,0.18188 -0.03307,0.0165 -0.347236,0.23149 -0.01653,0.0165 -0.347235,0.29763 -0.01653,0.0165 -0.264561,0.29763 -0.01654,0.0331 -0.214955,0.34724 -0.03307,0.0661 -0.09921,0.3803 v 0.0165 l -0.04961,0.3803 v 0.0827 l 0.04961,0.36377 0.01654,0.0331 0.09921,0.39684 0.01653,0.0496 0.19842,0.36377 0.03307,0.0496 0.248026,0.3307 0.01654,0.0331 0.314165,0.3307 v 0 l 0.297631,0.29763 v 0 l 0.281095,0.2811 0.01654,0.0165 0.248026,0.21496 -0.01654,-0.0165 0.198421,0.18189 -0.01654,-0.0165 0.115745,0.14882 -0.03307,-0.31417 -0.08267,0.16535 0.181885,-0.14881 -0.181885,0.0496 0.06614,-0.0165 h -0.26456 l -0.04961,0.0165 -0.314165,0.0496 h 0.0496 -0.36377 v 0 h -0.347236 l 0.08267,0.0165 -0.330701,-0.11574 h -0.01654 l -0.26456,-0.0661 0.08267,0.0331 -0.214955,-0.11575 0.08267,0.0827 -0.09921,-0.16535 0.0496,0.18188 v -0.21495 0.0661 l 0.0496,-0.26456 -0.0496,0.11574 0.181885,-0.23149 0.01654,-0.0165 0.214955,-0.33071 -0.03307,0.0496 0.330701,-0.3307 -0.01653,0.0165 0.347236,-0.3307 -0.01654,0.0165 0.363771,-0.2811 0.01654,-0.0165 0.330701,-0.3307 v 0 l 0.314165,-0.3307 v 0 l 0.23149,-0.26456 0.03307,-0.0496 0.16535,-0.26456 0.03307,-0.0992 0.0496,-0.21495 v -0.0827 l -0.01653,-0.26456 -0.03307,-0.0992 -0.09921,-0.19842 -0.03307,-0.0331 -0.181886,-0.19842 -0.01653,-0.0165 -0.23149,-0.18188 h -0.01653 l -0.281095,-0.18189 v 0 l -0.314168,-0.13228 c -0.03307,-0.0165 -0.0496,0 -0.06614,0.0165 -0.01653,0.0165 0,0.0496 0.01654,0.0661 l 0.281095,0.19842 -0.01653,-0.0165 0.231491,0.24803 -0.01653,-0.0165 0.16535,0.23149 -0.01653,-0.0165 0.115745,0.23149 -0.01654,-0.0496 0.0496,0.21495 v -0.0661 l -0.03307,0.26456 0.01653,-0.0661 -0.06614,0.21496 0.03307,-0.0661 -0.181885,0.28109 0.01654,-0.0331 -0.23149,0.26456 v 0 l -0.297631,0.31417 0.01654,-0.0165 -0.3307,0.3307 0.01653,-0.0165 -0.36377,0.28109 -0.01653,0.0165 -0.330701,0.31416 -0.01654,0.0165 -0.314165,0.31416 -0.03307,0.0331 -0.231491,0.3307 h 0.01654 l -0.181885,0.2315 -0.06614,0.0992 -0.0496,0.26456 -0.01654,0.0661 v 0.21495 c 0,0.0496 0.03307,0.11575 0.06614,0.16535 l 0.09921,0.14882 0.09921,0.0827 0.198421,0.11575 0.08268,0.0331 0.26456,0.0496 H 83.7468 l 0.330701,0.11575 0.09921,0.0165 h 0.347236 v 0 h 0.36377 l 0.0496,-0.0165 0.314166,-0.0496 h -0.0496 0.26456 l 0.08267,-0.0165 0.181885,-0.0496 c 0.08268,-0.0165 0.148816,-0.0661 0.181886,-0.14881 l 0.08268,-0.14882 c 0.0496,-0.0992 0.03307,-0.23149 -0.03307,-0.31416 l -0.115745,-0.14882 -0.03307,-0.0331 -0.198421,-0.18188 -0.01654,-0.0165 -0.248025,-0.21495 0.01654,0.0165 -0.281096,-0.26456 h 0.01654 l -0.29763,-0.29763 v 0 l -0.297631,-0.3307 0.01654,0.0165 -0.264561,-0.3307 0.03307,0.0331 -0.19842,-0.36377 0.01654,0.0496 -0.115745,-0.38031 0.01654,0.0331 -0.06614,-0.3803 v 0.0827 l 0.03307,-0.3803 v 0.0165 l 0.06614,-0.36377 -0.03307,0.0827 0.19842,-0.36377 -0.01653,0.0331 0.248025,-0.29764 -0.03307,0.0165 0.330701,-0.31417 -0.01654,0.0165 0.3307,-0.24803 -0.03307,0.0165 0.380306,-0.18189 v 0 l 0.347235,-0.16535 -0.01653,0.0165 0.314166,-0.11575 v 0 l 0.281095,-0.11574 0.03307,-0.0165 0.214956,-0.16535 c 0.08268,-0.0661 0.09921,-0.18188 0.03307,-0.26456 -0.0496,-0.0992 -0.181885,-0.11574 -0.26456,-0.0496 z"
       style="fill:#177d36;fill-opacity:1;fill-rule:nonzero;stroke:none;stroke-width:0.26458332"
       inkscape:connector-curvature="0" />
    <path
       id="path3470"
       d="m 82.209022,157.74657 0.115745,0.0496 c 0.06614,0.0331 0.13228,0.0331 0.19842,-0.0165 0.0496,-0.0496 0.06614,-0.11575 0.03307,-0.19842 -0.01653,-0.0661 -0.08267,-0.0992 -0.148815,-0.0992 h -0.23149 -0.03307 l -0.23149,0.0331 h 0.01653 -0.29763 -0.03307 l -0.347236,0.0661 v 0 l -0.363771,0.0496 -0.03307,0.0165 -0.3307,0.0992 v 0.0165 l -0.347236,0.11575 -0.03307,0.0165 -0.281095,0.19842 -0.03307,0.0165 -0.23149,0.24802 -0.01654,0.0165 -0.16535,0.21495 -0.03307,0.0496 -0.06614,0.23149 -0.01653,0.0496 v 0.23149 0.0496 l 0.06614,0.26456 0.0496,0.0827 0.16535,0.19842 -0.01654,-0.0165 0.19842,0.21496 0.01654,0.0331 0.281095,0.21495 0.01653,0.0165 0.297631,0.18188 -0.01654,-0.0165 0.297631,0.21495 h 0.01654 l 0.26456,0.18189 -0.01653,-0.0165 0.248025,0.21496 -0.01653,-0.0331 0.19842,0.21495 -0.03307,-0.0331 0.148815,0.21496 -0.0496,-0.0827 0.0496,0.21496 v -0.11575 l -0.0496,0.21496 0.03307,-0.0661 -0.148815,0.21495 0.0496,-0.0661 -0.248025,0.21496 v -0.0165 l -0.314166,0.2315 0.03307,-0.0331 -0.39684,0.19842 0.01653,-0.0165 -0.396841,0.18189 0.01654,-0.0165 -0.429911,0.13228 0.01654,-0.0165 -0.413375,0.0992 h 0.01653 l -0.347236,0.0331 v 0 l -0.314165,0.0496 h 0.0496 l -0.165351,-0.0661 0.03307,0.0165 -0.115745,-0.14882 c -0.01654,-0.0165 -0.0496,-0.0165 -0.06614,-0.0165 -0.01653,0.0165 -0.01653,0.0496 0,0.0661 l 0.09921,0.14881 v 0 l 0.115745,0.13228 0.04961,0.0331 0.314165,0.0331 v 0 l 0.347236,0.0496 h 0.03307 l 0.42991,-0.0331 h 0.01654 l 0.429911,-0.0827 h 0.03307 l 0.413376,-0.13228 0.01654,-0.0165 0.413376,-0.16535 0.03307,-0.0165 0.3307,-0.23149 h 0.01653 l 0.248026,-0.21495 0.06614,-0.0496 0.13228,-0.21496 0.03307,-0.0827 0.06614,-0.21496 v -0.11574 l -0.03307,-0.21496 -0.0496,-0.0827 -0.13228,-0.23149 -0.03307,-0.0331 -0.198421,-0.21496 -0.01653,-0.0165 -0.26456,-0.21496 -0.03307,-0.0165 -0.264561,-0.16535 v 0 l -0.314165,-0.19842 -0.01654,-0.0165 -0.281096,-0.16535 0.01654,0.0165 -0.264561,-0.19842 0.03307,0.0165 -0.19842,-0.19842 v 0 l -0.181886,-0.18188 0.04961,0.0992 -0.08268,-0.24803 0.01653,0.0496 -0.01653,-0.23149 v 0.0661 l 0.06614,-0.2315 -0.03307,0.0496 0.148816,-0.21496 -0.01653,0.0331 0.23149,-0.26456 -0.03307,0.0331 0.281096,-0.19842 -0.03307,0.0165 0.3307,-0.13228 v 0 l 0.3307,-0.0992 h -0.03307 l 0.380306,-0.0496 v -0.0165 l 0.347236,-0.0496 h -0.03307 0.29763 0.03307 l 0.248026,-0.0496 -0.03307,0.0165 0.23149,-0.0165 c 0.06614,0 0.13228,-0.0331 0.148815,-0.0992 0.03307,-0.0661 0.01654,-0.14882 -0.03307,-0.19842 -0.06614,-0.0331 -0.13228,-0.0496 -0.19842,-0.0165 l -0.115745,0.0496 c -0.03307,0.0331 -0.0496,0.0661 -0.0496,0.0992 0,0.0496 0.01654,0.0827 0.0496,0.0992 z"
       style="fill:#177d36;fill-opacity:1;fill-rule:nonzero;stroke:none;stroke-width:0.26458332"
       inkscape:connector-curvature="0" />
  </g>
</svg>
