<?xml version="1.0" encoding="UTF-8" standalone="no"?>
<!-- Created with Inkscape (http://www.inkscape.org/) -->

<svg
   xmlns:dc="http://purl.org/dc/elements/1.1/"
   xmlns:cc="http://creativecommons.org/ns#"
   xmlns:rdf="http://www.w3.org/1999/02/22-rdf-syntax-ns#"
   xmlns:svg="http://www.w3.org/2000/svg"
   xmlns="http://www.w3.org/2000/svg"
   xmlns:sodipodi="http://sodipodi.sourceforge.net/DTD/sodipodi-0.dtd"
   xmlns:inkscape="http://www.inkscape.org/namespaces/inkscape"
   width="26.931873mm"
   height="44.921982mm"
   viewBox="0 0 26.931873 44.921982"
   version="1.1"
   id="svg960"
   inkscape:version="0.92.3 (2405546, 2018-03-11)"
   sodipodi:docname="Writing_Arrow_02.svg"
   inkscape:export-filename="C:\Users\Admin - Felix\Documents\HPI\GIT\ve_exitgame_2018\Escape\Assets\VE_Escape\DnDns\Writing_Arrow_01.png"
   inkscape:export-xdpi="705.46198"
   inkscape:export-ydpi="705.46198">
  <defs
     id="defs954">
    <clipPath
       id="clipEmfPath1"
       clipPathUnits="userSpaceOnUse">
      <path
         id="path1505"
         d="M 0.39211695,4.5885846 H 135.38044 V 163.57483 H 0.39211695 Z"
         inkscape:connector-curvature="0" />
    </clipPath>
    <pattern
       y="0"
       x="0"
       height="6"
       width="6"
       patternUnits="userSpaceOnUse"
       id="EMFhbasepattern" />
    <pattern
       y="0"
       x="0"
       height="6"
       width="6"
       patternUnits="userSpaceOnUse"
       id="EMFhbasepattern-1" />
  </defs>
  <sodipodi:namedview
     id="base"
     pagecolor="#ffffff"
     bordercolor="#666666"
     borderopacity="1.0"
     inkscape:pageopacity="0.0"
     inkscape:pageshadow="2"
     inkscape:zoom="1.979899"
     inkscape:cx="262.50091"
     inkscape:cy="22.291318"
     inkscape:document-units="mm"
     inkscape:current-layer="layer1"
     showgrid="false"
     inkscape:window-width="2560"
     inkscape:window-height="1057"
     inkscape:window-x="-8"
     inkscape:window-y="-8"
     inkscape:window-maximized="1"
     fit-margin-top="5"
     fit-margin-left="5"
     fit-margin-right="5"
     fit-margin-bottom="5" />
  <metadata
     id="metadata957">
    <rdf:RDF>
      <cc:Work
         rdf:about="">
        <dc:format>image/svg+xml</dc:format>
        <dc:type
           rdf:resource="http://purl.org/dc/dcmitype/StillImage" />
        <dc:title></dc:title>
      </cc:Work>
    </rdf:RDF>
  </metadata>
  <g
     inkscape:label="Layer 1"
     inkscape:groupmode="layer"
     id="layer1"
     transform="translate(-78.370967,-144.71735)">
    <path
       id="path1538"
       d="m 83.370967,149.71735 h 16.931873 v 34.92198 H 83.370967 Z"
       style="fill:none;stroke:none;stroke-width:0.26458332"
       inkscape:connector-curvature="0" />
    <path
       id="path1540"
       d="m 94.333687,151.2055 -0.46298,-0.13228 h -0.0165 l -0.54565,-0.0661 v 0 h -0.54566 -0.0331 l -0.6118,0.14882 v 0 l -0.64486,0.23149 -0.0165,0.0165 -0.71101,0.38031 -0.0165,0.0165 -0.76061,0.62833 h -0.0165 l -0.76061,0.81022 v 0 l -0.71101,0.9921 -0.0165,0.0165 -0.59526,1.14091 -0.0165,0.0165 -0.47951,1.30627 v 0.0165 l -0.31417,1.40548 v 0.0331 1.38894 0.0331 l 0.18189,1.37241 0.0165,0.0331 0.51258,1.19052 0.0165,0.0331 0.71101,1.02517 0.0496,0.0661 1.04171,0.76061 0.0165,0.0165 1.15745,0.61179 0.0827,0.0331 1.28973,0.19842 h 0.0496 l 1.2732,-0.0496 0.0661,-0.0165 1.22359,-0.38031 0.0496,-0.0165 1.07478,-0.59526 0.0496,-0.0331 0.94249,-0.81021 0.0331,-0.0496 0.76062,-0.97556 0.0331,-0.0496 0.54565,-1.17399 0.0165,-0.0496 0.3307,-1.24013 v -0.0496 l 0.11575,-1.20706 v -0.0331 l -0.0165,-1.24013 v -0.0496 l -0.18189,-1.07478 -0.0165,-0.0331 -0.31416,-0.9921 -0.0165,-0.0496 -0.47952,-0.79368 -0.0331,-0.0165 -0.56219,-0.6118 -0.0331,-0.0331 -0.67793,-0.39684 h -0.0165 l -0.74408,-0.21495 c -0.0165,-0.0165 -0.0496,0 -0.0496,0.0165 0,0.0331 0,0.0496 0.0331,0.0661 l 0.72754,0.24803 -0.0165,-0.0165 0.62833,0.47952 -0.0165,-0.0165 0.51259,0.6614 -0.0165,-0.0165 0.41337,0.82675 -0.0165,-0.0331 0.24803,1.00864 -0.0165,-0.0165 0.13228,1.09131 v -0.0331 l -0.0165,1.24013 v -0.0165 l -0.13228,1.19053 v -0.0331 l -0.31417,1.25666 0.0165,-0.0661 -0.54565,1.17398 0.0331,-0.0496 -0.76061,0.97557 0.0331,-0.0331 -0.92597,0.81021 0.0496,-0.0331 -1.09131,0.59526 0.0496,-0.0165 -1.20705,0.39684 0.0827,-0.0165 -1.2732,0.0827 h 0.0496 l -1.30627,-0.16535 0.0827,0.0165 -1.17398,-0.57872 0.0331,0.0165 -1.05825,-0.74407 0.0496,0.0496 -0.74407,-1.02517 0.0165,0.0331 -0.54566,-1.15745 0.0165,0.0496 -0.21495,-1.3724 v 0.0165 l -0.0165,-1.38894 v 0.0331 l 0.29763,-1.40548 -0.0165,0.0165 0.46298,-1.30627 v 0.0165 l 0.59526,-1.15745 -0.0165,0.0165 0.711,-0.9921 v 0.0165 l 0.74408,-0.79368 h -0.0165 l 0.76061,-0.62833 -0.0165,0.0165 0.71101,-0.39684 -0.0165,0.0165 0.62833,-0.23149 v 0 l 0.59526,-0.16535 -0.0165,0.0165 0.54566,-0.0165 h -0.0165 l 0.54565,0.0496 h -0.0165 l 0.47952,0.0661 c 0.0496,0.0165 0.0827,-0.0165 0.0992,-0.0496 0,-0.0331 -0.0165,-0.0827 -0.0661,-0.0827 z"
       style="fill:#3165bb;fill-opacity:1;fill-rule:nonzero;stroke:none;stroke-width:0.26458332"
       inkscape:connector-curvature="0" />
    <path
       id="path1542"
       d="m 90.729057,169.26175 0.0331,-0.21495 v 0 l 0.0165,-0.14882 -0.0496,0.0827 0.0827,-0.0661 c 0.0496,-0.0496 0.0827,-0.11575 0.0661,-0.19842 -0.0165,-0.0661 -0.0827,-0.11575 -0.14882,-0.13228 -0.0661,-0.0165 -0.14881,0.0165 -0.18188,0.0827 l -0.19842,0.24803 -0.0165,0.0496 -0.13228,0.36377 -0.0165,0.0165 -0.19842,0.59526 v 0 l -0.21496,0.72754 v 0 l -0.26456,0.90943 v 0 l -0.2811,1.02517 v -0.0165 l -0.34723,1.12438 v 0 l -0.3307,1.14092 v 0 l -0.36377,1.09131 h 0.0165 l -0.38031,1.07478 v 0 l -0.34723,0.90943 h 0.0165 l -0.38031,0.84328 v 0 l -0.28109,0.6614 0.0165,-0.0165 -0.29764,0.56219 -0.0165,0.0165 -0.19842,0.42991 0.0165,-0.0165 -0.18188,0.2811 v 0.0165 l -0.0992,0.19842 0.0165,-0.0331 -0.13228,0.14882 c -0.0165,0.0165 -0.0165,0.0331 -0.0165,0.0496 0.0165,0.0165 0.0331,0.0331 0.0496,0.0331 l 0.19842,-0.0165 0.0661,-0.0331 0.16535,-0.14882 0.0165,-0.0165 0.23149,-0.23149 0.0331,-0.0496 0.24803,-0.39684 v 0 l 0.3307,-0.54565 0.0165,-0.0165 0.31416,-0.64487 v -0.0165 l 0.38031,-0.84329 v -0.0165 l 0.34723,-0.92596 v 0 l 0.38031,-1.07478 v -0.0165 l 0.36377,-1.09131 v -0.0165 l 0.3307,-1.14092 v 0 l 0.3307,-1.10785 v -0.0165 l 0.26456,-1.02517 v 0 l 0.24803,-0.90943 v 0 l 0.18188,-0.72754 v 0 l 0.18189,-0.59526 v -0.0165 l 0.0992,-0.3803 -0.0165,0.0496 0.16535,-0.26456 c 0.0331,-0.0661 0.0165,-0.16535 -0.0331,-0.23149 -0.0661,-0.0496 -0.14882,-0.0661 -0.23149,-0.0331 -0.0661,0.0331 -0.0992,0.11575 -0.0992,0.19842 l 0.0331,0.0992 v 0 l 0.0165,0.14882 v 0 l 0.0165,0.21495 c 0.0165,0.0331 0.0496,0.0661 0.0827,0.0661 0.0496,0 0.0827,-0.0331 0.0827,-0.0661 z"
       style="fill:#3165bb;fill-opacity:1;fill-rule:nonzero;stroke:none;stroke-width:0.26458332"
       inkscape:connector-curvature="0" />
    <path
       id="path1544"
       d="m 84.412677,179.05049 -0.0165,0.0496 v 0.0496 0.54566 0 0.52912 0.0331 l 0.0827,0.59526 v 0.0165 l 0.11574,0.57873 v 0 l 0.11575,0.52912 0.0165,0.0165 0.14881,0.46298 0.0165,0.0165 0.14882,0.36377 0.0165,0.0496 0.16535,0.26457 0.0496,0.0331 0.18188,0.18189 0.0661,0.0496 0.16535,0.0992 c 0.0661,0.0331 0.13228,0.0331 0.19842,0.0165 l 0.18189,-0.0331 c 0.0496,-0.0165 0.0827,-0.0331 0.13228,-0.0661 l 0.23149,-0.21496 v 0 l 0.2811,-0.28109 0.0331,-0.0496 0.26456,-0.39684 v 0 l 0.31416,-0.47951 v 0 l 0.34724,-0.47952 v 0 l 0.3803,-0.46298 v 0.0165 l 0.44645,-0.46298 v 0.0165 l 0.46298,-0.31416 c 0.0165,-0.0165 0.0165,-0.0331 0.0165,-0.0496 -0.0165,-0.0331 -0.0496,-0.0331 -0.0661,-0.0331 l -0.51259,0.23149 -0.0165,0.0165 -0.51258,0.3803 h -0.0165 l -0.44645,0.41338 v 0 l -0.42991,0.42991 v 0.0165 l -0.38031,0.44645 v 0 l -0.29763,0.3803 0.0165,-0.0331 -0.28109,0.2811 v 0 l -0.23149,0.19842 0.13228,-0.0661 -0.18189,0.0496 0.19842,0.0165 -0.16535,-0.0827 0.0496,0.0496 -0.18188,-0.18189 0.0331,0.0496 -0.16535,-0.24803 0.0331,0.0496 -0.16535,-0.38031 0.0165,0.0165 -0.16535,-0.46298 v 0.0331 l -0.11575,-0.51259 v 0 l -0.0992,-0.56219 v 0.0165 l -0.0827,-0.59527 v 0.0331 -0.52912 0 -0.54566 0.0496 -0.0661 c 0.0165,-0.0992 -0.0165,-0.19842 -0.0827,-0.24802 -0.0827,-0.0661 -0.18188,-0.0827 -0.28109,-0.0496 -0.0827,0.0331 -0.14882,0.11575 -0.16535,0.21496 z"
       style="fill:#3165bb;fill-opacity:1;fill-rule:nonzero;stroke:none;stroke-width:0.26458332"
       inkscape:connector-curvature="0" />
    <path
       id="path1546"
       d="m 94.895877,172.55222 0.13228,0.41338 v -0.0661 l -0.0165,0.39684 v 0 l -0.0165,0.39684 v -0.0827 l -0.21495,0.57873 -0.0165,0.0661 v 0.52912 -0.0827 l -0.23149,0.69447 v 0.0165 l -0.14882,0.52912 -0.0165,0.0331 -0.0827,0.59527 0.0165,-0.0496 -0.21495,0.52912 -0.0165,0.0496 -0.0496,0.49606 c -0.0165,0.11574 0.0496,0.21495 0.14881,0.23149 0.0992,0.0331 0.21496,-0.0331 0.24803,-0.13228 l 0.18188,-0.49605 v -0.0165 l 0.0661,-0.36377 v 0 l 0.16535,-0.49605 v 0 l 0.13228,-0.59526 v 0.0165 l 0.19843,-0.56219 v -0.0165 l 0.14881,-0.62833 v 0.0165 l 0.19842,-0.59526 v 0 l 0.19842,-0.54566 h -0.0165 l 0.19842,-0.49605 -0.0165,0.0165 0.2811,-0.39684 -0.0165,0.0331 0.46298,-0.46298 -0.0992,0.0496 0.44644,-0.0992 -0.23149,-0.0661 0.31417,0.29763 -0.0827,-0.13228 0.14881,0.52912 -0.0165,-0.0827 v 0.59526 l 0.0331,-0.11575 -0.14881,0.34724 -0.0165,0.0331 -0.0992,0.36377 0.0165,-0.0661 -0.24803,0.49605 -0.0331,0.13228 v 0.39684 c 0,0.0992 0.0496,0.19842 0.13228,0.24803 l 0.42992,0.26456 c 0.0496,0.0331 0.0992,0.0496 0.14881,0.0496 h 0.3307 l -0.11574,-0.0331 0.31416,0.14882 -0.0496,-0.0165 0.6118,0.46298 -0.0827,-0.13228 0.23149,0.59526 -0.0331,-0.0992 v 0.36378 l 0.0661,-0.16536 -0.23149,0.3307 v -0.0165 l -0.26456,0.34723 0.0661,-0.0661 -0.38031,0.26456 0.0496,-0.0331 -0.44645,0.18188 0.0827,-0.0165 -0.42991,0.0165 -0.11574,0.0165 -0.44645,0.24803 0.0827,-0.0331 -0.36377,0.0331 v 0 l -0.3307,0.0496 v 0 l -0.34723,0.0331 -0.0331,0.0165 -0.31417,0.11575 v 0 l -0.41337,0.16535 c -0.0165,0 -0.0331,0.0331 -0.0165,0.0496 0,0.0165 0.0165,0.0331 0.0496,0.0331 l 0.42991,-0.0992 v 0 l 0.31416,-0.0331 h -0.0165 l 0.34724,0.0331 v 0 l 0.3307,0.0331 v 0 l 0.36377,0.0331 0.11574,-0.0165 0.46298,-0.19842 -0.0992,0.0331 0.42991,0.0165 0.0992,-0.0165 0.46299,-0.14882 0.0661,-0.0496 0.39684,-0.26456 0.0496,-0.0496 0.26456,-0.34724 h 0.0165 l 0.21495,-0.3307 c 0.0496,-0.0496 0.0661,-0.0992 0.0661,-0.16534 v -0.36378 l -0.0331,-0.0992 -0.21495,-0.59526 c -0.0331,-0.0496 -0.0661,-0.0992 -0.0992,-0.13228 l -0.6118,-0.44644 -0.0496,-0.0331 -0.31416,-0.16535 -0.13228,-0.0165 h -0.33071 l 0.14882,0.0331 -0.42991,-0.26456 0.13228,0.23149 v -0.39684 l -0.0331,0.13228 0.26456,-0.47951 0.0165,-0.0661 0.0992,-0.36378 -0.0165,0.0331 0.14882,-0.34723 0.0331,-0.0992 v -0.59526 l -0.0165,-0.0827 -0.14882,-0.51258 c -0.0165,-0.0661 -0.0496,-0.11575 -0.0992,-0.14882 l -0.3307,-0.24802 c -0.0827,-0.0661 -0.16535,-0.0661 -0.24803,-0.0496 l -0.44644,0.16535 -0.0992,0.0827 -0.39684,0.52912 -0.0165,0.0496 -0.16535,0.44645 v 0 l -0.14882,0.52912 v 0 l -0.16535,0.56219 v 0 l -0.16535,0.59526 v 0 l -0.13228,0.62833 v 0 l -0.21495,0.56219 v 0 l -0.14882,0.57873 v 0 l -0.19842,0.47951 v 0 l -0.13228,0.34724 0.0165,-0.0331 -0.3307,0.41337 c -0.0661,0.0661 -0.0661,0.14882 -0.0331,0.2315 0.0331,0.0661 0.11575,0.11574 0.19842,0.11574 0.0827,-0.0165 0.14882,-0.0661 0.18189,-0.14881 l 0.14881,-0.47952 v 0.0331 l 0.23149,-0.51259 0.0165,-0.0661 0.11575,-0.61179 -0.0165,0.0165 0.14881,-0.52912 -0.0165,0.0165 0.23149,-0.69447 v -0.0827 -0.52912 l -0.0165,0.0827 0.18189,-0.5622 0.0165,-0.0827 -0.0165,-0.39684 v 0 l -0.0165,-0.39684 -0.0165,-0.0661 -0.18189,-0.41338 c -0.0496,-0.0827 -0.14881,-0.11574 -0.23149,-0.0827 -0.0827,0.0331 -0.13228,0.13228 -0.0992,0.21495 z"
       style="fill:#3165bb;fill-opacity:1;fill-rule:nonzero;stroke:none;stroke-width:0.26458332"
       inkscape:connector-curvature="0" />
  </g>
</svg>
