<?xml version="1.0" encoding="UTF-8" standalone="no"?>
<!-- Created with Inkscape (http://www.inkscape.org/) -->

<svg
   xmlns:dc="http://purl.org/dc/elements/1.1/"
   xmlns:cc="http://creativecommons.org/ns#"
   xmlns:rdf="http://www.w3.org/1999/02/22-rdf-syntax-ns#"
   xmlns:svg="http://www.w3.org/2000/svg"
   xmlns="http://www.w3.org/2000/svg"
   xmlns:sodipodi="http://sodipodi.sourceforge.net/DTD/sodipodi-0.dtd"
   xmlns:inkscape="http://www.inkscape.org/namespaces/inkscape"
   width="55.239834mm"
   height="42.540932mm"
   viewBox="0 0 55.239833 42.540932"
   version="1.1"
   id="svg960"
   inkscape:version="0.92.3 (2405546, 2018-03-11)"
   sodipodi:docname="Writing_Arrow_03.svg"
   inkscape:export-filename="C:\Users\Admin - Felix\Documents\HPI\GIT\ve_exitgame_2018\Escape\Assets\VE_Escape\DnDns\Writing_Arrow_03.png"
   inkscape:export-xdpi="705.46198"
   inkscape:export-ydpi="705.46198">
  <defs
     id="defs954">
    <clipPath
       id="clipEmfPath1"
       clipPathUnits="userSpaceOnUse">
      <path
         id="path1505"
         d="M 0.39211695,4.5885846 H 135.38044 V 163.57483 H 0.39211695 Z"
         inkscape:connector-curvature="0" />
    </clipPath>
    <pattern
       y="0"
       x="0"
       height="6"
       width="6"
       patternUnits="userSpaceOnUse"
       id="EMFhbasepattern" />
    <pattern
       y="0"
       x="0"
       height="6"
       width="6"
       patternUnits="userSpaceOnUse"
       id="EMFhbasepattern-1" />
    <pattern
       y="0"
       x="0"
       height="6"
       width="6"
       patternUnits="userSpaceOnUse"
       id="EMFhbasepattern-5" />
  </defs>
  <sodipodi:namedview
     id="base"
     pagecolor="#ffffff"
     bordercolor="#666666"
     borderopacity="1.0"
     inkscape:pageopacity="0.0"
     inkscape:pageshadow="2"
     inkscape:zoom="1.979899"
     inkscape:cx="229.25787"
     inkscape:cy="16.820672"
     inkscape:document-units="mm"
     inkscape:current-layer="layer1"
     showgrid="false"
     inkscape:window-width="2560"
     inkscape:window-height="1057"
     inkscape:window-x="-8"
     inkscape:window-y="-8"
     inkscape:window-maximized="1"
     fit-margin-top="5"
     fit-margin-left="5"
     fit-margin-right="5"
     fit-margin-bottom="5" />
  <metadata
     id="metadata957">
    <rdf:RDF>
      <cc:Work
         rdf:about="">
        <dc:format>image/svg+xml</dc:format>
        <dc:type
           rdf:resource="http://purl.org/dc/dcmitype/StillImage" />
        <dc:title />
      </cc:Work>
    </rdf:RDF>
  </metadata>
  <g
     inkscape:label="Layer 1"
     inkscape:groupmode="layer"
     id="layer1"
     transform="translate(-65.450875,-145.65096)">
    <path
       id="path1563"
       d="m 70.450875,150.65096 h 45.239835 v 32.54093 H 70.450875 Z"
       style="fill:none;stroke:none;stroke-width:0.26458332"
       inkscape:connector-curvature="0" />
    <path
       id="path1565"
       d="m 109.96959,152.48635 -0.29763,-0.16535 h -0.0165 l -0.36377,-0.16535 h -0.0331 L 108.746,152.0399 h -0.0165 l -0.57873,-0.11574 h -0.0331 -0.74408 -0.0165 l -0.76061,0.0827 -0.0331,0.0165 -0.79368,0.26456 -0.0331,0.0165 -0.81022,0.51259 -0.0331,0.0165 -0.90943,0.79369 -0.0165,0.0165 -0.84329,1.02517 -0.0165,0.0165 -0.81022,1.30626 -0.0165,0.0165 -0.6614,1.50469 v 0.0331 l -0.46298,1.55429 v 0.0331 l -0.28109,1.63697 -0.0165,0.0331 v 1.48815 0.0165 l 0.11575,1.42202 0.0165,0.0827 0.51259,1.09131 0.0165,0.0331 0.64487,0.92597 0.0827,0.0827 0.92597,0.54566 0.0496,0.0331 1.02517,0.36377 0.0827,0.0165 1.20705,0.0661 h 0.0331 l 1.24013,-0.0827 0.0661,-0.0165 1.24013,-0.36377 h 0.0165 l 1.25666,-0.44644 0.0331,-0.0165 1.19052,-0.6614 0.0165,-0.0165 1.09132,-0.72754 0.0331,-0.0331 0.94249,-0.87635 0.0331,-0.0496 0.71101,-0.97556 0.0165,-0.0496 0.51259,-1.09131 0.0165,-0.0496 0.31417,-1.14091 v -0.0496 l 0.0992,-1.09131 v -0.0496 l -0.0992,-1.12438 -0.0165,-0.0661 -0.29763,-1.05824 v -0.0331 l -0.42991,-1.04171 -0.0331,-0.0496 -0.57872,-0.82675 -0.0165,-0.0165 -0.6614,-0.74407 -0.0165,-0.0165 -0.74408,-0.56219 -0.0165,-0.0165 -0.76062,-0.44645 h -0.0165 l -0.81022,-0.34724 c -0.0331,-0.0165 -0.0661,0 -0.0661,0.0165 -0.0165,0.0331 0,0.0661 0.0165,0.0827 l 0.77714,0.41338 v -0.0165 l 0.72754,0.52913 -0.0165,-0.0165 0.67793,0.62833 -0.0165,-0.0331 0.57873,0.81022 -0.0165,-0.0165 0.54566,0.85982 -0.0331,-0.0496 0.39684,1.05824 -0.0165,-0.0331 0.26456,1.07478 v -0.0496 l 0.0662,1.14092 v -0.0496 l -0.0992,1.09132 0.0165,-0.0496 -0.29763,1.12438 0.0165,-0.0496 -0.51258,1.09131 0.0331,-0.0496 -0.71101,0.97557 0.0496,-0.0331 -0.9425,0.87636 0.0331,-0.0331 -1.09131,0.74407 0.0331,-0.0165 -1.19052,0.64486 0.0496,-0.0165 -1.25666,0.44645 h 0.0331 l -1.24013,0.34723 h 0.0496 l -1.24013,0.0992 h 0.0496 l -1.22359,-0.0496 0.0827,0.0165 -1.02517,-0.34723 0.0496,0.0165 -0.9425,-0.52912 0.0827,0.0827 -0.6614,-0.90942 0.0165,0.0331 -0.54565,-1.09131 0.0331,0.0827 -0.14882,-1.40548 v 0.0165 l -0.0165,-1.48815 v 0.0331 l 0.26456,-1.65351 -0.0165,0.0331 0.44645,-1.57082 -0.0165,0.0165 0.66141,-1.50469 -0.0165,0.0165 0.81022,-1.30627 -0.0165,0.0165 0.84329,-1.02517 -0.0165,0.0165 0.90943,-0.79368 h -0.0331 l 0.81022,-0.49605 -0.0331,0.0165 0.79368,-0.28109 h -0.0331 l 0.76061,-0.0827 h -0.0165 0.74408 l -0.0165,-0.0165 0.57872,0.0992 v 0 l 0.52912,0.11574 -0.0331,-0.0165 0.39684,0.14881 h -0.0165 l 0.31416,0.11575 c 0.0496,0.0165 0.11575,-0.0165 0.13228,-0.0661 0.0331,-0.0496 0,-0.0992 -0.0331,-0.13228 z"
       style="fill:#3165bb;fill-opacity:1;fill-rule:nonzero;stroke:none;stroke-width:0.26458332"
       inkscape:connector-curvature="0" />
    <path
       id="path1567"
       d="m 71.707537,177.90069 0.512586,0.0496 v 0 l 0.694471,0.0331 h 0.03307 l 0.793682,-0.0496 v 0 l 1.041706,-0.0992 h 0.01654 l 1.207057,-0.13229 h 0.01653 l 1.422013,-0.23148 v 0 l 1.653502,-0.26457 h 0.01653 l 1.851924,-0.3803 v 0 l 1.984203,-0.42991 h 0.01654 l 2.050343,-0.59526 v 0 l 2.066879,-0.62833 h 0.01653 l 1.934598,-0.72755 h 0.01654 l 1.802318,-0.711 0.01653,-0.0165 1.570829,-0.76061 0.0165,-0.0165 1.42201,-0.81022 h 0.0165 l 1.15745,-0.72754 v -0.0165 l 1.12438,-0.74407 v 0 l 0.92596,-0.67794 0.0165,-0.0165 0.82675,-0.71101 v 0 l 0.711,-0.64487 v 0 l 0.6118,-0.62833 v 0 l 0.59526,-0.59526 c 0.0165,-0.0165 0.0165,-0.0496 0,-0.0661 -0.0165,-0.0165 -0.0331,-0.0165 -0.0496,0 l -0.6118,0.59526 v 0 l -0.67794,0.56219 v 0 l -0.74407,0.5622 v 0 l -0.89289,0.6614 0.0165,-0.0165 -0.95903,0.62833 v -0.0165 l -1.15745,0.69447 v 0 l -1.17399,0.69447 v 0 l -1.43855,0.77715 h 0.0165 l -1.587359,0.74407 h 0.03307 l -1.802319,0.71101 v -0.0165 l -1.951133,0.72754 h 0.01654 l -2.050343,0.62834 v 0 l -2.050344,0.59526 0.01654,-0.0165 -1.967669,0.42991 v 0 l -1.851923,0.38031 v 0 l -1.653503,0.28109 v 0 l -1.405477,0.23149 v 0 l -1.207057,0.16535 v 0 l -1.041707,0.11575 v 0 l -0.777146,0.0827 v 0 l -0.694471,0.0331 v 0 l -0.512586,0.0331 c -0.09921,0.0165 -0.16535,0.0827 -0.16535,0.16534 0,0.0827 0.06614,0.16536 0.16535,0.16536 z"
       style="fill:#3165bb;fill-opacity:1;fill-rule:nonzero;stroke:none;stroke-width:0.26458332"
       inkscape:connector-curvature="0" />
    <path
       id="path1569"
       d="m 95.352628,166.6238 0.26456,0.0331 h 0.0331 l 0.46298,-0.0992 v 0 l 0.47952,-0.0827 v 0 l 0.54565,-0.0992 h 0.0165 l 0.52912,-0.11574 v 0.0165 l 0.57872,-0.0827 v 0 l 0.52912,-0.0992 v 0.0165 l 0.52913,-0.0661 h -0.0165 0.42991 v 0 h 0.347242 v 0 h 0.26456 l -0.0661,-0.0165 0.23149,0.0992 h -0.0165 l 0.14882,0.0827 -0.0496,-0.0496 0.14882,0.19842 -0.0331,-0.0827 v 0.19842 l 0.0331,-0.0827 -0.11575,0.21495 v 0 l -0.16535,0.2811 v 0 l -0.23149,0.3803 v -0.0165 l -0.297632,0.44644 v 0 l -0.3307,0.52912 v 0 l -0.34723,0.49606 -0.0165,0.0165 -0.31417,0.56219 v 0 l -0.28109,0.52912 v 0.0165 l -0.16535,0.3803 -0.0165,0.0165 -0.0992,0.3307 c -0.0165,0.0331 0,0.0661 0.0331,0.0827 0.0331,0.0165 0.0661,0 0.0827,-0.0331 l 0.14881,-0.31416 v 0 l 0.21496,-0.36377 v 0 l 0.3307,-0.51259 v 0 l 0.34723,-0.52912 h -0.0165 l 0.36377,-0.49605 v 0 l 0.347242,-0.52912 v 0 l 0.28109,-0.44645 v 0 l 0.24803,-0.3803 v 0 l 0.16535,-0.2811 v 0 l 0.11574,-0.21495 0.0165,-0.0827 v -0.19842 l -0.0331,-0.0992 -0.16535,-0.21495 -0.0496,-0.0496 -0.14881,-0.0661 h -0.0165 l -0.21495,-0.0992 -0.0661,-0.0165 h -0.26456 v 0 h -0.347242 v 0 h -0.42991 -0.0165 l -0.52913,0.0661 h -0.0165 l -0.52912,0.0992 v -0.0165 l -0.57873,0.0827 v 0 l -0.54565,0.13228 v -0.0165 l -0.54566,0.11575 h -0.0165 l -0.47952,0.0992 v 0 l -0.44645,0.13228 h 0.0165 l -0.26456,0.0165 c -0.0496,0.0165 -0.0827,0.0496 -0.0827,0.0992 0,0.0496 0.0331,0.0827 0.0827,0.0827 z"
       style="fill:#3165bb;fill-opacity:1;fill-rule:nonzero;stroke:none;stroke-width:0.26458332"
       inkscape:connector-curvature="0" />
    <path
       id="path1571"
       d="m 93.666058,176.67709 0.0496,-0.18188 c 0.0331,-0.13228 -0.0331,-0.24803 -0.14881,-0.2811 l -0.2811,-0.0992 c -0.0496,-0.0165 -0.0992,-0.0165 -0.14882,0 l -0.28109,0.0827 -0.0331,0.0165 -0.42991,0.19842 -0.0661,0.0331 -0.396842,0.3307 -0.01654,0.0165 -0.479516,0.44644 -0.03307,0.0331 -0.446446,0.5622 -0.01654,0.0331 -0.363771,0.61179 -0.01654,0.0331 -0.29763,0.71101 -0.01654,0.0496 -0.181885,0.6614 v 0.0661 0.6118 l 0.01654,0.0992 0.19842,0.52912 0.0496,0.0992 0.3307,0.39684 0.09921,0.0827 0.529121,0.26456 0.08268,0.0165 0.611796,0.11575 h 0.06614 l 0.694463,-0.0827 h 0.0496 l 0.6614,-0.16535 0.0496,-0.0165 0.64486,-0.2811 h -0.0165 l 0.47951,-0.19842 0.0331,-0.0331 0.31417,-0.19842 0.0496,-0.0496 0.14882,-0.21496 0.0165,-0.14881 -0.0827,-0.21496 c -0.0165,-0.0165 -0.0331,-0.0331 -0.0496,-0.0331 -0.0331,0 -0.0496,0.0165 -0.0661,0.0331 l -0.0827,0.21496 0.0496,-0.0661 -0.21495,0.16536 0.0496,-0.0331 -0.34723,0.13228 h 0.0165 l -0.47951,0.13228 -0.0331,0.0165 -0.64487,0.24803 0.0331,-0.0165 -0.67794,0.18189 0.0496,-0.0165 -0.694468,0.0661 0.08268,0.0165 -0.611796,-0.11575 0.06614,0.0165 -0.529121,-0.26456 0.09921,0.0827 -0.3307,-0.41337 0.0496,0.0827 -0.198421,-0.52912 0.01654,0.0992 v -0.6118 0.0827 l 0.16535,-0.67794 -0.01654,0.0496 0.29763,-0.71101 -0.01654,0.0331 0.363771,-0.61179 -0.01653,0.0331 0.429911,-0.57873 -0.03307,0.0331 0.479514,-0.46298 -0.0165,0.0165 0.39684,-0.34723 -0.0496,0.0331 0.42991,-0.21496 -0.0331,0.0165 0.28109,-0.11575 -0.14881,0.0165 0.2811,0.0661 -0.16536,-0.16535 0.0496,0.18188 c 0.0165,0.0827 0.0992,0.13228 0.16535,0.13228 0.0827,0 0.14882,-0.0496 0.18189,-0.13228 z"
       style="fill:#3165bb;fill-opacity:1;fill-rule:nonzero;stroke:none;stroke-width:0.26458332"
       inkscape:connector-curvature="0" />
  </g>
</svg>
