<?xml version="1.0" encoding="UTF-8" standalone="no"?>
<!-- Created with Inkscape (http://www.inkscape.org/) -->

<svg
   xmlns:dc="http://purl.org/dc/elements/1.1/"
   xmlns:cc="http://creativecommons.org/ns#"
   xmlns:rdf="http://www.w3.org/1999/02/22-rdf-syntax-ns#"
   xmlns:svg="http://www.w3.org/2000/svg"
   xmlns="http://www.w3.org/2000/svg"
   xmlns:sodipodi="http://sodipodi.sourceforge.net/DTD/sodipodi-0.dtd"
   xmlns:inkscape="http://www.inkscape.org/namespaces/inkscape"
   width="20.582418mm"
   height="18.20137mm"
   viewBox="0 0 20.582418 18.20137"
   version="1.1"
   id="svg960"
   inkscape:version="0.92.3 (2405546, 2018-03-11)"
   sodipodi:docname="Writing_cross_blue.svg"
   inkscape:export-filename="C:\Users\Admin - Felix\Documents\HPI\GIT\ve_exitgame_2018\Escape\Assets\VE_Escape\DnDns\Writing_cross_blue.png"
   inkscape:export-xdpi="705.46198"
   inkscape:export-ydpi="705.46198">
  <defs
     id="defs954">
    <clipPath
       id="clipEmfPath1"
       clipPathUnits="userSpaceOnUse">
      <path
         id="path1505"
         d="M 0.39211695,4.5885846 H 135.38044 V 163.57483 H 0.39211695 Z"
         inkscape:connector-curvature="0" />
    </clipPath>
    <pattern
       y="0"
       x="0"
       height="6"
       width="6"
       patternUnits="userSpaceOnUse"
       id="EMFhbasepattern" />
    <pattern
       y="0"
       x="0"
       height="6"
       width="6"
       patternUnits="userSpaceOnUse"
       id="EMFhbasepattern-1" />
    <pattern
       y="0"
       x="0"
       height="6"
       width="6"
       patternUnits="userSpaceOnUse"
       id="EMFhbasepattern-5" />
    <pattern
       y="0"
       x="0"
       height="6"
       width="6"
       patternUnits="userSpaceOnUse"
       id="EMFhbasepattern-3" />
  </defs>
  <sodipodi:namedview
     id="base"
     pagecolor="#ffffff"
     bordercolor="#666666"
     borderopacity="1.0"
     inkscape:pageopacity="0.0"
     inkscape:pageshadow="2"
     inkscape:zoom="1.979899"
     inkscape:cx="247.69818"
     inkscape:cy="-31.110472"
     inkscape:document-units="mm"
     inkscape:current-layer="layer1"
     showgrid="false"
     inkscape:window-width="2560"
     inkscape:window-height="1057"
     inkscape:window-x="-8"
     inkscape:window-y="-8"
     inkscape:window-maximized="1"
     fit-margin-top="5"
     fit-margin-left="5"
     fit-margin-right="5"
     fit-margin-bottom="5" />
  <metadata
     id="metadata957">
    <rdf:RDF>
      <cc:Work
         rdf:about="">
        <dc:format>image/svg+xml</dc:format>
        <dc:type
           rdf:resource="http://purl.org/dc/dcmitype/StillImage" />
        <dc:title></dc:title>
      </cc:Work>
    </rdf:RDF>
  </metadata>
  <g
     inkscape:label="Layer 1"
     inkscape:groupmode="layer"
     id="layer1"
     transform="translate(-82.287523,-157.30874)">
    <path
       id="path1588"
       d="m 87.287523,162.30874 h 10.582418 v 8.20137 H 87.287523 Z"
       style="fill:none;stroke:none;stroke-width:0.26458332"
       inkscape:connector-curvature="0" />
    <path
       id="path1590"
       d="m 96.480998,163.97878 0.165351,-0.0496 c 0.0496,-0.0165 0.08267,-0.0496 0.09921,-0.0992 0,-0.0496 -0.01654,-0.0992 -0.06614,-0.11574 -0.03307,-0.0331 -0.08268,-0.0331 -0.13228,-0.0165 l -0.165351,0.11575 v 0 l -0.148815,0.0992 v 0 l -0.181885,0.0992 h -0.01654 l -0.181885,0.13228 h -0.01654 l -0.248025,0.19842 v 0 l -0.264561,0.23149 v 0 l -0.281095,0.19842 v 0.0165 l -0.330701,0.26456 v 0.0165 l -0.347235,0.31417 v 0 l -0.347236,0.3307 v 0 l -0.380306,0.3803 v 0 l -0.36377,0.38031 v 0 l -0.380306,0.3803 h 0.01654 l -0.380305,0.34724 v 0.0165 l -0.330701,0.3307 v 0 l -0.29763,0.31417 v 0 l -0.231491,0.23149 v 0 l -0.19842,0.19842 v 0 l -0.148815,0.14882 v 0 l -0.148816,0.11574 v 0.0165 l -0.16535,0.16535 v 0 l -0.08267,0.0827 c -0.03307,0.0496 -0.0496,0.0992 -0.01654,0.14882 0.03307,0.0331 0.09921,0.0496 0.148815,0.0165 0.03307,-0.0165 0.0496,-0.0827 0.03307,-0.13228 l -0.0496,-0.13228 c -0.01653,-0.0165 -0.03307,-0.0331 -0.0496,-0.0331 -0.01653,0 -0.03307,0.0165 -0.03307,0.0331 l -0.06614,0.13228 c 0,0.0331 0,0.0827 0.01654,0.11575 0.03307,0.0165 0.06614,0.0331 0.09921,0.0331 l 0.13228,-0.0165 0.08268,-0.0331 0.16535,-0.16535 v 0 l 0.148815,-0.13228 v 0 l 0.148815,-0.13228 v 0 l 0.198421,-0.19842 v 0 l 0.248025,-0.24803 v 0 l 0.297631,-0.31416 v 0 l 0.314165,-0.3307 v 0 l 0.363771,-0.36377 v 0 l 0.380305,-0.38031 v 0 l 0.363771,-0.3803 v 0 l 0.36377,-0.38031 v 0 l 0.347236,-0.3307 v 0 l 0.347236,-0.31416 h -0.01653 l 0.3307,-0.2811 v 0 l 0.281096,-0.21496 v 0 l 0.26456,-0.23149 h -0.01654 l 0.264561,-0.18188 h -0.01654 l 0.198421,-0.13228 h -0.01653 l 0.19842,-0.0992 v -0.0165 l 0.148815,-0.0992 h -0.01654 l 0.165351,-0.11574 c 0.0496,-0.0331 0.06614,-0.0827 0.06614,-0.11575 -0.01654,-0.0496 -0.0496,-0.0992 -0.09921,-0.0992 -0.04961,-0.0165 -0.09921,0 -0.132281,0.0331 l -0.115745,0.14882 c -0.01653,0.0165 -0.01653,0.0496 0,0.0827 0.01654,0.0165 0.0496,0.0331 0.08268,0.0165 z"
       style="fill:#3165bb;fill-opacity:1;fill-rule:nonzero;stroke:none;stroke-width:0.26458332"
       inkscape:connector-curvature="0" />
    <path
       id="path1592"
       d="m 88.709535,164.92127 0.198421,0.19842 v 0.0165 l 0.214955,0.16535 v 0 l 0.13228,0.11575 0.01654,0.0165 0.214956,0.13228 -0.03307,-0.0331 0.16535,0.18189 0.01654,0.0165 0.248025,0.18189 -0.03307,-0.0331 0.198421,0.26456 h 0.01653 l 0.248026,0.28109 v 0 l 0.297631,0.26456 v 0 l 0.314165,0.3307 v 0 l 0.347236,0.34724 v 0 l 0.39684,0.36377 0.01654,0.0165 0.396841,0.3307 v 0 l 0.396841,0.29764 h 0.01653 l 0.39684,0.29763 h 0.01654 l 0.380306,0.23149 v 0 l 0.347235,0.19842 0.01654,0.0165 0.281095,0.14882 h 0.01654 l 0.248025,0.0827 h 0.03307 l 0.214955,0.0331 v 0 l 0.248025,0.0165 c 0.01654,0 0.0496,-0.0165 0.0496,-0.0331 0,-0.0331 0,-0.0496 -0.01653,-0.0661 l -0.214955,-0.11575 h -0.01654 l -0.19842,-0.0992 0.01654,0.0165 -0.231491,-0.13228 v 0.0165 l -0.26456,-0.18188 v 0 l -0.347236,-0.21496 v 0 l -0.36377,-0.23149 v 0.0165 l -0.396841,-0.29764 v 0 l -0.396841,-0.29763 v 0 l -0.39684,-0.3307 v 0.0165 l -0.380306,-0.36377 v 0 l -0.347235,-0.34724 v 0 l -0.330701,-0.31416 v -0.0165 l -0.314165,-0.26456 0.01653,0.0165 -0.248025,-0.26456 v 0 l -0.214955,-0.24803 -0.03307,-0.0165 -0.248025,-0.16535 0.03307,0.0165 -0.19842,-0.18188 -0.03307,-0.0165 -0.214955,-0.0992 h 0.01654 l -0.148816,-0.0992 h 0.01653 l -0.23149,-0.14882 v 0 l -0.214955,-0.18188 c -0.0496,-0.0331 -0.09921,-0.0331 -0.132281,0.0165 -0.03307,0.0331 -0.03307,0.0992 0,0.13228 z"
       style="fill:#3165bb;fill-opacity:1;fill-rule:nonzero;stroke:none;stroke-width:0.26458332"
       inkscape:connector-curvature="0" />
  </g>
</svg>
