<?xml version="1.0" encoding="UTF-8" standalone="no"?>
<!-- Created with Inkscape (http://www.inkscape.org/) -->

<svg
   xmlns:dc="http://purl.org/dc/elements/1.1/"
   xmlns:cc="http://creativecommons.org/ns#"
   xmlns:rdf="http://www.w3.org/1999/02/22-rdf-syntax-ns#"
   xmlns:svg="http://www.w3.org/2000/svg"
   xmlns="http://www.w3.org/2000/svg"
   xmlns:sodipodi="http://sodipodi.sourceforge.net/DTD/sodipodi-0.dtd"
   xmlns:inkscape="http://www.inkscape.org/namespaces/inkscape"
   width="18.995054mm"
   height="18.73049mm"
   viewBox="0 0 18.995054 18.730489"
   version="1.1"
   id="svg960"
   inkscape:version="0.92.3 (2405546, 2018-03-11)"
   sodipodi:docname="Writing_cross_green.svg"
   inkscape:export-filename="C:\Users\Admin - Felix\Documents\HPI\GIT\ve_exitgame_2018\Escape\Assets\VE_Escape\DnDns\Writing_cross_green.png"
   inkscape:export-xdpi="705.46198"
   inkscape:export-ydpi="705.46198">
  <defs
     id="defs954">
    <clipPath
       id="clipEmfPath1"
       clipPathUnits="userSpaceOnUse">
      <path
         id="path1505"
         d="M 0.39211695,4.5885846 H 135.38044 V 163.57483 H 0.39211695 Z"
         inkscape:connector-curvature="0" />
    </clipPath>
    <pattern
       y="0"
       x="0"
       height="6"
       width="6"
       patternUnits="userSpaceOnUse"
       id="EMFhbasepattern" />
    <pattern
       y="0"
       x="0"
       height="6"
       width="6"
       patternUnits="userSpaceOnUse"
       id="EMFhbasepattern-1" />
    <pattern
       y="0"
       x="0"
       height="6"
       width="6"
       patternUnits="userSpaceOnUse"
       id="EMFhbasepattern-5" />
    <pattern
       y="0"
       x="0"
       height="6"
       width="6"
       patternUnits="userSpaceOnUse"
       id="EMFhbasepattern-3" />
    <pattern
       y="0"
       x="0"
       height="6"
       width="6"
       patternUnits="userSpaceOnUse"
       id="EMFhbasepattern-18" />
    <pattern
       y="0"
       x="0"
       height="6"
       width="6"
       patternUnits="userSpaceOnUse"
       id="EMFhbasepattern-6" />
  </defs>
  <sodipodi:namedview
     id="base"
     pagecolor="#ffffff"
     bordercolor="#666666"
     borderopacity="1.0"
     inkscape:pageopacity="0.0"
     inkscape:pageshadow="2"
     inkscape:zoom="5.6"
     inkscape:cx="73.768664"
     inkscape:cy="20.917843"
     inkscape:document-units="mm"
     inkscape:current-layer="layer1"
     showgrid="false"
     inkscape:window-width="2560"
     inkscape:window-height="1057"
     inkscape:window-x="-8"
     inkscape:window-y="-8"
     inkscape:window-maximized="1"
     fit-margin-top="5"
     fit-margin-left="5"
     fit-margin-right="5"
     fit-margin-bottom="5" />
  <metadata
     id="metadata957">
    <rdf:RDF>
      <cc:Work
         rdf:about="">
        <dc:format>image/svg+xml</dc:format>
        <dc:type
           rdf:resource="http://purl.org/dc/dcmitype/StillImage" />
        <dc:title></dc:title>
      </cc:Work>
    </rdf:RDF>
  </metadata>
  <g
     inkscape:label="Layer 1"
     inkscape:groupmode="layer"
     id="layer1"
     transform="translate(-82.900859,-156.36473)">
    <path
       id="path2760"
       d="m 87.900859,161.36473 h 8.995055 v 8.73049 h -8.995055 z"
       style="fill:none;stroke:none;stroke-width:0.26458332"
       inkscape:connector-curvature="0" />
    <path
       id="path2762"
       d="m 89.339406,163.56389 h 0.132281 l -0.148816,-0.0661 0.165351,0.14881 0.01653,0.0165 0.13228,0.0992 v 0 l 0.29763,0.23149 -0.01654,-0.0165 0.198421,0.19842 v -0.0165 l 0.19842,0.23149 v 0 l 0.26456,0.31417 v 0 l 0.297631,0.34723 -0.01654,-0.0165 0.297631,0.39684 v 0.0165 l 0.314165,0.39684 h -0.01653 l 0.3307,0.42991 v 0 l 0.347236,0.42991 0.01654,0.0165 0.363771,0.3803 0.01654,0.0165 0.347235,0.31417 v 0.0165 l 0.380306,0.31417 0.01653,0.0165 0.36377,0.24803 0.01654,0.0165 0.314165,0.19842 h 0.01653 l 0.281096,0.16535 h 0.01654 l 0.281095,0.13228 h -0.01654 l 0.19842,0.0827 -0.03307,-0.0165 0.165351,0.0992 -0.06614,-0.0661 0.115746,0.14882 c 0.06614,0.0661 0.16535,0.0992 0.26456,0.0661 0.08267,-0.0331 0.148815,-0.13228 0.148815,-0.23149 -0.01654,-0.0992 -0.08267,-0.18189 -0.16535,-0.21496 l -0.13228,-0.0331 0.0496,0.0331 -0.08267,-0.0827 0.01653,0.0165 -0.06614,-0.21495 v 0 -0.24803 c 0,-0.0331 -0.01654,-0.0496 -0.04961,-0.0496 -0.01653,0 -0.0496,0.0165 -0.0496,0.0496 v 0.24803 0 0.24802 0 l 0.01654,0.13228 v -0.0165 0.13228 c -0.01654,0.0992 0.03307,0.18188 0.115745,0.21495 0.08267,0.0496 0.181885,0.0331 0.248025,-0.0165 0.08267,-0.0661 0.115745,-0.16535 0.08267,-0.24803 l -0.0496,-0.18188 c -0.01653,-0.0661 -0.06614,-0.13228 -0.115745,-0.16535 l -0.148815,-0.0827 -0.03307,-0.0165 -0.181886,-0.0992 h -0.01654 l -0.26456,-0.11575 0.01654,0.0165 -0.281096,-0.16535 h 0.01654 l -0.330701,-0.19842 0.01654,0.0165 -0.36377,-0.24803 0.01653,0.0165 -0.36377,-0.31417 v 0 l -0.347236,-0.31416 h 0.01653 l -0.36377,-0.38031 0.01654,0.0165 -0.347236,-0.42991 v 0.0165 l -0.314165,-0.42969 v 0 l -0.314166,-0.41337 0.01654,0.0165 -0.29763,-0.39684 -0.01653,-0.0165 -0.281096,-0.36377 v 0 l -0.281095,-0.31417 v 0 l -0.214956,-0.23149 v -0.0165 l -0.214955,-0.19842 -0.03307,-0.0331 -0.314166,-0.21495 -0.08268,-0.0496 -0.148815,-0.0331 0.06614,0.0331 -0.181885,-0.13228 c -0.09921,-0.0661 -0.214956,-0.0496 -0.297631,0.0331 l -0.08267,0.0992 c -0.0496,0.0496 -0.06614,0.11575 -0.03307,0.18189 0.01654,0.0496 0.08268,0.0992 0.148815,0.0992 z"
       style="fill:#177d36;fill-opacity:1;fill-rule:nonzero;stroke:none;stroke-width:0.26458332"
       inkscape:connector-curvature="0" />
    <path
       id="path2764"
       d="m 95.506972,162.90249 0.16535,-0.0496 c 0.08267,-0.0331 0.148815,-0.11574 0.148815,-0.21495 0.01653,-0.0827 -0.0496,-0.16535 -0.13228,-0.21496 -0.08267,-0.0331 -0.181885,-0.0165 -0.248025,0.0661 l -0.181886,0.18189 0.03307,-0.0165 -0.181885,0.11575 -0.01654,0.0165 -0.330701,0.31417 h 0.01654 l -0.23149,0.19842 0.01654,-0.0165 -0.26456,0.23149 v -0.0165 l -0.297631,0.24802 -0.03307,0.0165 -0.330701,0.3307 v 0 l -0.36377,0.31417 v 0.0165 l -0.363771,0.34724 -0.01653,0.0165 -0.380305,0.39684 0.01654,-0.0165 -0.380306,0.36377 -0.01654,0.0331 -0.347236,0.42991 0.01654,-0.0165 -0.363771,0.41338 v 0 l -0.314166,0.36377 v 0 l -0.248025,0.3307 v -0.0165 l -0.248025,0.2811 h -0.01654 l -0.23149,0.2811 -0.01653,0.0165 -0.181885,0.24803 0.01654,-0.0331 -0.148815,0.16535 0.0496,-0.0331 -0.165351,0.0992 -0.06614,0.0496 -0.181885,0.21496 0.03307,-0.0331 -0.13228,0.11574 c -0.09921,0.0827 -0.115745,0.21496 -0.08268,0.31417 0.0496,0.11574 0.16535,0.18188 0.281095,0.18188 0.115745,-0.0165 0.214955,-0.0992 0.248026,-0.21495 l 0.0496,-0.19842 -0.01653,-0.13228 -0.06614,-0.18189 v -0.0331 l -0.09921,-0.16535 0.01653,0.0331 -0.0496,-0.18188 v 0.0165 l -0.03307,-0.24802 c 0,-0.0165 -0.01654,-0.0331 -0.0496,-0.0331 -0.01654,0 -0.03307,0.0165 -0.03307,0.0331 l -0.03307,0.24802 v -0.0165 l -0.0496,0.18188 v 0.0496 l 0.01654,0.18188 0.01654,-0.0661 -0.06614,0.18189 0.03307,-0.0661 -0.13228,0.16535 c -0.08268,0.11574 -0.06614,0.26456 0.03307,0.36377 0.09921,0.0992 0.26456,0.0992 0.380305,0.0165 l 0.132281,-0.13228 0.03307,-0.0165 0.181885,-0.21496 -0.06614,0.0496 0.16535,-0.0992 0.0496,-0.0496 0.16535,-0.16535 0.01654,-0.0165 0.181885,-0.24803 -0.01654,0.0165 0.23149,-0.2811 v 0 l 0.264561,-0.28109 v -0.0165 l 0.26456,-0.3307 -0.01654,0.0165 0.314165,-0.36377 v 0 l 0.347236,-0.41337 h 0.01654 l 0.330701,-0.42991 -0.01653,0.0165 0.36377,-0.34723 0.01653,-0.0165 0.380306,-0.39684 -0.01654,0.0165 0.380306,-0.34724 v 0 l 0.347235,-0.3307 0.01654,-0.0165 0.330701,-0.31417 -0.01653,0.0165 0.314165,-0.24802 v 0 l 0.264561,-0.21496 v -0.0165 l 0.23149,-0.19842 v -0.0165 l 0.314166,-0.31416 0.01654,-0.0165 0.13228,-0.16535 h 0.01654 l 0.16535,-0.21495 c 0.0496,-0.0661 0.0496,-0.16535 0,-0.24803 -0.0496,-0.0827 -0.13228,-0.13228 -0.23149,-0.0992 -0.08267,0.0165 -0.165351,0.0827 -0.181885,0.16535 l -0.03307,0.18189 c 0,0.0496 0.01654,0.0827 0.0496,0.11574 0.03307,0.0165 0.06614,0.0331 0.115746,0.0165 z"
       style="fill:#177d36;fill-opacity:1;fill-rule:nonzero;stroke:none;stroke-width:0.26458332"
       inkscape:connector-curvature="0" />
  </g>
</svg>
