<?xml version="1.0" encoding="UTF-8" standalone="no"?>
<!-- Created with Inkscape (http://www.inkscape.org/) -->

<svg
   xmlns:dc="http://purl.org/dc/elements/1.1/"
   xmlns:cc="http://creativecommons.org/ns#"
   xmlns:rdf="http://www.w3.org/1999/02/22-rdf-syntax-ns#"
   xmlns:svg="http://www.w3.org/2000/svg"
   xmlns="http://www.w3.org/2000/svg"
   xmlns:sodipodi="http://sodipodi.sourceforge.net/DTD/sodipodi-0.dtd"
   xmlns:inkscape="http://www.inkscape.org/namespaces/inkscape"
   width="85.632698mm"
   height="77.960442mm"
   viewBox="0 0 85.632698 77.960442"
   version="1.1"
   id="svg8"
   inkscape:version="0.92.3 (2405546, 2018-03-11)"
   sodipodi:docname="WritingPainting.svg"
   inkscape:export-filename="C:\Users\Admin - Felix\Documents\HPI\GIT\ve_exitgame_2018\Escape\Assets\VE_Escape\DnDns\writingOnWall.png"
   inkscape:export-xdpi="705.46198"
   inkscape:export-ydpi="705.46198">
  <defs
     id="defs2">
    <clipPath
       id="clipEmfPath1"
       clipPathUnits="userSpaceOnUse">
      <path
         id="path815"
         d="M 0.99205588,4.4906316 H 290.96696 V 81.483969 H 0.99205588 Z"
         inkscape:connector-curvature="0" />
    </clipPath>
    <clipPath
       id="clipEmfPath2"
       clipPathUnits="userSpaceOnUse">
      <path
         id="path818"
         d="M 0.99205588,98.365969 H 286.96731 V 183.35861 H 0.99205588 Z"
         inkscape:connector-curvature="0" />
    </clipPath>
    <clipPath
       id="clipEmfPath3"
       clipPathUnits="userSpaceOnUse">
      <path
         id="path821"
         d="M 0.99205588,180.14158 H 271.96861 v 89.99221 H 0.99205588 Z"
         inkscape:connector-curvature="0" />
    </clipPath>
    <pattern
       y="0"
       x="0"
       height="6"
       width="6"
       patternUnits="userSpaceOnUse"
       id="EMFhbasepattern" />
    <clipPath
       id="clipEmfPath1-2"
       clipPathUnits="userSpaceOnUse">
      <path
         id="path3369"
         d="M 0.64249201,8.1268755 L 77.635829,8.1268755 L 77.635829,22.125664 L 0.64249201,22.125664 z" />
    </clipPath>
    <pattern
       y="0"
       x="0"
       height="6"
       width="6"
       patternUnits="userSpaceOnUse"
       id="EMFhbasepattern-0" />
  </defs>
  <sodipodi:namedview
     id="base"
     pagecolor="#ffffff"
     bordercolor="#666666"
     borderopacity="1.0"
     inkscape:pageopacity="0.0"
     inkscape:pageshadow="2"
     inkscape:zoom="2.8"
     inkscape:cx="163.60017"
     inkscape:cy="147.71884"
     inkscape:document-units="mm"
     inkscape:current-layer="layer1"
     showgrid="false"
     fit-margin-top="3"
     fit-margin-left="3"
     fit-margin-right="3"
     fit-margin-bottom="3"
     inkscape:window-width="1278"
     inkscape:window-height="1048"
     inkscape:window-x="1273"
     inkscape:window-y="0"
     inkscape:window-maximized="0"
     inkscape:snap-global="false" />
  <metadata
     id="metadata5">
    <rdf:RDF>
      <cc:Work
         rdf:about="">
        <dc:format>image/svg+xml</dc:format>
        <dc:type
           rdf:resource="http://purl.org/dc/dcmitype/StillImage" />
        <dc:title />
      </cc:Work>
    </rdf:RDF>
  </metadata>
  <g
     inkscape:label="Layer 1"
     inkscape:groupmode="layer"
     id="layer1"
     transform="translate(-53.189604,-41.817395)">
    <path
       id="path827"
       d="M 56.189604,44.817395 H 135.8223 V 116.77784 H 56.189604 Z"
       style="fill:none;stroke:none;stroke-width:0.26458332"
       inkscape:connector-curvature="0" />
    <path
       id="path829"
       d="m 97.208119,61.36243 0.34723,0.18189 c 0.0992,0.0496 0.23149,0.0331 0.31417,-0.0496 l 0.31417,-0.31417 0.0331,-0.0331 0.36377,-0.52912 -0.0165,0.0165 0.49605,-0.6118 0.0165,-0.0331 0.28109,-0.41338 -0.0165,0.0331 0.3307,-0.42991 0.0165,-0.0331 0.330701,-0.51258 0.0165,-0.0331 0.31417,-0.62833 -0.0165,0.0165 0.3307,-0.56219 0.0165,-0.0165 0.31416,-0.64487 v 0 l 0.2811,-0.62833 v 0 l 0.23149,-0.52912 v 0 l 0.21496,-0.51259 h 0.0165 l 0.14882,-0.4299 v 0 l 0.16535,-0.39685 v 0 l 0.21496,-0.52912 c 0.0496,-0.11574 0.0165,-0.23149 -0.0661,-0.31416 -0.0827,-0.0827 -0.19842,-0.11575 -0.31417,-0.0661 -0.0992,0.0496 -0.18188,0.14881 -0.18188,0.26456 v 0.71101 0 0.52912 0 0.67793 0 0.74408 0 0.81021 0 0.81022 0 l 0.0165,0.84329 0.0165,0.0661 0.21495,0.69447 -0.0165,-0.0661 0.0331,0.74407 0.0165,0.0992 0.23149,0.46299 -0.0165,-0.0331 0.14882,0.57872 0.0165,0.0165 0.13228,0.36377 v 0.0331 l 0.24802,0.42991 c 0.0165,0.0165 0.0331,0.0165 0.0661,0.0165 0.0165,-0.0165 0.0331,-0.0331 0.0165,-0.0496 l -0.0827,-0.49605 v 0 l -0.0661,-0.3803 v 0 l -0.0827,-0.59526 v -0.0331 l -0.18188,-0.49606 0.0165,0.0827 0.0331,-0.74408 -0.0165,-0.0827 -0.18189,-0.69447 0.0165,0.0827 v -0.84328 0 -0.81022 0 -0.81022 0 -0.74407 0 -0.67794 0 -0.52912 0 -0.71101 c 0,-0.13228 -0.0992,-0.24802 -0.23149,-0.28109 -0.13228,-0.0165 -0.2811,0.0496 -0.3307,0.18188 l -0.19842,0.52912 v 0 l -0.14882,0.41338 h -0.0165 l -0.1488,0.42992 v -0.0165 l -0.21496,0.51259 v 0 l -0.23149,0.52912 v -0.0165 l -0.2811,0.62833 v -0.0165 l -0.29763,0.64486 v -0.0331 l -0.330701,0.57873 -0.0165,0.0165 -0.29763,0.62833 0.0165,-0.0165 -0.3307,0.51259 0.0165,-0.0165 -0.34724,0.42991 -0.0165,0.0165 -0.26456,0.41337 0.0165,-0.0331 -0.49605,0.62833 -0.0165,0.0165 -0.36377,0.52912 0.0165,-0.0331 -0.29763,0.3307 0.29763,-0.0661 -0.34723,-0.14881 c -0.13228,-0.0331 -0.26456,0.0165 -0.31417,0.13228 -0.0496,0.11574 0,0.24802 0.0992,0.31416 z"
       style="fill:#800a10;fill-opacity:1;fill-rule:nonzero;stroke:none;stroke-width:0.26458332"
       inkscape:connector-curvature="0" />
    <path
       id="path833"
       d="m 103.11112,60.56875 -0.34723,-0.59526 -0.0661,-0.0661 -0.67794,-0.41338 -0.0661,-0.0165 -0.54565,-0.0992 h -0.0331 -0.54566 v 0 l -0.57872,0.0165 -0.0661,0.0165 -0.529121,0.24802 h 0.0331 l -0.39685,0.0165 -0.0496,0.0331 -0.29763,0.31416 c -0.0165,0.0165 -0.0165,0.0331 -0.0165,0.0496 0.0165,0.0165 0.0496,0.0331 0.0661,0.0165 l 0.36377,-0.24802 -0.0661,0.0165 0.39685,0.0331 0.0496,-0.0165 0.562191,-0.19842 h -0.0496 l 0.57873,0.0165 v 0 l 0.54565,0.0165 h -0.0331 l 0.56219,0.0992 -0.0661,-0.0165 0.69447,0.39684 -0.0496,-0.0496 0.42991,0.57873 c 0.0331,0.0496 0.11575,0.0661 0.16536,0.0165 0.0496,-0.0331 0.0661,-0.0992 0.0331,-0.16535 z"
       style="fill:#800a10;fill-opacity:1;fill-rule:nonzero;stroke:none;stroke-width:0.26458332"
       inkscape:connector-curvature="0" />
    <path
       id="path835"
       d="m 127.6224,54.454589 -0.57872,0.251611 h -0.0165 l -0.51259,0.335493 v 0 l -0.52912,0.363459 -0.0165,0.0279 -0.54566,0.447324 -0.0331,0.0279 -0.47951,0.670987 -0.0165,0.0279 -0.42991,0.726901 -0.0165,0.0279 -0.2811,0.726901 -0.0165,0.08387 -0.13228,0.782817 -0.0165,0.08387 v 0.531205 c 0,0.08387 0.0165,0.16773 0.0661,0.223662 l 0.67794,0.894647 0.0661,0.05597 0.51258,0.167729 h 0.0331 0.54566 0.0331 l 0.54565,-0.195712 h 0.0331 l 0.47952,-0.279578 0.0165,-0.0279 0.39684,-0.363442 v 0.0279 l 0.3307,-0.307543 c 0.0496,-0.05597 0.0661,-0.16773 0.0496,-0.279578 l -0.0827,-0.475273 c 0,-0.0279 -0.0165,-0.05597 -0.0331,-0.05597 -0.0331,0 -0.0496,0.0279 -0.0496,0.05597 l -0.0827,0.475273 0.0827,-0.139831 -0.34723,0.251628 h -0.0165 l -0.39684,0.307527 h 0.0165 l -0.47952,0.251628 h 0.0331 l -0.56219,0.139831 h 0.0331 -0.54565 l 0.0331,0.0279 -0.51259,-0.16773 0.0827,0.05597 -0.67794,-0.894648 0.0661,0.251611 v -0.531189 0.08387 l 0.11575,-0.810782 -0.0165,0.08387 0.28109,-0.698935 -0.0165,0.0279 0.42992,-0.726902 -0.0165,0.0279 0.47951,-0.670986 -0.0331,0.0279 0.54566,-0.47529 v 0.0279 l 0.52912,-0.391409 h -0.0165 l 0.51258,-0.335492 -0.0165,0.0279 0.57873,-0.279577 c 0.0827,-0.0279 0.13228,-0.16773 0.11575,-0.307544 -0.0165,-0.16773 -0.11575,-0.251612 -0.19842,-0.195696 z"
       style="fill:#800a10;fill-opacity:1;fill-rule:nonzero;stroke:none;stroke-width:0.34404194"
       inkscape:connector-curvature="0" />
    <path
       id="path837"
       d="m 108.86531,58.23731 0.2811,0.26456 c 0.0331,0.0496 0.11574,0.0661 0.16535,0.0331 0.0661,-0.0165 0.0992,-0.0827 0.0827,-0.14881 0,-0.0661 -0.0331,-0.11575 -0.0992,-0.13228 l -0.54565,-0.16535 h -0.0331 -0.64487 v 0 h -0.3803 v 0 h -0.47952 l -0.0827,0.0165 -0.42991,0.24803 h 0.0165 l -0.39684,0.16535 h -0.0165 l -0.31417,0.18188 v 0 l -0.3803,0.2811 c -0.0331,0.0165 -0.0331,0.0496 -0.0165,0.0827 0.0165,0.0165 0.0496,0.0331 0.0661,0.0165 l 0.42991,-0.18189 v 0 l 0.3307,-0.13228 v 0 l 0.41338,-0.14881 0.0165,-0.0165 0.42991,-0.23149 -0.0661,0.0165 0.47952,0.0165 v 0 h 0.3803 v 0 h 0.64487 l -0.0496,-0.0165 0.54565,0.16535 c 0.0661,0.0165 0.14882,-0.0165 0.18189,-0.0992 0.0331,-0.0661 0,-0.14882 -0.0827,-0.19842 l -0.34724,-0.16535 c -0.0331,-0.0165 -0.0827,-0.0165 -0.11574,0.0331 -0.0165,0.0331 -0.0165,0.0827 0.0165,0.11574 z"
       style="fill:#800a10;fill-opacity:1;fill-rule:nonzero;stroke:none;stroke-width:0.26458332"
       inkscape:connector-curvature="0" />
    <path
       id="path839"
       d="m 108.98106,58.10503 -1.05824,-0.92596 c -0.0331,-0.0331 -0.0992,-0.0496 -0.14882,-0.0165 -0.0496,0.0165 -0.0827,0.0661 -0.0827,0.11575 l -0.0165,0.41338 v 0 l -0.0165,0.41337 0.0165,-0.0661 -0.14881,0.36377 -0.0165,0.0661 -0.0165,0.47952 0.0165,-0.0496 -0.13229,0.42991 v 0.0496 0.44644 0 0.39684 l 0.0496,0.11575 0.39685,0.49605 0.0992,0.0661 0.42991,0.0827 0.0827,-0.0165 0.46298,-0.3307 c 0.0331,-0.0165 0.0331,-0.0331 0.0165,-0.0661 0,-0.0165 -0.0331,-0.0165 -0.0496,-0.0165 l -0.52912,0.23149 h 0.0827 l -0.39684,-0.19842 0.0661,0.0661 -0.36377,-0.54566 0.0331,0.11574 v -0.39684 0 -0.44644 0.0496 l 0.11575,-0.41337 v -0.0661 -0.47952 l -0.0165,0.0661 0.13228,-0.36377 0.0165,-0.0661 -0.0165,-0.41337 v 0 l -0.0165,-0.41338 -0.23149,0.13228 1.12438,0.82675 c 0.0331,0.0331 0.0992,0.0331 0.13228,-0.0165 0.0331,-0.0331 0.0165,-0.0827 -0.0165,-0.11575 z"
       style="fill:#800a10;fill-opacity:1;fill-rule:nonzero;stroke:none;stroke-width:0.26458332"
       inkscape:connector-curvature="0" />
    <path
       id="path841"
       d="m 111.6432,55.02952 0.13228,0.42991 v -0.0827 l -0.0165,0.39684 v 0 l -0.0165,0.39684 v -0.0661 l -0.19842,0.56219 -0.0165,0.0827 -0.0165,0.51258 0.0165,-0.0827 -0.24803,0.69447 v 0.0165 l -0.14881,0.52912 v 0.0331 l -0.0992,0.61179 0.0165,-0.0661 -0.21496,0.52912 v 0.0661 l -0.0661,0.49605 c -0.0165,0.0992 0.0496,0.19842 0.14882,0.21496 0.11575,0.0331 0.21495,-0.0331 0.24802,-0.13228 l 0.1819,-0.49605 v -0.0165 l 0.0661,-0.36377 v 0 l 0.16535,-0.49605 v 0 l 0.13227,-0.59526 v 0.0165 l 0.19843,-0.56219 v -0.0165 l 0.14881,-0.62833 v 0.0165 l 0.19842,-0.59526 v 0 l 0.19842,-0.54565 v 0.0165 l 0.18189,-0.51258 v 0.0165 l 0.26456,-0.39684 -0.0165,0.0331 0.46298,-0.46298 -0.0992,0.0496 0.44644,-0.0827 -0.21495,-0.0661 0.29763,0.2811 -0.0827,-0.13228 0.14882,0.52912 -0.0165,-0.0827 v 0.59526 l 0.0331,-0.11574 -0.14882,0.34723 -0.0165,0.0331 -0.0992,0.36377 0.0165,-0.0496 -0.24802,0.47951 -0.0331,0.13228 v 0.41338 c 0,0.0827 0.0496,0.18189 0.13228,0.23149 l 0.42991,0.26456 c 0.0496,0.0331 0.0992,0.0496 0.14881,0.0496 h 0.3307 l -0.11574,-0.0331 0.31417,0.16535 -0.0331,-0.0331 0.59526,0.46298 -0.0827,-0.13228 0.23149,0.59526 -0.0331,-0.0992 v 0.36377 l 0.0661,-0.16535 -0.23149,0.3307 v -0.0165 l -0.26456,0.34724 0.0661,-0.0661 -0.38031,0.28109 0.0496,-0.0331 -0.44644,0.16535 0.0827,-0.0165 -0.42991,0.0165 -0.11575,0.0331 -0.44644,0.2315 0.0827,-0.0165 -0.36377,0.0331 v 0 l -0.3307,0.0331 v 0 l -0.34724,0.0331 -0.0331,0.0165 -0.29763,0.11574 v 0 l -0.42991,0.16535 c -0.0165,0 -0.0331,0.0331 -0.0165,0.0496 0,0.0165 0.0165,0.0331 0.0496,0.0331 l 0.42991,-0.0992 v 0 l 0.31417,-0.0331 h -0.0165 l 0.34724,0.0331 v 0 l 0.3307,0.0496 v 0 l 0.36377,0.0331 0.11574,-0.0331 0.47952,-0.18188 -0.11575,0.0165 0.42991,0.0165 0.0992,-0.0165 0.46298,-0.14881 0.0661,-0.0331 0.39684,-0.2811 0.0661,-0.0496 0.24803,-0.34723 h 0.0165 l 0.21495,-0.3307 c 0.0496,-0.0496 0.0661,-0.0992 0.0661,-0.16535 v -0.36377 l -0.0331,-0.0992 -0.21495,-0.59526 c -0.0331,-0.0496 -0.0661,-0.0827 -0.0992,-0.11575 l -0.6118,-0.46298 -0.0496,-0.0331 -0.31417,-0.14881 -0.13228,-0.0331 h -0.3307 l 0.14882,0.0331 -0.42991,-0.26457 0.13228,0.24803 v -0.41338 l -0.0331,0.13228 0.26456,-0.47951 0.0165,-0.0661 0.0992,-0.36377 v 0.0496 l 0.14881,-0.36377 0.0165,-0.0992 v -0.59526 l -0.0165,-0.0827 -0.14881,-0.51259 c -0.0165,-0.0661 -0.0496,-0.11574 -0.0992,-0.14881 l -0.3307,-0.24803 c -0.0827,-0.0496 -0.16536,-0.0661 -0.24803,-0.0331 l -0.44645,0.14881 -0.0992,0.0827 -0.39684,0.52912 -0.0165,0.0496 -0.16535,0.44644 v 0.0165 l -0.14881,0.51258 v 0 l -0.16535,0.56219 v 0 l -0.16535,0.59526 v 0 l -0.13228,0.62834 v 0 L 111.61,58.18774 v 0 l -0.14882,0.59526 v -0.0165 l -0.19841,0.47952 v 0 l -0.13229,0.34723 0.0165,-0.0331 -0.3307,0.41338 c -0.0661,0.0661 -0.0661,0.14881 -0.0331,0.23149 0.0331,0.0661 0.11575,0.11575 0.19842,0.11575 0.0827,-0.0165 0.16535,-0.0661 0.18189,-0.14882 l 0.16535,-0.47952 -0.0165,0.0331 0.23149,-0.51258 0.0165,-0.0661 0.11575,-0.6118 v 0.0165 l 0.13228,-0.52912 -0.0165,0.0165 0.23149,-0.69447 v -0.0827 -0.51258 l -0.0165,0.0827 0.18188,-0.57872 0.0165,-0.0827 -0.0165,-0.39684 v 0 l -0.0165,-0.39684 -0.0165,-0.0661 -0.18188,-0.39684 c -0.0496,-0.0992 -0.14882,-0.13228 -0.2315,-0.0992 -0.0827,0.0331 -0.13227,0.13228 -0.0992,0.21496 z"
       style="fill:#800a10;fill-opacity:1;fill-rule:nonzero;stroke:none;stroke-width:0.26458332"
       inkscape:connector-curvature="0" />
    <path
       id="path843"
       d="m 83.872024,57.929675 0.19842,0.34724 c 0.0331,0.0496 0.0661,0.0827 0.11575,0.11574 l 0.34724,0.21496 c 0.0496,0.0331 0.0992,0.0496 0.16535,0.0496 h 0.711 v 0 h 0.51259 v 0 h 0.56219 v 0 h 0.6614 v 0 l 0.71101,-0.0165 v 0 l 0.61179,-0.0165 h 0.0496 l 0.64487,-0.11575 h -0.0331 l 0.42991,-0.0165 h 0.0165 l 0.39684,-0.0331 h -0.0331 l 0.42991,0.0661 c 0.0661,0 0.13228,-0.0331 0.14882,-0.0992 0.0165,-0.0496 0,-0.11574 -0.0661,-0.14881 l -0.39684,-0.21496 -0.0827,-0.0165 -0.39685,-0.0331 h -0.0165 l -0.42991,-0.0165 h -0.0496 l -0.64486,0.0827 h 0.0331 l -0.6118,-0.0165 v 0 h -0.71101 v 0 h -0.6614 v 0 h -0.56219 v 0 h -0.51259 v 0 h -0.711 l 0.14881,0.0331 -0.36377,-0.21495 0.0331,0.0165 -0.31417,-0.24803 c -0.0827,-0.0827 -0.19842,-0.0661 -0.28109,0 -0.0827,0.0661 -0.0992,0.18189 -0.0496,0.2811 z"
       style="fill:#800a10;fill-opacity:1;fill-rule:nonzero;stroke:none;stroke-width:0.26458332"
       inkscape:connector-curvature="0" />
    <path
       id="path845"
       d="m 90.667924,56.639945 0.42991,0.19842 h 0.0165 l 0.59526,0.13228 h 0.0165 l 0.36378,0.0165 h -0.0331 l 0.39684,0.0827 h 0.0331 l 0.47951,0.0165 -0.0992,-0.0165 0.41338,0.23149 0.0165,0.0165 0.46298,0.18189 -0.0661,-0.0331 0.57873,0.54565 -0.0661,-0.11574 0.14881,0.44644 -0.0165,-0.0992 -0.0165,0.6614 v 0 0.38031 l 0.11575,-0.23149 -0.59527,0.46298 0.0661,-0.0331 -0.3307,0.14881 -0.0165,0.0165 -0.36377,0.21496 0.0165,-0.0165 -0.41337,0.18188 v 0 l -0.38031,0.14882 -0.0165,0.0165 -0.3307,0.19842 v 0 l -0.31416,0.18188 c -0.0331,0.0165 -0.0496,0.0661 -0.0331,0.0992 0.0165,0.0331 0.0496,0.0496 0.0827,0.0331 l 0.36377,-0.0992 v 0 l 0.36377,-0.11574 h -0.0165 l 0.39684,-0.0827 h 0.0165 l 0.42991,-0.0992 0.0496,-0.0165 0.39684,-0.18189 -0.0331,0.0165 0.3307,-0.11574 0.0827,-0.0496 0.59526,-0.44645 c 0.0827,-0.0661 0.11575,-0.14881 0.11575,-0.23149 v -0.3803 0 l -0.0165,-0.6614 -0.0165,-0.11575 -0.19842,-0.41337 -0.0661,-0.0827 -0.6118,-0.51259 -0.0827,-0.0496 -0.47951,-0.13228 0.0331,0.0165 -0.41338,-0.19842 -0.0827,-0.0165 -0.47951,0.0165 h 0.0331 l -0.39684,-0.0661 h -0.0331 -0.36377 0.0331 l -0.59526,-0.0992 h 0.0165 l -0.46298,-0.11574 c -0.0496,0 -0.0827,0.0165 -0.0992,0.0661 -0.0165,0.0331 0,0.0827 0.0496,0.0992 z"
       style="fill:#800a10;fill-opacity:1;fill-rule:nonzero;stroke:none;stroke-width:0.26458332"
       inkscape:connector-curvature="0" />
    <path
       id="path847"
       d="m 70.710144,58.128095 0.31417,0.0496 -0.21496,-0.26456 -0.0165,0.42991 v 0 l -0.0165,0.41338 v 0 l -0.0165,0.41337 v -0.0496 l -0.13228,0.64487 -0.0165,0.0165 -0.11574,0.6614 v 0.0165 l -0.0992,0.6614 v 0.0496 0.64487 -0.0661 l -0.13228,0.57872 v -0.0165 l -0.14882,0.56219 v 0.0992 l 0.0165,0.38031 c 0,0.0496 0.0165,0.0992 0.0496,0.14882 l 0.23149,0.3307 c 0.0331,0.0496 0.0992,0.0827 0.14882,0.0827 0.0661,0.0165 0.13228,-0.0165 0.16535,-0.0661 l 0.31416,-0.39684 0.0165,-0.0165 0.21495,-0.38031 v 0 l 0.2811,-0.49605 c 0,-0.0331 0,-0.0496 -0.0165,-0.0661 -0.0331,-0.0165 -0.0496,0 -0.0661,0.0165 l -0.31417,0.47951 v -0.0165 l -0.28109,0.33071 0.0165,-0.0165 -0.42991,0.26456 0.31417,0.11574 -0.0992,-0.39684 v 0.0827 l 0.0165,-0.38031 v 0.0661 l 0.14882,-0.56219 0.0165,-0.0165 0.13228,-0.56219 0.0165,-0.0827 v -0.64486 l -0.0165,0.0496 0.0992,-0.67794 v 0.0165 l 0.13228,-0.67794 -0.0165,0.0165 0.13228,-0.6614 0.0165,-0.0661 -0.0165,-0.41337 v 0 l -0.0165,-0.41338 v 0 l -0.0165,-0.42991 c 0,-0.0661 -0.0331,-0.13228 -0.0827,-0.18188 -0.0661,-0.0496 -0.13228,-0.0661 -0.19842,-0.0661 l -0.31416,0.0496 c -0.0992,0.0165 -0.18189,0.0992 -0.18189,0.21495 0,0.0992 0.0827,0.18189 0.18189,0.19842 z"
       style="fill:#800a10;fill-opacity:1;fill-rule:nonzero;stroke:none;stroke-width:0.26458332"
       inkscape:connector-curvature="0" />
    <path
       id="path849"
       d="m 73.736054,52.836885 -0.13228,0.42991 -0.0165,0.0165 -0.14881,0.54566 -0.0165,0.0661 v 0.31416 -0.0661 l -0.13228,0.46298 v 0.0827 l -0.0165,0.52912 v -0.0331 l -0.0992,0.711 v 0.0331 0.71101 -0.0496 l -0.14882,0.81021 -0.0165,0.0496 v 0.8929 l 0.0165,-0.0496 -0.13228,0.84328 v 0.0331 0.85982 -0.0496 l -0.13228,0.76061 v 0.0496 l 0.0165,0.64487 v 0 l 0.0165,0.41338 v 0 l 0.0165,0.39684 0.0165,0.0496 0.0661,0.29763 c 0.0165,0.0661 0.0992,0.13228 0.16535,0.13228 0.0827,0 0.16535,-0.0661 0.18189,-0.13228 l 0.0661,-0.29763 0.0165,-0.0496 0.0165,-0.39684 v 0 l 0.0165,-0.41338 v 0 l 0.0165,-0.64487 -0.0165,0.0496 0.13228,-0.76061 0.0165,-0.0496 v -0.85982 l -0.0165,0.0496 0.13228,-0.82675 v -0.0496 -0.89289 0.0661 l 0.14881,-0.81022 v -0.0661 -0.711 0.0496 l 0.0992,-0.71101 v -0.0496 -0.52912 0.0661 l 0.0992,-0.46298 0.0165,-0.0827 -0.0165,-0.31416 -0.0165,0.0661 0.13228,-0.54566 v -0.0165 l 0.0827,-0.46298 c 0.0165,-0.11575 -0.0661,-0.21496 -0.16535,-0.24803 -0.11574,-0.0165 -0.23149,0.0331 -0.26456,0.14882 z"
       style="fill:#800a10;fill-opacity:1;fill-rule:nonzero;stroke:none;stroke-width:0.26458332"
       inkscape:connector-curvature="0" />
    <path
       id="path851"
       d="m 76.034424,50.720405 0.21496,-0.31417 -0.2811,-0.0331 0.16535,0.52912 v -0.0496 l -0.0165,0.29763 v 0.0165 0.51258 0 l -0.0165,0.62833 v -0.0661 l -0.31416,0.90943 -0.0165,0.0661 -0.0165,0.9921 v -0.0496 l -0.2811,1.24012 -0.0165,0.0165 -0.14881,1.2236 v -0.0165 l -0.2811,1.30626 v 0.0165 l -0.19842,1.25666 v 0 l -0.16535,1.20706 v -0.0165 l -0.19842,1.04171 v 0.0661 l 0.0165,0.72754 v 0.0165 l 0.0331,0.47952 c 0.0165,0.11574 0.11574,0.19842 0.23149,0.19842 l 0.46298,0.0165 0.0992,-0.0661 0.16535,-0.36378 c 0,-0.0331 0,-0.0661 -0.0331,-0.0827 -0.0165,0 -0.0496,0 -0.0661,0.0165 l -0.23149,0.33071 0.13228,-0.0331 -0.41338,-0.2315 0.11575,0.21496 0.0331,-0.47952 v -0.0165 l 0.0165,-0.72754 v 0.0496 l 0.21495,-1.0417 v -0.0165 l 0.16535,-1.20706 v 0 l 0.16535,-1.2732 v 0.0165 l 0.24803,-1.30626 0.0165,-0.0165 0.11575,-1.2236 v 0.0165 l 0.26456,-1.24012 v -0.0496 l -0.0165,-0.9921 v 0.0661 l 0.2811,-0.90943 0.0165,-0.0661 -0.0165,-0.62833 v 0 l -0.0165,-0.51258 v -0.0165 -0.29763 l -0.0165,-0.0496 -0.16535,-0.52912 c -0.0331,-0.0661 -0.0992,-0.11574 -0.16535,-0.0992 -0.0661,0 -0.13228,0.0496 -0.14882,0.11575 l -0.0992,0.36377 c 0,0.0331 0.0165,0.0827 0.0661,0.0992 0.0331,0.0165 0.0827,0.0165 0.0992,-0.0331 z"
       style="fill:#800a10;fill-opacity:1;fill-rule:nonzero;stroke:none;stroke-width:0.26458332"
       inkscape:connector-curvature="0" />
    <path
       id="path853"
       d="m 122.01062,84.100307 0.42991,0.44645 c 0.0496,0.0496 0.11574,0.0661 0.19842,0.0496 l 0.44645,-0.0992 h -0.0661 l 0.44644,0.0165 c 0.0496,0 0.0992,-0.0165 0.14882,-0.0496 l 0.51258,-0.34724 -0.0165,0.0165 0.49606,-0.26456 0.0331,-0.0331 0.46298,-0.36377 0.0165,-0.0165 0.49605,-0.46298 v -0.0165 l 0.51258,-0.51259 0.0331,-0.0331 0.46298,-0.62833 v -0.0165 l 0.44645,-0.6614 0.0165,-0.0331 0.36377,-0.69447 v 0.0165 l 0.36377,-0.69447 0.0165,-0.0165 0.3307,-0.77715 0.0165,-0.0165 0.24803,-0.64486 v 0 l 0.21495,-0.56219 v 0 l 0.18189,-0.46299 -0.0165,0.0331 0.19842,-0.3803 c 0.0496,-0.0992 0.0331,-0.21496 -0.0331,-0.31417 -0.0827,-0.0827 -0.19842,-0.11574 -0.31417,-0.0661 -0.11574,0.0331 -0.18188,0.13228 -0.18188,0.24803 v 0.59526 0 0.52912 0 0.62833 -0.0496 l -0.13228,0.69447 v 0.0496 0.74408 -0.0165 l -0.0661,0.84328 v 0.0331 l 0.0165,0.79368 v -0.0496 l -0.18189,0.92597 v 0.0496 l 0.0165,0.82675 v -0.0331 l -0.14881,0.89289 v 0 l -0.0827,0.69447 v 0.0331 l 0.0331,0.6614 v -0.0165 l -0.0827,0.49605 v 0.0331 l 0.13228,0.51259 c 0.0165,0.0331 0.0331,0.0496 0.0496,0.0331 0.0331,0 0.0496,-0.0165 0.0331,-0.0496 l -0.0661,-0.52912 v 0.0331 l 0.16535,-0.47952 v -0.0331 l 0.0331,-0.6614 v 0.0331 l 0.14881,-0.69447 v 0 l 0.21496,-0.87636 v -0.0496 l 0.0331,-0.82675 -0.0165,0.0496 0.21495,-0.92596 0.0165,-0.0496 0.0165,-0.79368 v 0.0165 l 0.0827,-0.84329 v -0.0331 -0.74408 0.0496 l 0.13228,-0.69447 v -0.0496 -0.62833 0 -0.52912 0 -0.59526 c 0,-0.11574 -0.0992,-0.23149 -0.21495,-0.26456 -0.13228,-0.0331 -0.26456,0.0331 -0.31417,0.14882 l -0.18188,0.36377 -0.0165,0.0331 -0.18189,0.46298 v 0 l -0.21495,0.56219 v 0 l -0.24803,0.64486 v 0 l -0.34723,0.76061 0.0165,-0.0165 -0.36377,0.69447 h -0.0165 l -0.34724,0.69447 0.0165,-0.0331 -0.46298,0.67794 0.0165,-0.0165 -0.46298,0.62833 0.0165,-0.0331 -0.49605,0.52912 v -0.0165 l -0.49605,0.47952 0.0165,-0.0165 -0.44644,0.38031 0.0331,-0.0331 -0.49605,0.29763 h -0.0165 l -0.49605,0.3803 0.13228,-0.0496 -0.44645,0.0165 -0.0661,0.0165 -0.42991,0.14882 0.19842,0.0331 -0.47952,-0.38031 c -0.0661,-0.0661 -0.16535,-0.0496 -0.23149,0.0165 -0.0661,0.0661 -0.0661,0.16536 0,0.2315 z"
       style="fill:#800a10;fill-opacity:1;fill-rule:nonzero;stroke:none;stroke-width:0.26458332"
       inkscape:connector-curvature="0" />
    <path
       id="path857"
       d="m 128.90573,84.811317 -0.36377,-0.34724 h -0.0165 l -0.49606,-0.39684 -0.0331,-0.0165 -0.31416,-0.14881 -0.0165,-0.0165 -0.41337,-0.11575 h -0.0496 -0.36378 v 0 l -0.44644,0.0165 v 0 l -0.3307,0.0165 -0.0827,0.0331 -0.29763,0.24803 c -0.0165,0.0165 -0.0331,0.0496 -0.0331,0.0661 0.0165,0.0331 0.0331,0.0661 0.0661,0.0827 l 0.56219,0.24802 c 0.0165,0.0165 0.0496,0 0.0661,-0.0165 0,-0.0165 0,-0.0496 -0.0165,-0.0496 l -0.52912,-0.34723 -0.0165,0.16535 0.34723,-0.16535 -0.0661,0.0165 h 0.3307 v 0 l 0.44645,0.0165 v 0 h 0.36377 -0.0331 l 0.41338,0.0992 h -0.0331 l 0.3307,0.13228 -0.0331,-0.0165 0.51258,0.36377 h 0.0165 l 0.41337,0.2811 c 0.0331,0.0165 0.0827,0.0165 0.11575,-0.0331 0.0331,-0.0331 0.0331,-0.0827 0,-0.11575 z"
       style="fill:#800a10;fill-opacity:1;fill-rule:nonzero;stroke:none;stroke-width:0.26458332"
       inkscape:connector-curvature="0" />
    <path
       id="path859"
       d="m 100.29749,80.346061 0.36377,-0.0496 -0.19842,-0.13228 0.13228,0.42991 -0.0165,-0.0496 v 0.31417 l 0.0165,-0.0496 -0.14882,0.52911 -0.0165,0.0496 v 0.51259 l 0.0165,-0.0331 -0.13228,0.57873 v 0.0331 0.59526 0 0.52912 0 l 0.0165,0.47951 v 0.0496 l 0.16536,0.46299 c 0.0331,0.0661 0.11574,0.11574 0.19842,0.0992 0.0661,-0.0331 0.11574,-0.0992 0.11574,-0.18189 l -0.0992,-0.6118 v 0 l -0.0165,-0.36377 v 0 -0.42991 0 l -0.0992,-0.42991 v 0.0165 l 0.0165,-0.51258 v 0 l 0.0165,-0.41338 v 0.0165 l 0.13228,-0.41338 v 0 l 0.18189,-0.44644 v 0 l 0.23149,-0.44645 -0.0331,0.0496 0.3307,-0.3307 v 0 l 0.41337,-0.42991 -0.0496,0.0331 0.3803,-0.23149 0.0331,-0.0165 0.38031,-0.29763 -0.0496,0.0331 0.38031,-0.18189 h 0.0165 l 0.36377,-0.19842 -0.11575,0.0331 h 0.31416 v 0 h 0.3307 l -0.23148,-0.11574 0.29763,0.42991 -0.0496,-0.14882 v 0.3307 l 0.0331,-0.0992 -0.18189,0.41338 v -0.0165 l -0.19842,0.41337 0.0165,-0.0165 -0.23149,0.39684 0.0165,-0.0496 -0.24803,0.29764 -0.0331,0.0496 -0.21495,0.36377 -0.0331,0.0661 -0.16536,0.52912 c -0.0165,0.0827 0,0.18188 0.0496,0.24802 l 0.24803,0.31417 0.0827,0.0827 0.57873,0.29763 v 0 l 0.42991,0.23149 v 0 l 0.3307,0.18188 -0.0165,-0.0165 0.31416,0.21496 -0.0496,-0.0496 0.44645,0.52912 -0.0661,-0.18189 v 0.57873 l 0.0496,-0.16535 -0.38031,0.51259 0.0661,-0.0496 -0.6118,0.39684 0.0661,-0.0331 -0.36377,0.13228 v 0 l -0.47951,0.14881 0.0661,-0.0165 -0.34724,0.0165 -0.0992,0.0331 -0.36377,0.19842 0.0661,-0.0165 -0.29763,0.0331 h -0.0165 l -0.3803,0.0827 c -0.0331,0.0165 -0.0661,0.0496 -0.0661,0.0827 0,0.0496 0.0331,0.0827 0.0661,0.0827 l 0.3803,0.0827 h 0.0165 l 0.29763,0.0496 0.0992,-0.0165 0.39684,-0.13227 h -0.0992 l 0.34724,0.0331 0.0827,-0.0165 0.47951,-0.11575 0.0331,-0.0165 0.34724,-0.11574 0.0661,-0.0331 0.61179,-0.41338 0.0661,-0.0661 0.39684,-0.51258 c 0.0331,-0.0496 0.0496,-0.0992 0.0496,-0.16535 v -0.57873 c 0,-0.0496 -0.0165,-0.11574 -0.0661,-0.16535 l -0.44644,-0.52912 -0.0496,-0.0496 -0.3307,-0.21495 -0.0165,-0.0165 -0.3307,-0.18189 v 0 l -0.44645,-0.23149 v 0 l -0.56219,-0.31417 0.0827,0.0827 -0.23149,-0.31416 0.0496,0.24802 0.14881,-0.52912 -0.0165,0.0496 0.21496,-0.36377 -0.0331,0.0331 0.26456,-0.29763 0.0331,-0.0331 0.23149,-0.41338 v -0.0165 l 0.19842,-0.39684 0.0165,-0.0165 0.16535,-0.41337 0.0331,-0.11575 v -0.3307 c 0,-0.0661 -0.0165,-0.11575 -0.0496,-0.16535 l -0.31417,-0.42991 c -0.0496,-0.0661 -0.13227,-0.11575 -0.21495,-0.11575 l -0.3307,0.0165 v 0 h -0.31417 l -0.13228,0.0331 -0.36377,0.18189 h 0.0165 l -0.39684,0.18188 -0.0496,0.0496 -0.3803,0.3307 0.0331,-0.0165 -0.36377,0.26456 -0.0496,0.0331 -0.38031,0.44645 v 0.0165 l -0.2811,0.36377 -0.0331,0.0496 -0.16534,0.46299 -0.0165,0.0165 -0.11575,0.47951 -0.0165,0.0165 -0.0661,0.42991 v 0.0165 l 0.0331,0.41338 v 0 0.51258 0.0165 l 0.11575,0.41338 v -0.0165 l -0.0165,0.42991 v 0 l -0.0165,0.36377 v 0 l -0.0827,0.6118 c -0.0165,0.0661 0.0165,0.13228 0.0661,0.16535 0.0661,0.0331 0.13228,0.0165 0.18188,-0.0165 0.0496,-0.0331 0.0661,-0.0992 0.0661,-0.16535 l -0.11574,-0.46298 v 0.0496 -0.47951 0 l 0.0165,-0.52913 v 0 -0.59526 l -0.0165,0.0496 0.13228,-0.57872 v -0.0496 -0.51259 l -0.0165,0.0496 0.13228,-0.52912 0.0165,-0.0496 v -0.31417 l -0.0165,-0.0661 -0.14881,-0.41337 c -0.0165,-0.0661 -0.0496,-0.0992 -0.0992,-0.11574 -0.0496,-0.0165 -0.11575,-0.0165 -0.16535,0.0165 l -0.29763,0.19842 c -0.0496,0.0165 -0.0661,0.0661 -0.0496,0.11574 0.0165,0.0496 0.0661,0.0661 0.11574,0.0661 z"
       style="fill:#800a10;fill-opacity:1;fill-rule:nonzero;stroke:none;stroke-width:0.26458332"
       inkscape:connector-curvature="0" />
    <path
       id="path861"
       d="m 110.58984,81.745229 0.0661,-0.29763 c 0.0165,-0.0661 -0.0165,-0.13228 -0.0661,-0.18188 -0.0496,-0.0496 -0.11574,-0.0661 -0.18188,-0.0331 l -0.36377,0.0992 h 0.0496 -0.31417 -0.0661 l -0.3307,0.11574 h 0.0165 l -0.39684,0.0827 h 0.0496 l -0.46298,0.0165 -0.0661,0.0165 -0.34724,0.14882 0.0496,-0.0165 -0.34723,0.0165 v 0 l -0.56219,0.0661 c -0.0496,0 -0.0827,0.0496 -0.0827,0.0827 0,0.0496 0.0331,0.0992 0.0827,0.0992 l 0.56219,0.0496 v 0 l 0.34723,0.0331 0.0661,-0.0165 0.36377,-0.11575 h -0.0661 l 0.46299,0.0165 h 0.0331 l 0.39684,-0.0827 h 0.0331 l 0.3307,-0.13228 -0.0661,0.0165 h 0.31416 l 0.0661,-0.0165 0.36377,-0.13228 -0.24802,-0.13228 0.0661,0.29763 c 0.0165,0.0661 0.0661,0.0992 0.13228,0.0992 0.0496,0 0.0992,-0.0331 0.11574,-0.0992 z"
       style="fill:#800a10;fill-opacity:1;fill-rule:nonzero;stroke:none;stroke-width:0.26458332"
       inkscape:connector-curvature="0" />
    <path
       id="path863"
       d="m 109.76309,80.670459 0.38031,-0.2811 -0.26456,-0.0992 0.13228,0.52912 v -0.0827 l -0.11575,0.49605 v 0 l -0.11575,0.54566 v 0.0331 0.57872 -0.0496 l -0.14881,0.54566 -0.0165,0.0496 0.0165,0.56219 v 0 l 0.0165,0.36377 0.0827,0.11575 0.31417,0.16534 c 0.0165,0 0.0496,0 0.0661,-0.0165 0.0165,-0.0165 0.0165,-0.0496 0,-0.0661 l -0.21496,-0.28109 0.0331,0.0827 0.0165,-0.36377 v 0 l 0.0165,-0.56219 -0.0165,0.0331 0.16535,-0.51259 0.0165,-0.0661 v -0.57872 0.0496 l 0.11574,-0.5622 v 0.0165 l 0.11575,-0.49605 v -0.0827 l -0.14882,-0.52912 c -0.0165,-0.0661 -0.0661,-0.11574 -0.11574,-0.13228 -0.0661,-0.0165 -0.13228,0.0165 -0.18189,0.0496 l -0.31416,0.3803 c -0.0331,0.0331 -0.0331,0.11575 0,0.14882 0.0496,0.0496 0.11574,0.0496 0.16535,0.0165 z"
       style="fill:#800a10;fill-opacity:1;fill-rule:nonzero;stroke:none;stroke-width:0.26458332"
       inkscape:connector-curvature="0" />
    <path
       id="path865"
       d="m 116.03231,78.495044 0.34723,-0.26455 c 0.0496,-0.0331 0.0827,-0.0992 0.0661,-0.16536 0,-0.0661 -0.0496,-0.11574 -0.0992,-0.13227 -0.0661,-0.0331 -0.13227,-0.0165 -0.18188,0.0165 l -0.59526,0.46298 -0.0331,0.0331 -0.46298,0.59526 v 0 l -0.44645,0.67793 v 0 l -0.51258,0.84329 -0.0165,0.0165 -0.39684,0.79368 v 0.0331 l -0.34724,0.87636 -0.0165,0.0331 -0.16535,0.711 v 0.0496 l -0.0165,0.67794 v -0.0165 0.42991 c 0,0.0661 0.0165,0.11574 0.0496,0.16535 l 0.29763,0.41338 c 0.0496,0.0496 0.11575,0.0827 0.18188,0.0992 l 0.66141,0.11574 h 0.0661 l 0.29763,-0.0165 0.13228,-0.0496 0.47951,-0.39684 c 0.0496,-0.0331 0.0827,-0.0992 0.0496,-0.16535 l -0.0992,-0.34723 c -0.0165,-0.0165 -0.0331,-0.0331 -0.0496,-0.0331 -0.0165,0 -0.0331,0.0165 -0.0496,0.0331 l -0.0992,0.34723 0.0827,-0.0992 -0.56219,0.26456 0.11575,-0.0165 -0.29763,-0.0165 h 0.0331 l -0.6614,-0.14882 0.14881,0.0992 -0.31416,-0.39684 0.0496,0.14882 v -0.42991 0.0165 l -0.0165,-0.67794 v 0.0496 l 0.14881,-0.711 -0.0165,0.0331 0.3307,-0.8929 -0.0165,0.0165 0.38031,-0.81021 v 0.0165 l 0.47951,-0.85982 v 0 l 0.42991,-0.66141 h -0.0165 l 0.44645,-0.57872 -0.0331,0.0331 0.59526,-0.47952 c 0.0496,-0.0496 0.0827,-0.11574 0.0661,-0.18188 -0.0165,-0.0661 -0.0661,-0.11575 -0.13228,-0.13228 -0.0661,-0.0165 -0.13228,0.0165 -0.18189,0.0661 l -0.28109,0.34723 c -0.0331,0.0331 -0.0331,0.11575 0.0165,0.14882 0.0496,0.0496 0.11575,0.0496 0.16535,0.0165 z"
       style="fill:#800a10;fill-opacity:1;fill-rule:nonzero;stroke:none;stroke-width:0.26458332"
       inkscape:connector-curvature="0" />
    <path
       id="path867"
       d="m 80.994934,82.467655 -0.36377,0.29763 c -0.0496,0.0496 -0.0827,0.11575 -0.0827,0.18189 0,0.0661 0.0331,0.13228 0.0992,0.18188 l 0.3307,0.24803 c 0.0496,0.0331 0.0992,0.0496 0.14881,0.0496 l 0.79368,0.0165 v 0 h 0.67794 v 0 h 0.76061 v 0 h 0.95903 0.0331 l 1.05825,-0.16535 -0.0331,0.0165 h 0.9921 v 0 l 1.0417,-0.0165 v 0 h 0.95904 v 0 h 0.81021 0.0165 l 0.74408,-0.0165 v 0 l 0.62833,-0.0165 v 0 l 0.54566,-0.0331 v 0 l 0.41337,-0.0331 v 0 l 0.36377,-0.0331 0.0661,-0.0331 0.2811,-0.21496 c 0.0331,-0.0331 0.0331,-0.0496 0.0165,-0.0827 0,-0.0331 -0.0331,-0.0496 -0.0661,-0.0331 l -0.34724,0.0827 h 0.0496 l -0.36377,-0.0331 v 0 l -0.41337,-0.0496 v 0 l -0.54566,-0.0165 v 0 l -0.62833,-0.0165 v 0 l -0.74408,-0.0165 h -0.0165 l -0.81021,-0.0165 v 0 h -0.95903 v 0 h -1.04171 v 0 h -0.9921 -0.0496 l -1.05824,0.16535 h 0.0496 -0.95904 v 0 h -0.76061 v 0 h -0.67793 v 0 l -0.79369,0.0165 0.13229,0.0331 -0.36378,-0.19842 0.0827,0.3307 0.24803,-0.39684 c 0.0331,-0.0661 0.0331,-0.14881 -0.0331,-0.19842 -0.0496,-0.0496 -0.13228,-0.0496 -0.19842,0 z"
       style="fill:#800a10;fill-opacity:1;fill-rule:nonzero;stroke:none;stroke-width:0.26458332"
       inkscape:connector-curvature="0" />
    <path
       id="path869"
       d="m 90.965554,81.177925 0.44645,-0.11574 h -0.0496 l 0.41337,0.0165 v 0 l 0.42992,0.0165 h -0.0496 l 0.56219,0.13228 h 0.0165 l 0.56219,0.13228 h 0.0496 l 0.57873,0.0165 -0.0827,-0.0165 0.54565,0.21495 v 0 l 0.44645,0.19842 -0.0661,-0.0331 0.36377,0.29764 -0.0496,-0.0496 0.31417,0.54565 -0.0165,-0.23149 -0.24803,0.54566 0.0661,-0.0827 -0.36377,0.31416 0.0496,-0.0331 -0.42991,0.23149 h -0.0165 l -0.47952,0.26456 0.0165,-0.0165 -0.51258,0.19843 h -0.0165 l -0.42992,0.19841 v 0 l -0.3307,0.18189 -0.0165,0.0165 -0.31416,0.29763 c -0.0165,0.0165 -0.0165,0.0331 0,0.0661 0,0.0165 0.0331,0.0165 0.0496,0 l 0.38031,-0.19842 h -0.0165 l 0.34723,-0.0992 v 0 l 0.46298,-0.13228 h -0.0165 l 0.54566,-0.13228 0.0331,-0.0165 0.51259,-0.21496 v 0 l 0.44644,-0.21495 0.0661,-0.0331 0.36377,-0.29764 0.0661,-0.0827 0.24803,-0.54565 c 0.0331,-0.0827 0.0331,-0.16535 -0.0165,-0.23149 l -0.3307,-0.54566 -0.0661,-0.0661 -0.36377,-0.28109 -0.0496,-0.0331 -0.44645,-0.19843 h -0.0165 l -0.54566,-0.21495 -0.0827,-0.0165 -0.57873,0.0165 h 0.0331 l -0.56219,-0.11575 v 0 l -0.57872,-0.11574 h -0.0331 -0.42991 v 0 l -0.41338,0.0331 h -0.0496 l -0.4299,0.18189 c -0.0661,0.0165 -0.0992,0.0992 -0.0827,0.16535 0.0165,0.0661 0.0992,0.0992 0.16534,0.0827 z"
       style="fill:#800a10;fill-opacity:1;fill-rule:nonzero;stroke:none;stroke-width:0.26458332"
       inkscape:connector-curvature="0" />
    <path
       id="path871"
       d="m 71.355014,75.589085 0.19842,-0.38031 0.0165,-0.0661 0.0331,-0.39684 -0.0165,0.0331 0.0827,-0.31416 c 0.0165,-0.0827 -0.0165,-0.18189 -0.0827,-0.23149 -0.0661,-0.0496 -0.16535,-0.0661 -0.24803,-0.0331 -0.0827,0.0331 -0.13228,0.11574 -0.13228,0.19842 l -0.0165,0.57872 v 0 l -0.0165,0.46298 v -0.0331 l -0.13228,0.74408 -0.0165,0.0496 -0.0165,0.79368 0.0165,-0.0496 -0.14882,0.9425 -0.0165,0.0496 v 1.07477 -0.0496 l -0.1819,1.20706 v 0.0165 l -0.11574,1.20706 v 0.0331 1.19052 -0.0331 l -0.13228,1.12438 -0.0165,0.0496 v 1.02518 0.0165 l 0.0165,0.85982 v 0 l 0.0165,0.74408 v -0.0827 l -0.14881,0.59526 -0.0165,0.0827 0.0331,0.36377 v 0 l 0.0165,0.34723 c 0.0165,0.0827 0.0661,0.14882 0.14881,0.18189 0.0827,0.0331 0.16535,0.0165 0.23149,-0.0331 l 0.24803,-0.23149 c 0.0165,-0.0165 0.0165,-0.0496 0.0165,-0.0661 -0.0165,-0.0165 -0.0331,-0.0496 -0.0661,-0.0496 l -0.3307,-0.0331 0.19842,0.23149 0.0331,-0.34724 v 0 l 0.0165,-0.36377 -0.0165,0.0661 0.19842,-0.57873 v -0.0827 l 0.0165,-0.74407 v 0 -0.85982 -0.0165 -1.02518 0.0331 l 0.14881,-1.12438 v -0.0496 -1.19052 0.0331 l 0.11575,-1.22359 v 0.0165 l 0.18188,-1.19052 v -0.0496 -1.07478 0.0496 l 0.13228,-0.95903 v -0.0331 l -0.0165,-0.79368 v 0.0496 l 0.11575,-0.76061 v -0.0496 l -0.0165,-0.46298 v 0 l -0.0165,-0.57873 c 0,-0.0827 -0.0496,-0.16535 -0.13228,-0.19842 -0.0827,-0.0331 -0.18189,-0.0165 -0.24803,0.0331 -0.0661,0.0496 -0.0992,0.14882 -0.0827,0.23149 l 0.0661,0.31417 v -0.0331 l 0.0331,0.39684 v -0.0496 l -0.13228,0.42991 c -0.0165,0.0496 0.0165,0.0992 0.0496,0.11574 0.0496,0.0165 0.0992,0 0.13228,-0.0496 z"
       style="fill:#800a10;fill-opacity:1;fill-rule:nonzero;stroke:none;stroke-width:0.26458332"
       inkscape:connector-curvature="0" />
    <path
       id="path873"
       d="m 73.041584,79.474815 0.26456,-0.36377 c 0.0496,-0.0496 0.0496,-0.13228 0.0165,-0.19842 -0.0496,-0.0661 -0.13228,-0.0827 -0.19842,-0.0661 -0.0661,0.0165 -0.11574,0.0827 -0.11574,0.16535 l -0.0165,0.56219 v 0 0.3307 0 l -0.0165,0.46298 v 0 0.52913 -0.0496 l -0.16535,0.62833 v 0.0496 0.62833 -0.0331 l -0.13228,0.77714 v 0.0331 0.69448 0 l -0.0165,0.67793 v 0 0.6118 0 0.54566 0 0.46298 0.0165 0.42991 0 l 0.0165,0.3307 v 0.0165 l 0.0331,0.47951 c 0,0.0827 0.0331,0.14882 0.0992,0.18189 0.0661,0.0331 0.14881,0.0165 0.21495,-0.0165 0.0496,-0.0496 0.0827,-0.11575 0.0827,-0.18189 l -0.0331,-0.52913 v 0.0165 l 0.14882,-0.46298 c 0,-0.0165 -0.0165,-0.0496 -0.0331,-0.0496 -0.0165,-0.0165 -0.0496,0 -0.0496,0.0165 l -0.16535,0.47952 v -0.0165 l -0.24803,0.46298 c -0.0331,0.0661 -0.0331,0.16535 0.0165,0.21496 0.0661,0.0661 0.14882,0.0992 0.23149,0.0661 0.0661,-0.0165 0.13228,-0.0992 0.13228,-0.18189 l 0.0331,-0.47951 v -0.0165 -0.3307 0 -0.42991 -0.0165 l 0.0165,-0.46298 v 0 l -0.0165,-0.54565 v 0 -0.6118 0 -0.67794 0 -0.69447 0.0331 l 0.0992,-0.77714 0.0165,-0.0331 -0.0165,-0.62833 v 0.0496 l 0.13228,-0.62834 0.0165,-0.0496 -0.0165,-0.52912 v 0 -0.46298 0 l -0.0165,-0.3307 v 0 l -0.0165,-0.56219 c 0,-0.0827 -0.0661,-0.16535 -0.14881,-0.16535 -0.0827,-0.0165 -0.16535,0.0496 -0.18189,0.13228 l -0.0992,0.42991 c -0.0165,0.0331 0.0165,0.0661 0.0496,0.0827 0.0331,0.0165 0.0661,0 0.0827,-0.0165 z"
       style="fill:#800a10;fill-opacity:1;fill-rule:nonzero;stroke:none;stroke-width:0.26458332"
       inkscape:connector-curvature="0" />
    <path
       id="path875"
       d="m 66.559854,81.905465 0.34724,-0.16535 -0.34724,-0.18189 0.0827,0.47952 -0.0165,-0.0496 v 0.47952 0 l -0.0165,0.34723 v -0.0496 l -0.0992,0.52913 v 0 l -0.0992,0.54565 v 0 l -0.13229,0.64487 0.0165,-0.0165 -0.18189,0.711 -0.0165,0.0661 v 0.71101 l 0.0165,-0.0827 -0.21495,0.67793 -0.0165,0.0992 v 0.52912 l 0.0165,-0.0827 -0.13228,0.46298 c -0.0165,0.0827 -0.0165,0.16536 0.0331,0.23149 l 0.19842,0.31417 c 0.0331,0.0661 0.0992,0.0992 0.16535,0.0992 0.0661,0.0165 0.13228,-0.0165 0.18188,-0.0661 l 0.26457,-0.26456 v -0.0165 l 0.49605,-0.59526 c 0.0165,-0.0331 0.0165,-0.0661 -0.0165,-0.0827 -0.0165,-0.0165 -0.0496,-0.0165 -0.0661,0 l -0.61179,0.49605 0.0496,-0.0331 -0.34724,0.13228 0.2811,0.16535 -0.0827,-0.36377 -0.0165,0.16535 0.16535,-0.46298 0.0331,-0.0992 v -0.52912 l -0.0165,0.0992 0.21495,-0.69447 0.0165,-0.0992 v -0.711 0.0827 l 0.18188,-0.71101 v -0.0165 l 0.11575,-0.6614 v 0 l 0.0992,-0.52912 v 0 l 0.0992,-0.54565 v -0.0496 l -0.0165,-0.34724 v 0 l -0.0165,-0.47951 v -0.0661 l -0.13228,-0.46297 c -0.0165,-0.0827 -0.0992,-0.14882 -0.18189,-0.18189 -0.0827,-0.0165 -0.18188,0.0165 -0.23149,0.0827 l -0.26456,0.31417 c -0.0331,0.0496 -0.0496,0.13228 0,0.19842 0.0496,0.0496 0.13228,0.0661 0.19842,0.0331 z"
       style="fill:#800a10;fill-opacity:1;fill-rule:nonzero;stroke:none;stroke-width:0.26458332"
       inkscape:connector-curvature="0" />
    <path
       id="path877"
       d="m 123.21057,101.04871 0.2811,0.51259 -0.0165,-0.0661 -0.0165,0.34724 v 0 0.36377 0 0.47951 -0.0331 l -0.13228,0.52913 v 0 l -0.13228,0.6614 v 0 l -0.11575,0.62833 v -0.0165 l -0.24802,0.79368 v 0 l -0.24803,0.64486 v -0.0165 l -0.31416,0.6614 v 0 l -0.24803,0.44645 c 0,0.0331 0,0.0496 0.0331,0.0661 0.0165,0.0165 0.0331,0 0.0496,-0.0165 l 0.26456,-0.44645 v 0 l 0.36377,-0.62833 v -0.0165 l 0.29763,-0.61179 v -0.0165 l 0.29763,-0.77715 v -0.0165 l 0.16535,-0.62833 v 0 l 0.14882,-0.64487 v 0 l 0.13228,-0.51259 0.0165,-0.0496 -0.0165,-0.47951 v 0 -0.36377 0 l -0.0165,-0.34724 -0.0165,-0.0661 -0.31417,-0.51258 c -0.0331,-0.0496 -0.0992,-0.0661 -0.16535,-0.0331 -0.0496,0.0331 -0.0661,0.0992 -0.0496,0.16535 z"
       style="fill:#800a10;fill-opacity:1;fill-rule:nonzero;stroke:none;stroke-width:0.26458332"
       inkscape:connector-curvature="0" />
    <path
       id="path879"
       d="m 123.34285,101.13139 0.21496,-0.3307 -0.0165,0.0165 0.3803,-0.38031 -0.0496,0.0331 0.38031,-0.23149 -0.13228,0.0331 0.42991,0.0331 -0.14882,-0.0661 0.36377,0.2811 -0.0827,-0.0992 0.21496,0.39684 -0.0165,-0.0331 0.14881,0.38031 v 0.0165 l 0.14882,0.36377 c 0.0331,0.0827 0.11574,0.14881 0.19842,0.16535 l 0.44644,0.11574 -0.0661,-0.0331 0.36378,0.19842 -0.0496,-0.0331 0.34723,0.31417 -0.0496,-0.0661 0.26456,0.46298 -0.0496,-0.13228 v 0.57872 l 0.0165,-0.0827 -0.18188,0.56219 0.0661,-0.11574 -0.56219,0.57872 0.0331,-0.0331 -0.31417,0.2315 v 0 l -0.31417,0.23148 0.0165,-0.0165 -0.54565,0.29764 0.0496,-0.0165 -0.34723,0.11574 c -0.11575,0.0496 -0.18189,0.14882 -0.19843,0.24803 0,0.11574 0.0496,0.23149 0.14882,0.28109 l 0.46298,0.23149 -0.0496,-0.0331 0.44644,0.34724 -0.0496,-0.0661 0.39684,0.57872 -0.0496,-0.0992 0.0992,0.34724 v -0.0827 0.67794 l 0.0331,-0.14882 -0.3803,0.59526 0.13228,-0.0992 -0.76061,0.34723 0.0827,-0.0165 -0.46298,0.0165 v 0 l -0.52912,0.0331 v 0 l -0.49605,0.0496 v 0 l -0.44645,0.0331 0.0331,0.0165 -0.3803,-0.11574 c -0.0331,-0.0165 -0.0661,0 -0.0827,0.0496 -0.0165,0.0331 0,0.0827 0.0331,0.0992 l 0.34723,0.18189 0.0496,0.0165 0.44645,0.0331 v 0 l 0.49605,0.0496 v 0 l 0.52912,0.0331 v 0 l 0.46298,0.0165 0.11574,-0.0165 0.77715,-0.29764 c 0.0661,-0.0331 0.11574,-0.0661 0.14881,-0.11574 l 0.38031,-0.6118 c 0.0165,-0.0496 0.0331,-0.0992 0.0331,-0.14881 v -0.67794 -0.0827 l -0.11575,-0.3307 -0.0331,-0.0827 -0.39684,-0.57873 -0.0661,-0.0661 -0.44644,-0.3307 -0.0496,-0.0331 -0.44645,-0.23148 c -0.11574,-0.0496 -0.24802,-0.0331 -0.34723,0.0661 -0.0827,0.0992 -0.0827,0.24802 -0.0165,0.34723 0.0661,0.11575 0.19842,0.14882 0.3307,0.11575 l 0.34723,-0.11575 0.0496,-0.0165 0.54566,-0.29763 0.0331,-0.0331 0.31416,-0.23149 v 0 l 0.3307,-0.23149 0.0331,-0.0331 0.56219,-0.5622 0.0661,-0.11574 0.18189,-0.56219 0.0165,-0.0992 v -0.57872 l -0.0331,-0.14882 -0.26456,-0.46298 -0.0661,-0.0827 -0.34724,-0.31416 -0.0661,-0.0331 -0.36377,-0.19843 -0.0661,-0.0331 -0.42991,-0.0992 0.18189,0.16535 -0.14882,-0.36377 0.0165,0.0165 -0.14881,-0.39684 -0.0165,-0.0331 -0.21496,-0.41338 -0.0827,-0.0827 -0.38031,-0.281092 c -0.0496,-0.0331 -0.11574,-0.0496 -0.18188,-0.0496 l -0.42991,0.0165 c -0.0661,0.0165 -0.11575,0.0331 -0.14882,0.0661 l -0.36377,0.264562 -0.0331,0.0496 -0.3307,0.44644 -0.0331,0.0661 -0.11574,0.38031 c -0.0165,0.0661 0.0165,0.13228 0.0827,0.16535 0.0496,0.0165 0.11574,0 0.16535,-0.0496 z"
       style="fill:#800a10;fill-opacity:1;fill-rule:nonzero;stroke:none;stroke-width:0.26458332"
       inkscape:connector-curvature="0" />
    <path
       id="path883"
       d="m 109.14011,105.83109 -0.14882,0.42991 v 0.0661 l 0.0496,0.39684 0.0496,0.0992 0.3307,0.39684 c 0.0496,0.0496 0.13228,0.0827 0.21496,0.0661 l 0.67793,-0.0992 0.0992,-0.0496 0.34724,-0.24802 0.0331,-0.0165 0.41338,-0.36377 0.0165,-0.0331 0.3803,-0.42992 v 0 l 0.42991,-0.49605 0.0165,-0.0165 0.34724,-0.49605 0.0165,-0.0165 0.34723,-0.57872 v -0.0165 l 0.2811,-0.54566 0.0165,-0.0165 0.23149,-0.57873 v -0.0165 l 0.18188,-0.52912 v 0.0165 l 0.19842,-0.54565 v -0.0331 l 0.0992,-0.42991 v 0.0165 l 0.11575,-0.34724 c 0.0331,-0.13228 -0.0165,-0.26456 -0.13228,-0.3307 -0.11575,-0.0496 -0.24803,-0.0331 -0.34724,0.0496 -0.0827,0.0992 -0.0992,0.23149 -0.0331,0.34723 l 0.23149,0.36377 -0.0496,-0.14881 v 0.59526 l 0.0165,-0.0496 -0.14881,0.71101 v 0.0496 0.74407 -0.0331 l -0.13228,0.76061 v 0.0496 0.74408 0.0165 0.69447 0.0165 l 0.0165,0.67794 0.0165,0.0827 0.16535,0.47951 0.0165,0.0165 0.18188,0.39684 0.0827,0.0992 0.49605,0.2811 0.0992,0.0165 0.47952,-0.0661 v 0 l 0.36377,-0.0496 c 0.0165,0 0.0496,-0.0165 0.0496,-0.0496 0,-0.0165 -0.0331,-0.0496 -0.0496,-0.0496 l -0.36377,-0.0496 v 0 l -0.47952,-0.0661 0.0827,0.0496 -0.42991,-0.36377 0.0661,0.0992 -0.13228,-0.42991 v 0.0165 l -0.13228,-0.47951 v 0.0661 l 0.0165,-0.67794 v -0.0165 l 0.0165,-0.69447 v -0.0165 -0.74408 0.0496 l 0.13228,-0.77714 v -0.0496 -0.74408 0.0496 l 0.13228,-0.71101 v -0.0496 -0.59526 c 0,-0.0496 -0.0165,-0.0992 -0.0331,-0.14881 l -0.23149,-0.36377 c -0.0661,-0.0992 -0.16535,-0.14882 -0.28109,-0.13228 -0.11575,0.0165 -0.19842,0.0992 -0.23149,0.21495 l -0.0992,0.34724 v 0 l -0.0992,0.42991 0.0165,-0.0331 -0.19842,0.54565 -0.0165,0.0165 -0.16535,0.52912 v -0.0165 l -0.23149,0.56219 0.0165,-0.0165 -0.2811,0.54566 v -0.0165 l -0.3307,0.57873 v -0.0165 l -0.34723,0.49605 0.0165,-0.0331 -0.42992,0.49605 v 0 l -0.3803,0.44644 0.0165,-0.0331 -0.39684,0.38031 0.0165,-0.0165 -0.3307,0.28109 0.0992,-0.0661 -0.6614,0.14882 0.21495,0.0496 -0.39684,-0.3307 0.0661,0.0661 -0.16535,-0.36377 v 0.0827 l 0.0827,-0.44645 c 0,-0.0496 -0.0331,-0.11574 -0.0827,-0.13228 -0.0661,0 -0.11574,0.0331 -0.13228,0.0827 z"
       style="fill:#800a10;fill-opacity:1;fill-rule:nonzero;stroke:none;stroke-width:0.26458332"
       inkscape:connector-curvature="0" />
    <path
       id="path885"
       d="m 115.04311,106.52556 -0.51258,-0.41338 -0.0496,-0.0165 -0.39684,-0.16535 v 0 l -0.36377,-0.14881 h -0.0165 l -0.51259,-0.13228 h -0.0496 l -0.46298,-0.0165 0.0496,0.0165 -0.6118,-0.14882 -0.0496,-0.0165 -0.52911,0.0165 h -0.0165 l -0.42991,0.0331 v 0 l -0.41338,0.0331 v 0 l -0.31417,0.0331 h -0.0165 l -0.31416,0.0661 c -0.0165,0 -0.0331,0.0331 -0.0331,0.0496 0,0.0165 0.0165,0.0331 0.0331,0.0496 l 0.31416,0.0661 h 0.0165 l 0.31417,0.0331 v 0 l 0.41338,0.0331 v 0 l 0.42991,0.0331 h 0.0165 0.52911 -0.0496 l 0.6118,0.14882 0.0496,0.0165 0.46298,-0.0165 h -0.0496 l 0.51259,0.11574 -0.0165,-0.0165 0.36377,0.11575 v 0 l 0.42991,0.11574 -0.0496,-0.0331 0.54565,0.38031 c 0.0496,0.0331 0.14882,0.0165 0.18189,-0.0331 0.0496,-0.0661 0.0331,-0.14882 -0.0165,-0.19842 z"
       style="fill:#800a10;fill-opacity:1;fill-rule:nonzero;stroke:none;stroke-width:0.26458332"
       inkscape:connector-curvature="0" />
    <path
       id="path887"
       d="m 106.90253,104.10531 -0.59526,0.26456 0.0496,-0.0165 -0.3803,0.0827 -0.0331,0.0165 -0.44645,0.18189 0.0331,-0.0165 -0.36377,0.0661 -0.0496,0.0165 -0.31417,0.13228 h 0.0165 l -0.49605,0.13227 0.18189,0.0992 -0.0992,-0.33069 c 0,-0.0331 -0.0165,-0.0496 -0.0496,-0.0496 -0.0165,0 -0.0331,0.0165 -0.0496,0.0496 l -0.0992,0.33069 c -0.0165,0.0496 0,0.11574 0.0331,0.14881 0.0331,0.0331 0.0992,0.0496 0.14881,0.0496 l 0.51259,-0.0827 0.0331,-0.0165 0.3307,-0.13228 -0.0496,0.0165 0.36377,-0.0661 h 0.0496 l 0.46298,-0.18188 h -0.0331 l 0.36377,-0.0827 0.0496,-0.0165 0.57873,-0.26455 c 0.0992,-0.0496 0.13228,-0.14881 0.0992,-0.24803 -0.0496,-0.0827 -0.14882,-0.13227 -0.24803,-0.0827 z"
       style="fill:#800a10;fill-opacity:1;fill-rule:nonzero;stroke:none;stroke-width:0.26458332"
       inkscape:connector-curvature="0" />
    <path
       id="path889"
       d="m 107.08441,104.22105 -1.05824,-1.93459 c -0.0331,-0.0661 -0.0992,-0.0992 -0.18188,-0.0827 -0.0661,0.0165 -0.11575,0.0827 -0.11575,0.14881 l -0.0165,0.57873 0.0165,-0.0496 -0.11574,0.41338 v 0.0496 0.46298 -0.0661 l -0.18189,0.6118 v 0.0331 l -0.0992,0.6614 v 0.0331 0.61179 -0.0496 l -0.16535,0.57873 -0.0165,0.0496 0.0165,0.46298 v 0.0165 l 0.0165,0.47951 c 0,0.0827 0.0496,0.14882 0.11575,0.16536 0.0827,0.0165 0.14881,-0.0331 0.18188,-0.0992 l 0.26456,-0.51259 v 0 l 0.19842,-0.44645 v 0 l 0.24803,-0.42991 c 0.0165,-0.0165 0,-0.0496 -0.0165,-0.0496 -0.0165,-0.0165 -0.0496,-0.0165 -0.0661,0 l -0.26456,0.41338 h -0.0165 l -0.23149,0.42991 v -0.0165 l -0.3803,0.44644 0.28109,0.0992 0.0165,-0.47951 v -0.0165 -0.46298 0.0496 l 0.16535,-0.57873 0.0165,-0.0496 v -0.61179 0.0331 l 0.0992,-0.67794 -0.0165,0.0331 0.18188,-0.61183 0.0165,-0.0496 v -0.46298 l -0.0165,0.0331 0.0992,-0.41337 v -0.0331 l -0.0165,-0.57872 c 0,-0.0661 -0.0331,-0.11575 -0.0992,-0.14882 -0.0661,-0.0165 -0.13228,0 -0.18188,0.0496 -0.0331,0.0661 -0.0496,0.13228 -0.0165,0.19842 l 1.15745,1.86846 c 0.0165,0.0661 0.0827,0.0827 0.14882,0.0496 0.0496,-0.0331 0.0661,-0.0992 0.0331,-0.14882 z"
       style="fill:#800a10;fill-opacity:1;fill-rule:nonzero;stroke:none;stroke-width:0.26458332"
       inkscape:connector-curvature="0" />
    <path
       id="path891"
       d="m 99.236348,103.14639 0.34724,-0.23149 0.0165,-0.0165 0.39684,-0.41338 0.0165,-0.0165 0.24803,-0.3307 c 0.0331,-0.0496 0.0496,-0.13228 0.0165,-0.19842 -0.0331,-0.0661 -0.0992,-0.11575 -0.16536,-0.11575 h -0.347232 c -0.0496,0 -0.0992,0.0165 -0.14882,0.0496 l -0.52912,0.49605 -0.0331,0.0331 -0.26456,0.41338 0.0165,-0.0165 -0.34723,0.42991 -0.0331,0.0331 -0.24803,0.51259 -0.0165,0.0165 -0.19842,0.52912 v 0 l -0.19842,0.57872 -0.0165,0.0661 v 0.52912 0 0.47953 0 0.42991 l 0.0165,0.0827 0.18188,0.41337 0.0661,0.0827 0.57873,0.52912 0.0496,0.0331 0.38031,0.16536 h 0.0165 l 0.36377,0.11574 0.0661,0.0165 h 0.41337 l 0.0661,-0.0165 0.363772,-0.0992 0.0496,-0.0165 0.49606,-0.24803 0.0992,-0.0992 0.16534,-0.34723 0.0165,-0.0992 -0.0992,-0.36378 c 0,-0.0165 -0.0165,-0.0331 -0.0331,-0.0331 -0.0165,0 -0.0496,0.0165 -0.0496,0.0331 l -0.0992,0.36378 0.0496,-0.0661 -0.28109,0.28109 0.0827,-0.0496 -0.54566,0.18189 h 0.0165 l -0.363772,0.11574 0.0661,-0.0165 h -0.41337 l 0.0661,0.0165 -0.36377,-0.11574 0.0331,0.0165 -0.36377,-0.16535 0.0496,0.0496 -0.57873,-0.51259 0.0496,0.0661 -0.18189,-0.41337 0.0165,0.0992 v -0.42991 0 -0.47953 0 -0.52912 l -0.0165,0.0661 0.18189,-0.56219 v 0 l 0.19842,-0.51259 v 0.0165 l 0.24802,-0.51258 -0.0165,0.0331 0.34724,-0.44645 0.0165,-0.0165 0.24802,-0.41337 -0.0331,0.0496 0.52912,-0.49605 -0.13228,0.0661 0.347242,-0.0165 -0.181892,-0.2811 -0.19842,0.36377 0.0165,-0.0331 -0.34723,0.42991 v 0 l -0.2811,0.29763 c -0.0331,0.0331 -0.0331,0.0992 0,0.13228 0.0331,0.0331 0.0827,0.0331 0.11575,0.0165 z"
       style="fill:#800a10;fill-opacity:1;fill-rule:nonzero;stroke:none;stroke-width:0.26458332"
       inkscape:connector-curvature="0" />
    <path
       id="path893"
       d="m 77.952484,106.47652 0.38031,0.0661 h 0.0827 l 0.71101,-0.0827 h -0.0496 l 0.46298,0.0165 0.0827,-0.0165 0.61179,-0.16535 h -0.0165 l 0.6614,-0.13228 h -0.0496 0.71101 0.0331 l 0.85982,-0.13228 h -0.0496 0.71101 l 0.0661,-0.0165 0.82675,-0.18189 h -0.0496 l 0.64487,-0.0165 v 0 l 0.57872,-0.0331 -0.0331,-0.0165 0.49605,0.0661 h -0.0165 l 0.46298,0.0992 c 0.0331,0 0.0661,-0.0165 0.0827,-0.0496 0.0165,-0.0331 0,-0.0661 -0.0331,-0.0827 l -0.41337,-0.24802 -0.0331,-0.0165 -0.47952,-0.13228 h -0.0331 l -0.57873,-0.0331 v 0 l -0.64486,-0.0331 -0.0496,0.0165 -0.84329,0.14881 h 0.0496 l -0.711,-0.0165 h -0.0331 l -0.85982,0.11575 h 0.0496 -0.71101 -0.0661 l -0.6614,0.14881 h -0.0331 l -0.59526,0.19842 0.0661,-0.0165 -0.46298,0.0165 h -0.0496 l -0.69447,0.14882 v 0 l -0.38031,0.0661 c -0.0661,0.0165 -0.13228,0.0827 -0.13228,0.14881 0,0.0827 0.0661,0.14882 0.13228,0.16535 z"
       style="fill:#800a10;fill-opacity:1;fill-rule:nonzero;stroke:none;stroke-width:0.26458332"
       inkscape:connector-curvature="0" />
    <path
       id="path895"
       d="m 88.121534,103.61596 0.56219,0.0331 v 0 l 0.56219,0.0331 h 0.0496 l 0.67794,-0.0992 -0.11575,-0.0165 0.49605,0.18189 h 0.0331 l 0.52912,0.11574 -0.0661,-0.0165 0.41338,0.18189 -0.0331,-0.0165 0.39684,0.24802 -0.0992,-0.0992 0.36377,0.6614 -0.0331,-0.14881 v 0.41338 l 0.0331,-0.13228 -0.19842,0.39684 v 0 l -0.24802,0.46298 0.0331,-0.0661 -0.51259,0.56219 -0.0331,0.0165 -0.34724,0.47952 0.0165,-0.0165 -0.46298,0.49605 v 0 l -0.36377,0.36377 -0.0331,0.0331 -0.26456,0.46298 c -0.0165,0.0331 0,0.0827 0.0165,0.0992 0.0331,0.0165 0.0827,0.0165 0.0992,0 l 0.38031,-0.38031 -0.0165,0.0165 0.42991,-0.31416 h 0.0165 l 0.51259,-0.44645 0.0165,-0.0165 0.39684,-0.46298 v 0.0165 l 0.52912,-0.52912 0.0496,-0.0496 0.26456,-0.44644 0.0165,-0.0165 0.19842,-0.39684 0.0331,-0.13228 v -0.41338 l -0.0331,-0.13228 -0.36377,-0.64486 c -0.0331,-0.0496 -0.0661,-0.0827 -0.11574,-0.11575 l -0.39684,-0.23149 -0.0331,-0.0165 -0.41338,-0.16535 -0.0496,-0.0165 -0.54566,-0.0827 h 0.0331 l -0.49605,-0.16535 h -0.13228 l -0.6614,0.14881 h 0.0331 l -0.56219,0.0331 v 0 l -0.56219,0.0331 c -0.0827,0 -0.14882,0.0661 -0.14882,0.14882 0,0.0827 0.0661,0.14881 0.14882,0.14881 z"
       style="fill:#800a10;fill-opacity:1;fill-rule:nonzero;stroke:none;stroke-width:0.26458332"
       inkscape:connector-curvature="0" />
    <path
       id="path897"
       d="m 64.922884,100.30896 0.18189,-0.512595 -0.0165,0.0165 0.23149,-0.41337 -0.0496,0.0661 0.31416,-0.2811 c 0.0827,-0.0661 0.11575,-0.18188 0.0661,-0.2811 -0.0496,-0.0992 -0.14881,-0.14881 -0.26456,-0.13228 -0.0992,0.0331 -0.18188,0.11575 -0.18188,0.21496 l -0.0331,0.47952 v -0.0331 l -0.11575,0.777145 v 0.0331 l -0.0165,0.54566 v -0.0496 l -0.18189,0.81022 v 0 l -0.18188,0.92595 v 0 l -0.21496,1.07478 v 0.0165 l -0.19842,1.28973 v 0 l -0.24802,1.33934 v 0.0165 l -0.16535,1.38894 v 0 l -0.13228,1.30627 v 0 l -0.13228,1.15745 v 0.0331 1.02517 0.0165 l 0.0165,0.81022 0.0165,0.0661 0.14881,0.51258 0.0661,0.11575 0.31417,0.28109 c 0.0496,0.0331 0.0992,0.0661 0.16535,0.0496 0.0661,-0.0165 0.11574,-0.0496 0.14881,-0.11574 l 0.26456,-0.51259 v -0.0331 l 0.11575,-0.47951 v 0 l 0.0827,-0.51259 c 0.0165,-0.0165 0,-0.0331 -0.0331,-0.0496 -0.0165,0 -0.0331,0.0165 -0.0496,0.0331 l -0.14882,0.49605 0.0165,-0.0165 -0.19842,0.46298 0.0165,-0.0331 -0.39684,0.42991 0.31417,0.0331 -0.19842,-0.36377 0.0331,0.0827 -0.11575,-0.51258 0.0165,0.0661 0.0165,-0.81022 v -0.0165 -1.02517 0.0331 l 0.13228,-1.15745 v 0 l 0.13228,-1.30627 v 0 l 0.16535,-1.38894 v 0.0165 l 0.23149,-1.33934 v 0 l 0.21496,-1.30626 v 0.0165 l 0.19842,-1.07479 h -0.0165 l 0.18189,-0.92596 v 0 l 0.18188,-0.81022 v -0.0661 l -0.0165,-0.54565 v 0.0331 l 0.0992,-0.760625 v -0.0496 l -0.0331,-0.47951 c 0,-0.0827 -0.0661,-0.18189 -0.16535,-0.19842 -0.0992,-0.0331 -0.19842,0 -0.24803,0.0827 l -0.26456,0.3307 -0.0331,0.0827 -0.0827,0.44644 v 0 l -0.0992,0.545665 c -0.0165,0.0331 0.0165,0.0827 0.0496,0.0827 0.0496,0.0165 0.0827,0 0.0992,-0.0496 z"
       style="fill:#800a10;fill-opacity:1;fill-rule:nonzero;stroke:none;stroke-width:0.26458332"
       inkscape:connector-curvature="0" />
    <path
       id="path899"
       d="m 67.452744,104.50885 0.31417,0.0827 h 0.0331 l 0.36377,0.0165 -0.19842,-0.19841 v 0.36377 0 l -0.0165,0.44644 0.0165,-0.0661 -0.18189,0.52912 v 0.0165 l -0.14881,0.71101 v 0 l -0.18189,0.81021 v -0.0165 l -0.21495,0.95903 -0.0165,0.0331 -0.0992,0.89289 v 0 l -0.14881,0.95904 -0.0165,0.0331 v 0.81021 -0.0496 l -0.13228,0.6614 v 0.0661 l 0.0165,0.49606 v 0.0331 l 0.0331,0.3307 c 0.0165,0.0992 0.0992,0.18188 0.19842,0.19842 0.0992,0.0165 0.19842,-0.0331 0.24802,-0.13228 l 0.19842,-0.44645 0.0165,-0.0827 -0.0331,-0.31416 -0.0165,0.0496 0.14882,-0.41338 v -0.0165 l 0.0661,-0.38031 c 0,-0.0331 -0.0165,-0.0496 -0.0331,-0.0496 -0.0165,-0.0165 -0.0496,0 -0.0496,0.0165 l -0.13228,0.38031 v -0.0165 l -0.21495,0.39684 -0.0165,0.0331 -0.0331,0.31417 0.0331,-0.0827 -0.31416,0.36377 c -0.0661,0.0661 -0.0827,0.18188 -0.0331,0.26456 0.0496,0.0827 0.14881,0.13228 0.24802,0.11574 0.0992,-0.0165 0.16535,-0.0992 0.18189,-0.19842 l 0.0331,-0.3307 0.0165,-0.0331 v -0.49605 0.0496 l 0.13228,-0.66141 v -0.0661 l -0.0165,-0.81021 v 0.0496 l 0.13228,-0.95904 v -0.0165 l 0.0992,-0.90943 -0.0165,0.0331 0.21496,-0.95903 v 0 l 0.14881,-0.82675 v 0 l 0.13228,-0.711 v 0.0331 l 0.16535,-0.52913 v -0.0661 -0.44645 0 l -0.0165,-0.36377 c 0,-0.0661 -0.0165,-0.11574 -0.0661,-0.14881 -0.0331,-0.0331 -0.0827,-0.0496 -0.13228,-0.0496 l -0.36377,0.0165 h -0.0331 l -0.31417,0.0827 c -0.0496,0 -0.0827,0.0496 -0.0827,0.0992 0,0.0496 0.0331,0.0827 0.0827,0.0992 z"
       style="fill:#800a10;fill-opacity:1;fill-rule:nonzero;stroke:none;stroke-width:0.26458332"
       inkscape:connector-curvature="0" />
    <path
       id="path901"
       d="m 70.842424,102.85535 -0.0331,-0.3307 c -0.0165,-0.0827 -0.0661,-0.14882 -0.14881,-0.16535 -0.0661,-0.0165 -0.14882,0.0165 -0.18189,0.0827 -0.0496,0.0661 -0.0331,0.16535 0.0165,0.21496 l 0.3307,0.3803 -0.0496,-0.0992 0.0992,0.59527 v -0.0331 0.41337 0 0.49605 0 l -0.0165,0.62833 v 0 0.72754 0 0.82676 0 0.94249 0 l -0.0165,0.92596 v 0 0.9425 0 0.87636 0 0.85982 0 0.64486 0 0.56219 0 l 0.0165,0.41338 v 0 l 0.0165,0.34724 0.0331,-0.11575 -0.23149,0.36377 c -0.0496,0.0496 -0.0331,0.13228 0.0165,0.18189 0.0496,0.0496 0.13228,0.0496 0.18188,0 l 0.31417,-0.29763 c 0.0496,-0.0331 0.0661,-0.0827 0.0661,-0.13228 l 0.0165,-0.34724 v 0 l 0.0165,-0.41338 v 0 -0.56219 0 -0.64486 0 -0.85982 0 -0.87636 0 -0.9425 0 l -0.0165,-0.92596 v 0 -0.94249 0 -0.82676 0 -0.72754 0 -0.62833 0 l -0.0165,-0.49605 v 0 -0.41337 -0.0331 l -0.0992,-0.59527 -0.0496,-0.0992 -0.34723,-0.36377 c -0.0496,-0.0331 -0.11575,-0.0661 -0.18189,-0.0496 -0.0496,0.0165 -0.0992,0.0661 -0.11574,0.13229 -0.0331,0.0661 0,0.13227 0.0331,0.16534 l 0.24802,0.24803 c 0.0165,0.0165 0.0496,0.0331 0.0661,0.0165 0.0331,-0.0165 0.0331,-0.0331 0.0331,-0.0661 z"
       style="fill:#800a10;fill-opacity:1;fill-rule:nonzero;stroke:none;stroke-width:0.26458332"
       inkscape:connector-curvature="0" />
    <path
       id="path3377"
       d="m 120.91417,57.874746 -0.0331,0.165351 0.14881,-0.181886 -0.29763,0.148816 0.13228,-0.03307 h -0.24802 v 0 h -0.38031 -0.0165 l -0.39684,0.01653 v 0 l -0.49605,0.01654 v 0 l -0.46298,0.01653 h 0.0165 l -0.46298,-0.01653 h -0.0165 l -0.42991,0.0496 v 0 l -0.31417,0.03307 h -0.0165 l -0.18188,0.03307 c -0.0496,0.01654 -0.0661,0.03307 -0.0661,0.06614 0,0.03307 0.0165,0.06614 0.0661,0.08268 l 0.18188,0.03307 h 0.0165 l 0.31417,0.03307 v 0 l 0.42991,0.03307 h -0.0165 l 0.44644,0.08267 h 0.0331 l 0.46298,0.03307 v 0 l 0.49606,0.01654 v 0 l 0.39684,0.01653 h 0.0165 0.3803 v 0 h 0.24803 l 0.13228,-0.03307 0.28109,-0.148815 c 0.11575,-0.0496 0.16535,-0.181885 0.14882,-0.29763 l -0.0331,-0.165351 c -0.0331,-0.115745 -0.13228,-0.19842 -0.24803,-0.19842 -0.0992,0 -0.19842,0.08267 -0.23149,0.19842 z"
       style="fill:#800a10;fill-opacity:1;fill-rule:nonzero;stroke:none;stroke-width:0.26458332"
       inkscape:connector-curvature="0"
       sodipodi:nodetypes="ccccccccccccccccccccccsccccccccccccccccccccccscc" />
    <path
       sodipodi:nodetypes="ccccccccccccccccccccccsccccccccccccccccccccccscc"
       inkscape:connector-curvature="0"
       style="fill:#800a10;fill-opacity:1;fill-rule:nonzero;stroke:none;stroke-width:0.26458332"
       d="m 120.72518,81.498258 -0.0331,0.165351 0.14881,-0.181886 -0.29763,0.148816 0.13228,-0.03307 h -0.24802 v 0 h -0.38031 -0.0165 l -0.39684,0.01653 v 0 l -0.49605,0.01654 v 0 l -0.46298,0.01653 h 0.0165 l -0.46298,-0.01653 h -0.0165 l -0.42991,0.0496 v 0 l -0.31417,0.03307 h -0.0165 l -0.18188,0.03307 c -0.0496,0.01654 -0.0661,0.03307 -0.0661,0.06614 0,0.03307 0.0165,0.06614 0.0661,0.08268 l 0.18188,0.03307 h 0.0165 l 0.31417,0.03307 v 0 l 0.42991,0.03307 h -0.0165 l 0.44644,0.08267 h 0.0331 l 0.46298,0.03307 v 0 l 0.49606,0.01654 v 0 l 0.39684,0.01653 h 0.0165 0.3803 v 0 h 0.24803 l 0.13228,-0.03307 0.28109,-0.148815 c 0.11575,-0.0496 0.16535,-0.181885 0.14882,-0.29763 l -0.0331,-0.165351 c -0.0331,-0.115745 -0.13228,-0.19842 -0.24803,-0.19842 -0.0992,0 -0.19842,0.08267 -0.23149,0.19842 z"
       id="path3390" />
    <path
       id="path3392"
       d="m 119.87473,104.55481 -0.0331,0.16535 0.14881,-0.18189 -0.29763,0.14882 0.13228,-0.0331 h -0.24802 v 0 h -0.38031 -0.0165 l -0.39684,0.0165 v 0 l -0.49605,0.0165 v 0 l -0.46298,0.0165 h 0.0165 l -0.46298,-0.0165 h -0.0165 l -0.42991,0.0496 v 0 l -0.31417,0.0331 h -0.0165 l -0.18188,0.0331 c -0.0496,0.0165 -0.0661,0.0331 -0.0661,0.0661 0,0.0331 0.0165,0.0661 0.0661,0.0827 l 0.18188,0.0331 h 0.0165 l 0.31417,0.0331 v 0 l 0.42991,0.0331 h -0.0165 l 0.44644,0.0827 h 0.0331 l 0.46298,0.0331 v 0 l 0.49606,0.0165 v 0 l 0.39684,0.0165 h 0.0165 0.3803 v 0 h 0.24803 l 0.13228,-0.0331 0.28109,-0.14882 c 0.11575,-0.0496 0.16535,-0.18188 0.14882,-0.29763 l -0.0331,-0.16535 c -0.0331,-0.11574 -0.13228,-0.19842 -0.24803,-0.19842 -0.0992,0 -0.19842,0.0827 -0.23149,0.19842 z"
       style="fill:#800a10;fill-opacity:1;fill-rule:nonzero;stroke:none;stroke-width:0.26458332"
       inkscape:connector-curvature="0"
       sodipodi:nodetypes="ccccccccccccccccccccccsccccccccccccccccccccccscc" />
  </g>
</svg>
